<svg width="104" height="33" viewBox="0 0 104 33" fill="none" xmlns="http://www.w3.org/2000/svg">
<g clip-path="url(#clip0_334_988)">
<path d="M14.705 7.14533C14.5928 7.21617 14.4689 7.31654 14.4275 7.36968C14.3862 7.42281 13.0873 9.61909 11.5346 12.2582C9.98185 14.8972 8.69479 17.0522 8.67708 17.0581C8.65346 17.0581 6.98264 16.0957 4.95758 14.9208C1.52148 12.9312 1.2499 12.7895 0.948794 12.7659C0.588652 12.7364 0.328878 12.8545 0.151759 13.126C-0.0607831 13.4508 -0.0312633 13.6279 0.582748 15.7474C0.907466 16.8632 1.18495 17.7843 1.19086 17.7902C1.20266 17.802 3.08603 18.8883 5.37086 20.2108C9.01951 22.3185 9.53905 22.6019 9.62171 22.531C11.0918 21.2676 14.4571 18.4396 14.6165 18.3274C14.9235 18.1267 15.3131 18.1267 15.6201 18.3274C15.7795 18.4396 19.1448 21.2676 20.6149 22.531C20.6975 22.6019 21.2171 22.3185 24.8657 20.2108C27.1506 18.8883 29.0339 17.802 29.0457 17.7902C29.0516 17.7843 29.3291 16.8632 29.6538 15.7474C30.2679 13.6279 30.2974 13.4508 30.0848 13.126C29.9077 12.8545 29.6479 12.7364 29.2878 12.7659C28.9867 12.7895 28.7151 12.9312 25.279 14.9208C23.2539 16.0957 21.5831 17.0581 21.5595 17.0581C21.5418 17.0522 20.2547 14.8972 18.702 12.2582C17.1493 9.61909 15.8504 7.42281 15.8091 7.36968C15.6792 7.19846 15.3308 7.02134 15.1183 7.02134C15.0061 7.02134 14.8172 7.08038 14.705 7.14533Z" fill="white"/>
<path d="M1.89307 20.2581C1.89307 20.3939 3.86499 27.0949 3.94174 27.2307C4.00078 27.3251 4.12476 27.4609 4.21332 27.5318L4.37863 27.6558H15.1179H25.8572L26.0225 27.5318C26.1111 27.4609 26.2351 27.3251 26.2941 27.2307C26.3827 27.0713 28.3664 20.3053 28.3251 20.2699C28.3192 20.264 28.0476 20.4116 27.7229 20.6005C21.2521 24.3495 20.8861 24.5562 20.6145 24.5562C20.4669 24.5503 20.2839 24.5208 20.2131 24.4794C20.1422 24.4381 18.985 23.4699 17.633 22.3245C16.2869 21.185 15.1534 20.2463 15.1179 20.2463C15.0825 20.2463 13.949 21.185 12.6028 22.3245C11.2508 23.4699 10.0937 24.4381 10.0228 24.4794C9.78076 24.6152 9.397 24.568 9.04276 24.3732C8.61768 24.1311 2.33586 20.5061 2.0879 20.3526C1.98163 20.2876 1.89307 20.2463 1.89307 20.2581Z" fill="white"/>
</g>
<path d="M45.027 26.1008C45.027 27.0775 45.434 27.2946 46.2751 27.2946V28H41.1744V27.2946C42.0154 27.2946 42.4224 27.0775 42.4224 26.1008V12.6165C42.4224 11.6398 42.0154 11.4227 41.1744 11.4227V10.7173H45.027V26.1008ZM57.5113 26.1008C57.5113 27.0775 57.9182 27.2946 58.7593 27.2946V28H55.2322V24.5543H55.1508C54.7981 26.3179 53.8485 28.1899 51.3796 28.1899C49.0463 28.1899 47.744 26.8605 47.744 24.0117C47.744 23.3605 47.8525 22.4652 48.1509 21.7598L55.0966 21.0001V20.5389C55.0966 18.1513 54.3369 16.7947 52.6547 16.7947C51.2168 16.7947 50.5385 17.6629 50.5385 18.8025C50.5385 19.128 50.5928 19.3994 50.6742 19.6978V19.7792L48.3137 19.9962C48.2595 19.8335 48.0967 19.3994 48.0967 18.9381C48.0967 16.9847 49.9145 15.4924 52.7904 15.4924C57.3213 15.4924 57.5113 18.8296 57.5113 21.3257V26.1008ZM52.0036 26.6977C53.4687 26.6977 54.7981 25.1783 55.0423 21.7869L50.4842 22.7094C50.3214 23.1164 50.2401 23.7132 50.2401 24.3101C50.2401 25.721 50.8098 26.6977 52.0036 26.6977ZM67.7943 15.5738C68.771 15.5738 69.6935 15.9537 70.1547 16.6591L69.2594 19.1552L68.9609 19.0738C68.9881 18.3141 68.364 17.5544 67.2788 17.5544C65.6509 17.5544 64.1315 19.0466 64.1315 24.3644V26.1008C64.1315 27.0775 64.5385 27.2946 65.3796 27.2946V28H60.2789V27.2946C61.12 27.2946 61.5269 27.0775 61.5269 26.1008V17.6358C61.5269 16.6591 61.12 16.442 60.2789 16.442V15.7366H64.1315V20.0776H64.1858C64.5385 18.0428 65.4338 15.5738 67.7943 15.5738ZM71.6828 11.8297L73.6091 9.90336L75.5625 11.8297L73.6091 13.7832L71.6828 11.8297ZM74.9657 26.1008C74.9657 27.0775 75.3726 27.2946 76.2137 27.2946V28H71.113V27.2946C71.9541 27.2946 72.361 27.0775 72.361 26.1008V17.6358C72.361 16.6591 71.9541 16.442 71.113 16.442V15.7366H74.9657V26.1008ZM84.2187 20.8916C86.6334 21.5427 87.2032 22.9807 87.2032 24.5543C87.2032 27.6744 84.4358 28.1899 82.4552 28.1899C79.8506 28.1899 78.3855 27.1047 77.7072 26.2365V22.845H78.1684C78.7111 25.6124 80.2033 26.8876 82.3738 26.8876C83.8931 26.8876 84.8699 26.1551 84.8699 24.7985C84.8699 23.7946 84.273 23.1977 83.1335 22.8993L80.7188 22.2753C78.9281 21.814 77.9785 20.7831 77.9785 19.2366C77.9785 17.1203 79.6607 15.4924 82.6722 15.4924C84.1916 15.4924 85.6567 15.9808 86.6063 16.7947L86.8776 19.9962L86.4164 20.0505C85.6567 17.9885 84.5714 16.7947 82.6722 16.7947C81.3428 16.7947 80.3118 17.5273 80.3118 18.6397C80.3118 19.4536 80.6103 19.9148 82.1296 20.3218L84.2187 20.8916ZM100.29 26.1008C100.29 27.0775 100.697 27.2946 101.539 27.2946V28H96.4378V27.2946C97.2789 27.2946 97.6859 27.0775 97.6859 26.1008V20.4846C97.6859 18.1242 97.306 16.9847 95.7324 16.9847C94.1859 16.9847 92.6937 18.3412 92.6937 23.1164V26.1008C92.6937 27.0775 93.1007 27.2946 93.9417 27.2946V28H88.841V27.2946C89.6821 27.2946 90.0891 27.0775 90.0891 26.1008V17.6358C90.0891 16.6591 89.6821 16.442 88.841 16.442V15.7366H92.6937V19.0195H92.7479C92.965 17.2288 94.1316 15.4924 96.5192 15.4924C99.0967 15.4924 100.29 17.0932 100.29 19.9962V26.1008Z" fill="white"/>
<defs>
<clipPath id="clip0_334_988">
<rect width="30.2283" height="30.2283" fill="white" transform="translate(0.00195312 2.23926)"/>
</clipPath>
</defs>
</svg>
