<svg width="28" height="32" viewBox="0 0 28 32" fill="none" xmlns="http://www.w3.org/2000/svg">
<path d="M24.9785 27.7666L27.4034 0.611328H0.430664L0.462353 0.963714L2.85173 27.7704L2.87202 27.9935L13.815 31.0331H13.9874L24.9557 27.991L24.976 27.7679L24.9785 27.7666ZM13.9405 6.54232H21.7779L21.5421 9.28028L13.8099 12.7179L13.9392 13.3365H21.1948L20.3595 22.908L13.9126 24.6953L7.46825 22.9105L7.06262 18.327H9.71566L9.92861 20.6504L9.94889 20.8761L13.8594 21.9155H14.028L17.8953 20.8406L17.9143 20.6162L18.2794 16.3242L18.3086 15.9743H6.8408L6.59996 13.2199L14.5971 9.79618L14.4703 9.17507H6.25644L6.02194 6.53851H13.9316L13.9405 6.54232Z" fill="white"/>
</svg>
