<svg width="28" height="32" viewBox="0 0 28 32" fill="none" xmlns="http://www.w3.org/2000/svg">
<path d="M24.9434 27.9619L27.3683 0.806595H0.395508L0.427197 1.15898L2.81658 27.9657L2.83686 28.1888L13.7798 31.2284H13.9522L24.9206 28.1862L24.9408 27.9631L24.9434 27.9619ZM13.9053 6.73758H21.7428L21.507 9.47555L13.7748 12.9132L13.9041 13.5318H21.1597L20.3243 23.1033L13.8774 24.8905L7.43309 23.1058L7.02746 18.5222H9.6805L9.89345 20.8457L9.91373 21.0713L13.8242 22.1107H13.9928L17.8602 21.0358L17.8792 20.8115L18.2442 16.5195L18.2734 16.1696H6.80564L6.5648 13.4152L14.5619 9.99145L14.4352 9.37034H6.22129L5.98678 6.73378H13.8965L13.9053 6.73758Z" fill="black"/>
</svg>
