<svg width="32" height="31" viewBox="0 0 32 31" fill="none" xmlns="http://www.w3.org/2000/svg">
<g clip-path="url(#clip0_315_461)">
<path d="M4.44141 11.5513C5.84963 11.5513 6.99122 10.4097 6.99122 9.00147C6.99122 7.59325 5.84963 6.45166 4.44141 6.45166C3.03319 6.45166 1.8916 7.59325 1.8916 9.00147C1.8916 10.4097 3.03319 11.5513 4.44141 11.5513Z" stroke="#28282F" stroke-width="1.91236" stroke-miterlimit="10" stroke-linecap="round" stroke-linejoin="round"/>
<path d="M27.3892 11.5513C28.7974 11.5513 29.939 10.4097 29.939 9.00147C29.939 7.59325 28.7974 6.45166 27.3892 6.45166C25.9809 6.45166 24.8394 7.59325 24.8394 9.00147C24.8394 10.4097 25.9809 11.5513 27.3892 11.5513Z" stroke="#28282F" stroke-width="1.91236" stroke-miterlimit="10" stroke-linecap="round" stroke-linejoin="round"/>
<path d="M24.8394 9.00146H19.7397" stroke="#28282F" stroke-width="1.91236" stroke-miterlimit="10" stroke-linecap="round" stroke-linejoin="round"/>
<path d="M12.0908 9.00146H6.99121" stroke="#28282F" stroke-width="1.91236" stroke-miterlimit="10" stroke-linecap="round" stroke-linejoin="round"/>
<path d="M10.1787 21.1132V23.663C10.1787 24.4407 9.70701 25.1164 9.04406 25.3968C8.80183 25.5116 8.54685 25.5753 8.26637 25.5753H5.71656C4.65839 25.5753 3.8042 24.7211 3.8042 23.663V21.1132C3.8042 20.055 4.65839 19.2008 5.71656 19.2008H8.26637C9.32454 19.2008 10.1787 20.055 10.1787 21.1132Z" stroke="#28282F" stroke-width="1.91236" stroke-miterlimit="10" stroke-linecap="round" stroke-linejoin="round"/>
<path d="M28.0269 21.1132V23.663C28.0269 24.7211 27.1727 25.5753 26.1145 25.5753H23.5647C23.2842 25.5753 23.0292 25.5116 22.787 25.3968C22.1241 25.1164 21.6523 24.4407 21.6523 23.663V21.1132C21.6523 20.055 22.5065 19.2008 23.5647 19.2008H26.1145C27.1727 19.2008 28.0269 20.055 28.0269 21.1132Z" stroke="#28282F" stroke-width="1.91236" stroke-miterlimit="10" stroke-linecap="round" stroke-linejoin="round"/>
<path d="M19.7403 7.08912V10.9138C19.7403 11.9593 18.8733 12.8262 17.8279 12.8262H14.0032C12.9578 12.8262 12.0908 11.9593 12.0908 10.9138V7.08912C12.0908 6.04369 12.9578 5.17676 14.0032 5.17676H17.8279C18.8733 5.17676 19.7403 6.04369 19.7403 7.08912Z" stroke="#28282F" stroke-width="1.91236" stroke-miterlimit="10" stroke-linecap="round" stroke-linejoin="round"/>
<path d="M19.7397 9.93231C22.7613 11.4622 24.8394 14.7515 24.8394 18.5634C24.8394 18.7802 24.8266 18.9842 24.8011 19.2009" stroke="#28282F" stroke-width="1.91236" stroke-miterlimit="10" stroke-linecap="round" stroke-linejoin="round"/>
<path d="M7.02946 19.2009C7.00396 18.9842 6.99121 18.7802 6.99121 18.5634C6.99121 14.7515 9.06931 11.4622 12.0908 9.93231" stroke="#28282F" stroke-width="1.91236" stroke-miterlimit="10" stroke-linecap="round" stroke-linejoin="round"/>
</g>
<defs>
<clipPath id="clip0_315_461">
<rect width="30.5977" height="30.5977" fill="white" transform="translate(0.615723 0.0770264)"/>
</clipPath>
</defs>
</svg>
