<svg width="404" height="404" viewBox="0 0 404 404" fill="none" xmlns="http://www.w3.org/2000/svg">
<g clip-path="url(#clip0_338_31)">
<rect width="404" height="404" rx="202" fill="white"/>
<g clip-path="url(#clip1_338_31)">
<path d="M-117 0H650.6V404H-117" fill="#B31942"/>
<path d="M-117 46.6152H650.6ZM650.6 108.769H-117ZM-117 170.923H650.6ZM650.6 233.077H-117ZM-117 295.231H650.6ZM650.6 357.384H-117Z" fill="black"/>
<path d="M-117 46.6152H650.6M650.6 108.769H-117M-117 170.923H650.6M650.6 233.077H-117M-117 295.231H650.6M650.6 357.384H-117" stroke="white" stroke-width="31.0769"/>
<path d="M-117 0H190.04V217.538H-117" fill="#0A3161"/>
<path d="M10.9337 9.32275L18.2403 31.8102L-0.888672 17.9122H22.7561L3.62707 31.8102L10.9337 9.32275Z" fill="white"/>
<path d="M10.9337 52.8306L18.2403 75.318L-0.888672 61.42H22.7561L3.62707 75.318L10.9337 52.8306Z" fill="white"/>
<path d="M10.9337 96.3384L18.2403 118.826L-0.888672 104.928H22.7561L3.62707 118.826L10.9337 96.3384Z" fill="white"/>
<path d="M10.9337 139.846L18.2403 162.333L-0.888672 148.435H22.7561L3.62707 162.333L10.9337 139.846Z" fill="white"/>
<path d="M10.9337 183.354L18.2403 205.841L-0.888672 191.943H22.7561L3.62707 205.841L10.9337 183.354Z" fill="white"/>
<path d="M36.5196 31.0769L43.8263 53.5644L24.6973 39.6664H48.342L29.213 53.5644L36.5196 31.0769Z" fill="white"/>
<path d="M36.5196 74.5847L43.8263 97.0722L24.6973 83.1742H48.342L29.213 97.0722L36.5196 74.5847Z" fill="white"/>
<path d="M36.5196 118.092L43.8263 140.58L24.6973 126.682H48.342L29.213 140.58L36.5196 118.092Z" fill="white"/>
<path d="M36.5196 161.6L43.8263 184.088L24.6973 170.19H48.342L29.213 184.088L36.5196 161.6Z" fill="white"/>
<path d="M62.1065 9.32275L69.4132 31.8102L50.2842 17.9122H73.9289L54.7999 31.8102L62.1065 9.32275Z" fill="white"/>
<path d="M62.1065 52.8306L69.4132 75.318L50.2842 61.42H73.9289L54.7999 75.318L62.1065 52.8306Z" fill="white"/>
<path d="M62.1065 96.3384L69.4132 118.826L50.2842 104.928H73.9289L54.7999 118.826L62.1065 96.3384Z" fill="white"/>
<path d="M62.1065 139.846L69.4132 162.333L50.2842 148.435H73.9289L54.7999 162.333L62.1065 139.846Z" fill="white"/>
<path d="M62.1065 183.354L69.4132 205.841L50.2842 191.943H73.9289L54.7999 205.841L62.1065 183.354Z" fill="white"/>
<path d="M87.693 31.0769L94.9996 53.5644L75.8706 39.6664H99.5153L80.3863 53.5644L87.693 31.0769Z" fill="white"/>
<path d="M87.693 74.5847L94.9996 97.0722L75.8706 83.1742H99.5153L80.3863 97.0722L87.693 74.5847Z" fill="white"/>
<path d="M87.693 118.092L94.9996 140.58L75.8706 126.682H99.5153L80.3863 140.58L87.693 118.092Z" fill="white"/>
<path d="M87.693 161.6L94.9996 184.088L75.8706 170.19H99.5153L80.3863 184.088L87.693 161.6Z" fill="white"/>
<path d="M113.28 9.32275L120.587 31.8102L101.458 17.9122H125.102L105.973 31.8102L113.28 9.32275Z" fill="white"/>
<path d="M113.28 52.8306L120.587 75.318L101.458 61.42H125.102L105.973 75.318L113.28 52.8306Z" fill="white"/>
<path d="M113.28 96.3384L120.587 118.826L101.458 104.928H125.102L105.973 118.826L113.28 96.3384Z" fill="white"/>
<path d="M113.28 139.846L120.587 162.333L101.458 148.435H125.102L105.973 162.333L113.28 139.846Z" fill="white"/>
<path d="M113.28 183.354L120.587 205.841L101.458 191.943H125.102L105.973 205.841L113.28 183.354Z" fill="white"/>
<path d="M138.866 31.0769L146.173 53.5644L127.044 39.6664H150.689L131.56 53.5644L138.866 31.0769Z" fill="white"/>
<path d="M138.866 74.5847L146.173 97.0722L127.044 83.1742H150.689L131.56 97.0722L138.866 74.5847Z" fill="white"/>
<path d="M138.866 118.092L146.173 140.58L127.044 126.682H150.689L131.56 140.58L138.866 118.092Z" fill="white"/>
<path d="M138.866 161.6L146.173 184.088L127.044 170.19H150.689L131.56 184.088L138.866 161.6Z" fill="white"/>
<path d="M164.453 9.32275L171.76 31.8102L152.631 17.9122H176.276L157.147 31.8102L164.453 9.32275Z" fill="white"/>
<path d="M164.453 52.8306L171.76 75.318L152.631 61.42H176.276L157.147 75.318L164.453 52.8306Z" fill="white"/>
<path d="M164.453 96.3384L171.76 118.826L152.631 104.928H176.276L157.147 118.826L164.453 96.3384Z" fill="white"/>
<path d="M164.453 139.846L171.76 162.333L152.631 148.435H176.276L157.147 162.333L164.453 139.846Z" fill="white"/>
<path d="M164.453 183.354L171.76 205.841L152.631 191.943H176.276L157.147 205.841L164.453 183.354Z" fill="white"/>
</g>
</g>
<defs>
<clipPath id="clip0_338_31">
<rect width="404" height="404" rx="202" fill="white"/>
</clipPath>
<clipPath id="clip1_338_31">
<rect width="767.6" height="404" fill="white" transform="translate(-117)"/>
</clipPath>
</defs>
</svg>
