<svg width="50" height="50" viewBox="0 0 50 50" fill="none" xmlns="http://www.w3.org/2000/svg">
<rect x="0.517578" y="0.728516" width="48.7886" height="48.3083" rx="17.9497" fill="#FFD392"/>
<rect x="0.511719" y="0.747437" width="48.7886" height="48.3083" rx="17.9497" fill="#FFD392"/>
<g clip-path="url(#clip0_314_1124)">
<path d="M24.3194 14.4324C24.2035 14.5056 24.0754 14.6093 24.0327 14.6642C23.99 14.7191 22.648 16.9883 21.0437 19.715C19.4393 22.4418 18.1095 24.6683 18.0912 24.6744C18.0668 24.6744 16.3405 23.6801 14.2482 22.4662C10.6979 20.4104 10.4173 20.264 10.1062 20.2396C9.73409 20.2091 9.46569 20.3311 9.28268 20.6117C9.06308 20.9473 9.09358 21.1303 9.72799 23.3202C10.0635 24.4731 10.3502 25.4247 10.3563 25.4308C10.3685 25.443 12.3144 26.5654 14.6752 27.9319C18.445 30.1096 18.9818 30.4024 19.0672 30.3292C20.5862 29.0238 24.0632 26.1018 24.2279 25.9859C24.5451 25.7785 24.9477 25.7785 25.2649 25.9859C25.4296 26.1018 28.9067 29.0238 30.4256 30.3292C30.511 30.4024 31.0478 30.1096 34.8177 27.9319C37.1784 26.5654 39.1243 25.443 39.1365 25.4308C39.1426 25.4247 39.4293 24.4731 39.7648 23.3202C40.3992 21.1303 40.4297 20.9473 40.2101 20.6117C40.0271 20.3311 39.7587 20.2091 39.3866 20.2396C39.0755 20.264 38.7949 20.4104 35.2447 22.4662C33.1523 23.6801 31.426 24.6744 31.4016 24.6744C31.3833 24.6683 30.0535 22.4418 28.4492 19.715C26.8448 16.9883 25.5028 14.7191 25.4601 14.6642C25.3259 14.4873 24.966 14.3043 24.7464 14.3043C24.6305 14.3043 24.4353 14.3653 24.3194 14.4324Z" fill="#1B1F23"/>
<path d="M11.0815 27.9806C11.0815 28.1209 13.119 35.0445 13.1983 35.1848C13.2593 35.2824 13.3874 35.4227 13.4789 35.4959L13.6497 35.624H24.7457H35.8418L36.0126 35.4959C36.1041 35.4227 36.2322 35.2824 36.2932 35.1848C36.3847 35.0201 38.4344 28.0294 38.3917 27.9928C38.3856 27.9867 38.1049 28.1392 37.7694 28.3344C31.0837 32.208 30.7055 32.4215 30.4249 32.4215C30.2724 32.4154 30.0833 32.3849 30.0101 32.3422C29.9369 32.2995 28.7413 31.2991 27.3444 30.1156C25.9536 28.9383 24.7823 27.9684 24.7457 27.9684C24.7091 27.9684 23.5379 28.9383 22.1471 30.1156C20.7502 31.2991 19.5546 32.2995 19.4814 32.3422C19.2313 32.4825 18.8348 32.4337 18.4688 32.2324C18.0295 31.9823 11.539 28.2368 11.2828 28.0782C11.173 28.0111 11.0815 27.9684 11.0815 27.9806Z" fill="#1B1F23"/>
</g>
<defs>
<clipPath id="clip0_314_1124">
<rect width="31.2325" height="31.2325" fill="white" transform="translate(9.12793 9.36328)"/>
</clipPath>
</defs>
</svg>
