<svg width="13" height="13" viewBox="0 0 13 13" fill="none" xmlns="http://www.w3.org/2000/svg">
<path d="M12.5029 2.88568C12.6496 2.44521 12.6967 1.98123 12.6412 1.52299C12.5856 1.06475 12.4286 0.622199 12.18 0.223235C12.1378 0.155311 12.0772 0.0989089 12.0042 0.059701C11.9312 0.0204931 11.8483 -0.00013897 11.764 -0.00012044C11.2048 -0.00120348 10.653 0.119425 10.1527 0.352127C9.65248 0.584829 9.21768 0.923154 8.88304 1.34007L7.44254 1.34009C7.10792 0.923177 6.67312 0.584861 6.17288 0.35217C5.67265 0.119479 5.12085 -0.00113742 4.56157 -4.22254e-05C4.47726 -5.89244e-05 4.39444 0.0205749 4.32142 0.0597844C4.24841 0.0989939 4.18778 0.155397 4.14562 0.223322C3.89704 0.622291 3.74001 1.06485 3.68443 1.52309C3.62885 1.98133 3.67592 2.44531 3.82268 2.88578C3.52601 3.36752 3.36709 3.91199 3.36111 4.46717L3.3611 4.91389C3.3621 5.66974 3.65703 6.39972 4.19142 6.96904C4.72581 7.53836 5.46357 7.90857 6.26847 8.0113C5.93991 8.40244 5.76157 8.88465 5.76188 9.38106L5.76187 9.82778L4.32138 9.82779C3.93933 9.8278 3.57294 9.68661 3.3028 9.43528C3.03265 9.18396 2.88089 8.84308 2.8809 8.48765C2.8809 8.19433 2.8188 7.90388 2.69815 7.63289C2.5775 7.3619 2.40066 7.11567 2.17773 6.90827C1.95479 6.70086 1.69013 6.53634 1.39885 6.42409C1.10757 6.31184 0.795377 6.25407 0.480096 6.25408C0.352748 6.25408 0.230616 6.30115 0.140566 6.38492C0.050517 6.4687 -7.29848e-05 6.58233 -7.42985e-05 6.7008C-7.56122e-05 6.81928 0.0505118 6.93291 0.140559 7.01668C0.230607 7.10046 0.352738 7.14752 0.480086 7.14752C0.862129 7.14751 1.22852 7.2887 1.49867 7.54003C1.76881 7.79136 1.92057 8.13223 1.92057 8.48766C1.92056 9.08005 2.1735 9.64817 2.62373 10.067C3.07397 10.4859 3.68463 10.7212 4.32137 10.7212L5.76186 10.7212L5.76185 11.6147C5.76185 11.7331 5.81244 11.8468 5.90249 11.9305C5.99253 12.0143 6.11466 12.0614 6.24201 12.0614C6.36936 12.0614 6.49149 12.0143 6.58154 11.9305C6.67159 11.8468 6.72218 11.7331 6.72218 11.6146L6.72221 9.38105C6.72221 9.02562 6.87398 8.68474 7.14413 8.43341C7.41428 8.18208 7.78067 8.04088 8.16272 8.04087C8.54476 8.04087 8.91115 8.18206 9.1813 8.43339C9.45144 8.68471 9.6032 9.02559 9.6032 9.38102L9.60317 11.6146C9.60317 11.7331 9.65376 11.8467 9.74381 11.9305C9.83385 12.0143 9.95599 12.0613 10.0833 12.0613C10.2107 12.0613 10.3328 12.0143 10.4229 11.9305C10.5129 11.8467 10.5635 11.7331 10.5635 11.6146L10.5635 9.38101C10.5638 8.8846 10.3855 8.40239 10.057 8.01126C10.8619 7.90851 11.5996 7.53829 12.134 6.96896C12.6684 6.39962 12.9634 5.66964 12.9644 4.91378L12.9644 4.46706C12.9584 3.91189 12.7995 3.36742 12.5029 2.88568ZM12.0041 4.91379C12.0041 5.50618 11.7511 6.07431 11.3009 6.49319C10.8506 6.91208 10.24 7.14741 9.60322 7.14742L6.72223 7.14745C6.08549 7.14746 5.47484 6.91214 5.0246 6.49326C4.57436 6.07439 4.32142 5.50626 4.32143 4.91388L4.32144 4.46716C4.32733 4.02045 4.47109 3.58473 4.73559 3.21187C4.7849 3.15141 4.81684 3.08025 4.82839 3.00512C4.83994 2.92999 4.83073 2.85336 4.80162 2.78246C4.67655 2.48238 4.61637 2.16228 4.62451 1.84051C4.63265 1.51875 4.70895 1.20164 4.84906 0.907354C5.24202 0.946679 5.62043 1.06778 5.95624 1.26169C6.29204 1.45559 6.57663 1.71732 6.78891 2.02748C6.83217 2.09042 6.8917 2.14225 6.96206 2.17825C7.03242 2.21424 7.11135 2.23325 7.19165 2.23353L9.13332 2.23351C9.21392 2.23351 9.29322 2.21463 9.36392 2.17862C9.43462 2.14261 9.49443 2.09063 9.53786 2.02745C9.75011 1.71726 10.0347 1.4555 10.3705 1.26159C10.7063 1.06767 11.0848 0.946576 11.4777 0.907282C11.6176 1.20164 11.6937 1.51878 11.7017 1.84055C11.7096 2.16231 11.6492 2.48237 11.5239 2.78239C11.4949 2.85261 11.4852 2.92846 11.4957 3.00306C11.5062 3.07766 11.5365 3.14864 11.5839 3.20956C11.8511 3.58242 11.9969 4.01903 12.0041 4.46707L12.0041 4.91379Z" fill="white"/>
</svg>
