<svg width="44" height="41" viewBox="0 0 44 41" fill="none" xmlns="http://www.w3.org/2000/svg">
<path d="M42.3758 10.0857C42.8684 8.60724 43.0265 7.04984 42.8399 5.51172C42.6534 3.9736 42.1263 2.48813 41.292 1.14897C41.1505 0.920973 40.947 0.731656 40.7019 0.60005C40.4568 0.468445 40.1788 0.399192 39.8958 0.399254C38.0186 0.395619 36.1664 0.800519 34.4873 1.58161C32.8082 2.36269 31.3487 3.49831 30.2255 4.89773L25.3903 4.89778C24.2671 3.49839 22.8077 2.3628 21.1286 1.58175C19.4495 0.800701 17.5973 0.39584 15.72 0.399516C15.4371 0.39946 15.159 0.46872 14.914 0.60033C14.6689 0.731941 14.4654 0.921263 14.3239 1.14926C13.4895 2.48844 12.9624 3.97392 12.7758 5.51205C12.5893 7.05017 12.7473 8.60757 13.2399 10.086C12.2441 11.7031 11.7107 13.5306 11.6906 15.3941L11.6906 16.8936C11.6939 19.4307 12.6839 21.8809 14.4776 23.7919C16.2713 25.7029 18.7477 26.9455 21.4494 27.2904C20.3466 28.6033 19.748 30.2219 19.749 31.8881L19.749 33.3875L14.9138 33.3876C13.6314 33.3876 12.4016 32.9137 11.4948 32.0701C10.5881 31.2265 10.0787 30.0823 10.0787 28.8893C10.0787 27.9047 9.87028 26.9298 9.4653 26.0202C9.06033 25.1106 8.46675 24.2841 7.71845 23.5879C6.97014 22.8917 6.08178 22.3395 5.10407 21.9627C4.12636 21.586 3.07845 21.3921 2.02018 21.3921C1.59272 21.3921 1.18278 21.5501 0.880516 21.8313C0.578256 22.1125 0.408446 22.4939 0.408442 22.8915C0.408438 23.2892 0.578239 23.6706 0.880492 23.9518C1.18275 24.233 1.59269 24.391 2.02015 24.391C3.30251 24.391 4.53235 24.8649 5.43911 25.7085C6.34587 26.5521 6.85527 27.6963 6.85526 28.8893C6.85523 30.8777 7.70424 32.7847 9.21551 34.1907C10.7268 35.5967 12.7765 36.3865 14.9138 36.3865L19.7489 36.3865L19.7489 39.3854C19.7489 39.7831 19.9187 40.1644 20.221 40.4456C20.5232 40.7268 20.9332 40.8848 21.3606 40.8848C21.7881 40.8848 22.198 40.7268 22.5003 40.4456C22.8025 40.1644 22.9723 39.783 22.9723 39.3853L22.9724 31.888C22.9724 30.695 23.4819 29.5508 24.3886 28.7072C25.2954 27.8636 26.5253 27.3896 27.8076 27.3896C29.09 27.3896 30.3198 27.8635 31.2266 28.7071C32.1334 29.5507 32.6428 30.6949 32.6427 31.8879L32.6427 39.3852C32.6427 39.7829 32.8125 40.1643 33.1147 40.4455C33.417 40.7267 33.8269 40.8847 34.2544 40.8847C34.6818 40.8847 35.0918 40.7267 35.394 40.4455C35.6963 40.1643 35.8661 39.7829 35.8661 39.3852L35.8662 31.8879C35.8672 30.2217 35.2687 28.6031 34.1659 27.2902C36.8676 26.9453 39.344 25.7026 41.1378 23.7916C42.9315 21.8806 43.9215 19.4303 43.925 16.8932L43.925 15.3938C43.9049 13.5303 43.3715 11.7027 42.3758 10.0857ZM40.7015 16.8933C40.7015 18.8817 39.8524 20.7887 38.3411 22.1947C36.8299 23.6007 34.7801 24.3906 32.6428 24.3907L22.9725 24.3908C20.8352 24.3908 18.7855 23.6009 17.2742 22.1949C15.763 20.7889 14.914 18.882 14.914 16.8936L14.914 15.3941C14.9338 13.8947 15.4163 12.4321 16.3042 11.1806C16.4697 10.9777 16.5769 10.7388 16.6156 10.4866C16.6544 10.2344 16.6235 9.97723 16.5258 9.73925C16.106 8.73199 15.904 7.65756 15.9313 6.57752C15.9586 5.49748 16.2147 4.43307 16.685 3.44528C18.004 3.57728 19.2742 3.98377 20.4014 4.63463C21.5285 5.28549 22.4838 6.16402 23.1963 7.2051C23.3415 7.41634 23.5413 7.59034 23.7775 7.71116C24.0137 7.83198 24.2786 7.89578 24.5481 7.89671L31.0655 7.89664C31.3361 7.89664 31.6023 7.83329 31.8396 7.71242C32.0769 7.59155 32.2777 7.41705 32.4234 7.205C33.1359 6.16381 34.0911 5.28519 35.2183 4.63429C36.3455 3.9834 37.6158 3.57693 38.9348 3.44504C39.4044 4.43307 39.6598 5.4976 39.6864 6.57764C39.7131 7.65767 39.5103 8.73198 39.0899 9.73901C38.9925 9.97472 38.9599 10.2293 38.995 10.4797C39.0302 10.7301 39.1321 10.9684 39.2913 11.1729C40.1879 12.4244 40.6776 13.8899 40.7015 15.3938L40.7015 16.8933Z" fill="#14141A"/>
</svg>
