<svg width="27" height="27" viewBox="0 0 27 27" fill="none" xmlns="http://www.w3.org/2000/svg">
<path d="M11.7563 22.5543V5.38653C11.7563 3.75668 11.0609 3.10474 9.33328 3.10474H4.94355C3.21591 3.10474 2.52051 3.75668 2.52051 5.38653V22.5543C2.52051 24.1841 3.21591 24.8361 4.94355 24.8361H9.33328C11.0609 24.8361 11.7563 24.1841 11.7563 22.5543Z" stroke="#28282F" stroke-width="1.62985" stroke-linecap="round" stroke-linejoin="round"/>
<path d="M24.2519 12.7752V5.38653C24.2519 3.75668 23.5565 3.10474 21.8289 3.10474H17.4392C15.7115 3.10474 15.0161 3.75668 15.0161 5.38653V12.7752C15.0161 14.405 15.7115 15.057 17.4392 15.057H21.8289C23.5565 15.057 24.2519 14.405 24.2519 12.7752Z" stroke="#28282F" stroke-width="1.62985" stroke-linecap="round" stroke-linejoin="round"/>
<path d="M24.2519 22.5547V20.5989C24.2519 18.969 23.5565 18.3171 21.8289 18.3171H17.4392C15.7115 18.3171 15.0161 18.969 15.0161 20.5989V22.5547C15.0161 24.1845 15.7115 24.8365 17.4392 24.8365H21.8289C23.5565 24.8365 24.2519 24.1845 24.2519 22.5547Z" stroke="#28282F" stroke-width="1.62985" stroke-linecap="round" stroke-linejoin="round"/>
</svg>
