<svg width="40" height="40" viewBox="0 0 40 40" fill="none" xmlns="http://www.w3.org/2000/svg">
<path d="M18.7125 34.0532C18.6449 34.3236 18.4889 34.5637 18.2692 34.7352C18.0495 34.9068 17.7788 35 17.5 35C17.3947 35.0006 17.2897 34.988 17.1875 34.9625L12.1875 33.7125C12.0483 33.6776 11.9162 33.6189 11.7969 33.5391L8.0469 31.0391C7.77111 30.8551 7.57972 30.5691 7.51481 30.244C7.44991 29.9189 7.51681 29.5813 7.7008 29.3055C7.8848 29.0297 8.17081 28.8383 8.49592 28.7734C8.82103 28.7085 9.15861 28.7754 9.4344 28.9594L13.0031 31.3391L17.7938 32.5376C17.9538 32.5764 18.1047 32.6464 18.2376 32.7437C18.3705 32.841 18.4828 32.9635 18.5682 33.1044C18.6536 33.2452 18.7103 33.4016 18.735 33.5644C18.7598 33.7272 18.7522 33.8933 18.7125 34.0532ZM39.4453 18.9813C39.3428 19.2928 39.1795 19.581 38.965 19.829C38.7504 20.0771 38.4888 20.2802 38.1953 20.4266L34.4953 22.2766L25.8891 30.8844C25.7363 31.037 25.5467 31.1474 25.3386 31.2049C25.1305 31.2624 24.911 31.2651 24.7016 31.2125L14.7016 28.7125C14.5495 28.6744 14.4059 28.6081 14.2781 28.5172L5.60315 22.3235L1.8094 20.4266C1.21648 20.1302 0.765555 19.6105 0.555761 18.9817C0.345968 18.3529 0.394485 17.6665 0.690647 17.0735L4.57346 9.30943C4.86986 8.71651 5.38959 8.26558 6.01839 8.05579C6.64718 7.846 7.33355 7.89451 7.92658 8.19068L11.3735 9.90943L19.6547 7.5438C19.8794 7.47954 20.1175 7.47954 20.3422 7.5438L28.6235 9.90943L32.0703 8.19068C32.6634 7.89451 33.3497 7.846 33.9785 8.05579C34.6073 8.26558 35.1271 8.71651 35.4235 9.30943L39.3063 17.0735C39.4544 17.3665 39.5429 17.686 39.5668 18.0135C39.5907 18.3409 39.5494 18.6699 39.4453 18.9813ZM32.2297 21.0032L27.9781 12.5001H23.0063L16.25 19.0626C18.2281 20.3266 21.3297 20.6751 24.1125 17.8704C24.3299 17.6513 24.6205 17.5204 24.9286 17.5028C25.2367 17.4852 25.5404 17.5822 25.7813 17.7751L31.1578 22.0829L32.2297 21.0032ZM2.92658 18.1907L5.69065 19.5735L9.57346 11.8094L6.8094 10.4266L2.92658 18.1907ZM29.375 23.8532L25.0453 20.386C21.9922 22.886 18.1156 23.2157 14.9031 21.1672C14.5871 20.9662 14.3203 20.6968 14.1224 20.3788C13.9246 20.0608 13.8006 19.7025 13.7598 19.3302C13.719 18.9579 13.7624 18.5812 13.8867 18.2279C14.0111 17.8746 14.2132 17.5538 14.4781 17.2891C14.4819 17.2846 14.4861 17.2804 14.4906 17.2766L21.5 10.4782L20 10.0501L12.1219 12.3016L7.84533 20.8532L15.5328 26.3454L24.6172 28.6157L29.375 23.8532ZM37.0688 18.1907L33.1906 10.4266L30.4266 11.8094L34.3094 19.5735L37.0688 18.1907Z" fill="#14141A"/>
</svg>
