<svg width="48" height="49" viewBox="0 0 48 49" fill="none" xmlns="http://www.w3.org/2000/svg">
<path d="M18.0907 44.2341H30.006C39.9354 44.2341 43.9072 40.2623 43.9072 30.3329V18.4176C43.9072 8.48813 39.9354 4.51636 30.006 4.51636H18.0907C8.16123 4.51636 4.18945 8.48813 4.18945 18.4176V30.3329C4.18945 40.2623 8.16123 44.2341 18.0907 44.2341Z" stroke="black" stroke-width="2.97883" stroke-linecap="round" stroke-linejoin="round"/>
<path d="M24.0487 31.3258C27.8875 31.3258 30.9993 28.2139 30.9993 24.3752C30.9993 20.5364 27.8875 17.4246 24.0487 17.4246C20.21 17.4246 17.0981 20.5364 17.0981 24.3752C17.0981 28.2139 20.21 31.3258 24.0487 31.3258Z" stroke="black" stroke-width="2.97883" stroke-linecap="round" stroke-linejoin="round"/>
<path d="M35.2412 14.4456H35.2648" stroke="black" stroke-width="3.97177" stroke-linecap="round" stroke-linejoin="round"/>
</svg>
