<svg width="14" height="14" viewBox="0 0 14 14" fill="none" xmlns="http://www.w3.org/2000/svg">
<path d="M4.94665 12.0925H8.24453C10.9928 12.0925 12.0921 10.9933 12.0921 8.24502V4.94714C12.0921 2.1989 10.9928 1.09961 8.24453 1.09961H4.94665C2.19841 1.09961 1.09912 2.1989 1.09912 4.94714V8.24502C1.09912 10.9933 2.19841 12.0925 4.94665 12.0925Z" stroke="white" stroke-width="0.82447" stroke-linecap="round" stroke-linejoin="round"/>
<path d="M6.59564 8.51989C7.65811 8.51989 8.5194 7.65859 8.5194 6.59613C8.5194 5.53366 7.65811 4.67236 6.59564 4.67236C5.53317 4.67236 4.67188 5.53366 4.67188 6.59613C4.67188 7.65859 5.53317 8.51989 6.59564 8.51989Z" stroke="white" stroke-width="0.82447" stroke-linecap="round" stroke-linejoin="round"/>
<path d="M9.69385 3.84766H9.70195" stroke="white" stroke-width="1.09929" stroke-linecap="round" stroke-linejoin="round"/>
</svg>
