<svg width="30" height="30" viewBox="0 0 30 30" fill="none" xmlns="http://www.w3.org/2000/svg">
<path d="M0.12207 0.532715V29.5803H29.1696V0.532715H0.12207ZM22.2324 13.6896C23.1209 13.6896 23.8784 13.8604 24.5049 14.2022C25.1315 14.5439 25.6611 15.1021 26.094 15.8767L23.9753 17.2436C23.7474 16.8335 23.4968 16.5374 23.2234 16.3551C22.95 16.1728 22.6197 16.0817 22.2324 16.0817C21.8451 16.0817 21.5318 16.1899 21.2926 16.4064C21.0534 16.6228 20.9338 16.9019 20.9338 17.2436C20.9338 17.6309 21.0591 17.9499 21.3097 18.2005C21.5375 18.4055 21.9704 18.6447 22.6083 18.9181L23.2918 19.1915C24.5448 19.7383 25.4333 20.2965 25.9573 20.866C26.5952 21.5495 26.9142 22.4266 26.9142 23.4974C26.9142 24.6821 26.4813 25.6161 25.6156 26.2996C24.7954 26.9603 23.7133 27.2907 22.3691 27.2907C21.1616 27.2907 20.125 27.0287 19.2593 26.5047C18.4619 26.0034 17.8468 25.3314 17.4139 24.4884L19.6352 23.224C19.9542 23.748 20.3073 24.1467 20.6946 24.4201C21.1502 24.7162 21.697 24.8643 22.3349 24.8643C22.8817 24.8643 23.326 24.739 23.6677 24.4884C24.0094 24.2378 24.1803 23.9075 24.1803 23.4974C24.1803 23.0873 24.0094 22.7456 23.6677 22.4722C23.4171 22.2899 22.9273 22.0393 22.1982 21.7204L21.5148 21.4128C20.4212 20.9571 19.6238 20.4445 19.1226 19.875C18.5303 19.2143 18.2341 18.3599 18.2341 17.312C18.2341 16.264 18.5986 15.3982 19.3276 14.7148C20.0567 14.0313 21.0249 13.6896 22.2324 13.6896ZM13.2106 13.8604H15.9445V23.1898C15.9445 24.5568 15.5572 25.5934 14.7825 26.2996C14.0763 26.9603 13.0967 27.2907 11.8436 27.2907C10.8184 27.2907 9.94129 27.0514 9.21225 26.573C8.59713 26.1401 8.1073 25.5478 7.74279 24.796L9.99824 23.4632C10.2489 23.9416 10.4767 24.272 10.6817 24.4542C10.9551 24.7276 11.3082 24.8643 11.7411 24.8643C12.2195 24.8643 12.5727 24.7504 12.8005 24.5226C13.0739 24.2492 13.2106 23.7936 13.2106 23.1556V13.8604Z" fill="white"/>
</svg>
