<svg width="30" height="30" viewBox="0 0 30 30" fill="none" xmlns="http://www.w3.org/2000/svg">
<path d="M0.0869141 0.728149V29.7757H29.1345V0.728149H0.0869141ZM22.1972 13.885C23.0858 13.885 23.8433 14.0559 24.4698 14.3976C25.0963 14.7393 25.626 15.2975 26.0589 16.0721L23.9401 17.439C23.7123 17.029 23.4617 16.7328 23.1883 16.5505C22.9149 16.3683 22.5845 16.2771 22.1972 16.2771C21.8099 16.2771 21.4967 16.3854 21.2575 16.6018C21.0183 16.8182 20.8986 17.0973 20.8986 17.439C20.8986 17.8263 21.0239 18.1453 21.2746 18.3959C21.5024 18.6009 21.9352 18.8402 22.5732 19.1136L23.2566 19.3869C24.5097 19.9337 25.3982 20.4919 25.9222 21.0614C26.5601 21.7449 26.879 22.622 26.879 23.6928C26.879 24.8775 26.4462 25.8116 25.5804 26.4951C24.7603 27.1557 23.6781 27.4861 22.3339 27.4861C21.1265 27.4861 20.0899 27.2241 19.2241 26.7001C18.4268 26.1989 17.8116 25.5268 17.3788 24.6839L19.6 23.4194C19.919 23.9434 20.2721 24.3421 20.6594 24.6155C21.1151 24.9117 21.6619 25.0598 22.2998 25.0598C22.8465 25.0598 23.2908 24.9345 23.6325 24.6839C23.9743 24.4332 24.1451 24.1029 24.1451 23.6928C24.1451 23.2827 23.9743 22.941 23.6325 22.6676C23.3819 22.4853 22.8921 22.2347 22.1631 21.9158L21.4796 21.6082C20.386 21.1526 19.5887 20.64 19.0874 20.0704C18.4951 19.4097 18.1989 18.5554 18.1989 17.5074C18.1989 16.4594 18.5634 15.5937 19.2925 14.9102C20.0215 14.2267 20.9898 13.885 22.1972 13.885ZM13.1754 14.0559H15.9093V23.3853C15.9093 24.7522 15.522 25.7888 14.7474 26.4951C14.0411 27.1557 13.0615 27.4861 11.8085 27.4861C10.7833 27.4861 9.90613 27.2469 9.17709 26.7684C8.56197 26.3356 8.07215 25.7432 7.70763 24.9914L9.96309 23.6586C10.2137 24.1371 10.4415 24.4674 10.6466 24.6497C10.9199 24.9231 11.2731 25.0598 11.7059 25.0598C12.1844 25.0598 12.5375 24.9458 12.7653 24.718C13.0387 24.4446 13.1754 23.989 13.1754 23.3511V14.0559Z" fill="black"/>
</svg>
