<svg width="47" height="47" viewBox="0 0 47 47" fill="none" xmlns="http://www.w3.org/2000/svg">
<path d="M19.3138 32.7591H28.2005M23.7571 6.13477V8.0365M35.8597 11.1478L34.515 12.4926M40.8729 23.2503H38.9712M8.54334 23.2503H6.6416M12.9993 12.4926L11.6546 11.1478M17.0335 29.9741C13.3201 26.2607 13.3201 20.2402 17.0335 16.5268C20.7469 12.8134 26.7674 12.8134 30.4808 16.5268C34.1942 20.2402 34.1942 26.2607 30.4808 29.9741L29.4404 31.0146C28.2368 32.2181 27.5606 33.8505 27.5606 35.5527V36.5626C27.5606 38.6632 25.8577 40.3661 23.7571 40.3661C21.6565 40.3661 19.9537 38.6632 19.9537 36.5626V35.5527C19.9537 33.8505 19.2775 32.2181 18.0739 31.0146L17.0335 29.9741Z" stroke="#14141A" stroke-width="2.48955" stroke-linecap="round" stroke-linejoin="round"/>
</svg>
