<svg width="42" height="40" viewBox="0 0 42 40" fill="none" xmlns="http://www.w3.org/2000/svg">
<path d="M38.2813 0.182201L3.19727 0.182582C2.35137 0.182592 1.54012 0.498562 0.941972 1.06099C0.343827 1.62341 0.00778801 2.38621 0.00777917 3.18159L0.00741258 36.1703C0.00740374 36.9656 0.343426 37.7284 0.941559 38.2908C1.53969 38.8533 2.35094 39.1692 3.19683 39.1692L38.2808 39.1688C39.1267 39.1688 39.938 38.8528 40.5361 38.2904C41.1343 37.728 41.4703 36.9652 41.4703 36.1698L41.4707 3.18114C41.4707 2.38576 41.1347 1.62296 40.5366 1.06055C39.9384 0.498145 39.1272 0.182191 38.2813 0.182201ZM38.2809 36.1698L3.19687 36.1702L3.19723 3.18155L38.2812 3.18117L38.2809 36.1698ZM14.3602 16.6768L14.36 28.6727C14.36 29.0704 14.192 29.4518 13.8929 29.733C13.5939 30.0142 13.1882 30.1722 12.7653 30.1722C12.3424 30.1722 11.9367 30.0142 11.6377 29.733C11.3386 29.4518 11.1706 29.0704 11.1706 28.6727L11.1707 16.6768C11.1707 16.2791 11.3387 15.8977 11.6378 15.6165C11.9369 15.3353 12.3425 15.1773 12.7655 15.1773C13.1884 15.1773 13.594 15.3353 13.8931 15.6165C14.1922 15.8977 14.3602 16.2791 14.3602 16.6768ZM31.9021 21.9248L31.9021 28.6725C31.902 29.0702 31.734 29.4516 31.435 29.7328C31.1359 30.014 30.7303 30.172 30.3073 30.172C29.8844 30.172 29.4787 30.014 29.1797 29.7328C28.8806 29.4516 28.7126 29.0702 28.7126 28.6725L28.7127 21.9248C28.7127 20.9306 28.2927 19.9771 27.545 19.2741C26.7973 18.5711 25.7833 18.1762 24.7259 18.1762C23.6685 18.1762 22.6545 18.5711 21.9068 19.2742C21.1591 19.9772 20.739 20.9307 20.739 21.9249L20.739 28.6726C20.739 29.0703 20.5709 29.4517 20.2719 29.7329C19.9728 30.0141 19.5672 30.1721 19.1442 30.1721C18.7213 30.1721 18.3156 30.0141 18.0166 29.7329C17.7175 29.4517 17.5495 29.0703 17.5495 28.6726L17.5496 16.6768C17.5516 16.3095 17.6969 15.9556 17.9579 15.6824C18.2189 15.4091 18.5776 15.2354 18.9657 15.1943C19.3539 15.1531 19.7446 15.2474 20.0638 15.4591C20.3829 15.6709 20.6083 15.9854 20.6972 16.3431C21.776 15.655 23.0338 15.2561 24.3355 15.1894C25.6372 15.1227 26.9336 15.3907 28.0855 15.9645C29.2375 16.5383 30.2014 17.3964 30.8738 18.4465C31.5462 19.4966 31.9017 20.6991 31.9021 21.9248ZM15.1576 11.4286C15.1576 11.8734 15.0173 12.3083 14.7544 12.6782C14.4916 13.0481 14.118 13.3364 13.6809 13.5066C13.2438 13.6769 12.7628 13.7214 12.2988 13.6346C11.8348 13.5479 11.4086 13.3336 11.074 13.0191C10.7395 12.7045 10.5117 12.3038 10.4194 11.8674C10.3271 11.4311 10.3745 10.9789 10.5555 10.5679C10.7366 10.1569 11.0432 9.80562 11.4366 9.55847C11.8299 9.31131 12.2924 9.1794 12.7655 9.17939C13.4 9.17938 14.0084 9.41635 14.457 9.83815C14.9056 10.26 15.1576 10.8321 15.1576 11.4286Z" fill="#14141A"/>
</svg>
