<svg width="13" height="12" viewBox="0 0 13 12" fill="none" xmlns="http://www.w3.org/2000/svg">
<path d="M11.118 -0.000120997L0.926504 -1.00831e-05C0.68078 -7.40886e-06 0.445119 0.0917788 0.271364 0.255157C0.0976088 0.418535 -7.11343e-06 0.640121 -9.68099e-06 0.87117L-0.000116172 10.454C-0.000118739 10.6851 0.0974923 10.9067 0.271244 11.07C0.444995 11.2334 0.680654 11.3252 0.926378 11.3252L11.1179 11.3251C11.3636 11.3251 11.5993 11.2333 11.7731 11.0699C11.9468 10.9065 12.0444 10.685 12.0444 10.4539L12.0445 0.871039C12.0445 0.63999 11.9469 0.418406 11.7732 0.255032C11.5994 0.0916574 11.3638 -0.000123671 11.118 -0.000120997ZM11.1179 10.4539L0.926388 10.454L0.926494 0.87116L11.118 0.871049L11.1179 10.4539ZM4.16921 4.79139L4.16918 8.27607C4.16917 8.39159 4.12037 8.50239 4.03349 8.58408C3.94661 8.66577 3.82878 8.71166 3.70592 8.71166C3.58306 8.71166 3.46523 8.66577 3.37835 8.58408C3.29148 8.5024 3.24267 8.3916 3.24267 8.27608L3.24271 4.7914C3.24271 4.67588 3.29152 4.56508 3.3784 4.48339C3.46527 4.4017 3.5831 4.35581 3.70597 4.35581C3.82883 4.35581 3.94666 4.4017 4.03353 4.48339C4.12041 4.56507 4.16922 4.67587 4.16921 4.79139ZM9.26497 6.31588L9.26495 8.27601C9.26495 8.39154 9.21614 8.50233 9.12926 8.58402C9.04238 8.66571 8.92455 8.7116 8.80169 8.7116C8.67883 8.71161 8.561 8.66572 8.47412 8.58403C8.38725 8.50234 8.33844 8.39155 8.33844 8.27602L8.33846 6.31589C8.33847 6.02708 8.21645 5.7501 7.99926 5.54588C7.78208 5.34166 7.4875 5.22694 7.18035 5.22694C6.87319 5.22695 6.57862 5.34168 6.36142 5.5459C6.14423 5.75012 6.02221 6.02711 6.0222 6.31592L6.02218 8.27605C6.02218 8.39157 5.97337 8.50237 5.8865 8.58406C5.79962 8.66575 5.68179 8.71164 5.55893 8.71164C5.43606 8.71164 5.31823 8.66575 5.23136 8.58406C5.14448 8.50238 5.09568 8.39158 5.09568 8.27606L5.09572 4.79138C5.09629 4.68469 5.1385 4.5819 5.21432 4.50252C5.29015 4.42314 5.39432 4.37269 5.50708 4.36074C5.61983 4.34878 5.73333 4.37616 5.82605 4.43767C5.91876 4.49919 5.98424 4.59056 6.01006 4.69445C6.32345 4.49456 6.68882 4.3787 7.06694 4.35932C7.44507 4.33995 7.82166 4.41778 8.15629 4.58448C8.49091 4.75117 8.77092 5.00042 8.96625 5.30546C9.16158 5.6105 9.26485 5.95981 9.26497 6.31588ZM4.40086 3.26684C4.40086 3.39607 4.3601 3.52239 4.28375 3.62984C4.20739 3.73729 4.09886 3.82103 3.97189 3.87049C3.84492 3.91994 3.7052 3.93288 3.57041 3.90767C3.43561 3.88246 3.3118 3.82024 3.21462 3.72886C3.11744 3.63748 3.05126 3.52106 3.02445 3.39432C2.99764 3.26758 3.0114 3.13621 3.064 3.01682C3.11659 2.89743 3.20566 2.79538 3.31993 2.72359C3.4342 2.65179 3.56855 2.61347 3.70599 2.61347C3.89028 2.61347 4.06702 2.6823 4.19734 2.80483C4.32765 2.92736 4.40086 3.09355 4.40086 3.26684Z" fill="white"/>
</svg>
