<svg width="405" height="405" viewBox="0 0 405 405" fill="none" xmlns="http://www.w3.org/2000/svg">
<g clip-path="url(#clip0_338_30)">
<rect width="405" height="405" rx="202.5" fill="white"/>
<g clip-path="url(#clip1_338_30)">
<path d="M-88 -3H494.857V405H-88V-3Z" fill="#009440"/>
<path d="M-38.457 201L203.429 355.457L445.314 201L203.429 46.5427L-38.457 201Z" fill="#FFCB00"/>
<path d="M203.429 303C259.762 303 305.429 257.333 305.429 201C305.429 144.667 259.762 99 203.429 99C147.096 99 101.429 144.667 101.429 201C101.429 257.333 147.096 303 203.429 303Z" fill="#302681"/>
<mask id="mask0_338_30" style="mask-type:luminance" maskUnits="userSpaceOnUse" x="101" y="99" width="205" height="204">
<path d="M203.429 303C259.762 303 305.429 257.333 305.429 201C305.429 144.667 259.762 99 203.429 99C147.096 99 101.429 144.667 101.429 201C101.429 257.333 147.096 303 203.429 303Z" fill="white"/>
</mask>
<g mask="url(#mask0_338_30)">
<path d="M-102.571 405C-102.571 339.302 -76.4729 276.295 -30.0174 229.839C16.438 183.384 79.4451 157.286 145.143 157.286C210.841 157.286 273.848 183.384 320.303 229.839C366.759 276.295 392.857 339.302 392.857 405H378.286C378.286 343.167 353.723 283.866 310 240.143C266.277 196.42 206.976 171.857 145.143 171.857C83.3097 171.857 24.0089 196.42 -19.7139 240.143C-63.4367 283.866 -87.9999 343.167 -87.9999 405H-102.571Z" fill="white"/>
</g>
<path fill-rule="evenodd" clip-rule="evenodd" d="M116.434 171.184C117.585 171.043 118.626 170.4 119.329 169.396C120.032 168.392 120.338 167.109 120.181 165.831C120.024 164.552 119.417 163.382 118.492 162.578C117.567 161.774 116.401 161.401 115.25 161.542C114.1 161.684 113.058 162.327 112.356 163.331C111.653 164.335 111.347 165.618 111.504 166.896C111.661 168.175 112.268 169.345 113.193 170.149C114.118 170.953 115.284 171.326 116.434 171.184M116.214 169.394C116.89 169.311 117.499 168.912 117.907 168.285C118.315 167.658 118.489 166.854 118.391 166.051C118.292 165.247 117.929 164.509 117.381 163.999C116.834 163.49 116.146 163.25 115.47 163.333C114.795 163.416 114.186 163.815 113.777 164.442C113.369 165.069 113.196 165.873 113.294 166.676C113.393 167.48 113.756 168.218 114.304 168.727C114.851 169.237 115.539 169.477 116.214 169.394" fill="#009440"/>
<path fill-rule="evenodd" clip-rule="evenodd" d="M124.35 170.307L126.149 170.181L125.898 166.582L129.774 166.311C130.582 166.255 131.334 165.88 131.865 165.268C132.396 164.657 132.663 163.86 132.606 163.052C132.55 162.245 132.175 161.492 131.564 160.961C130.953 160.43 130.156 160.163 129.348 160.22L123.81 160.607L124.35 170.307ZM125.772 164.782L129.509 164.521C129.84 164.498 130.148 164.345 130.365 164.095C130.582 163.845 130.691 163.518 130.668 163.188C130.645 162.858 130.492 162.55 130.242 162.332C129.992 162.115 129.666 162.006 129.335 162.029L125.597 162.291L125.772 164.782Z" fill="#009440"/>
<path d="M132.586 169.731C132.49 168.347 132.277 165.301 130.2 165.447L127.57 165.631C130.615 165.418 130.828 168.463 130.925 169.848" fill="#009440"/>
<path fill-rule="evenodd" clip-rule="evenodd" d="M136.661 169.541L141.24 169.461C141.786 169.451 142.326 169.334 142.827 169.116C143.328 168.898 143.782 168.583 144.162 168.19C144.542 167.797 144.84 167.333 145.041 166.824C145.241 166.315 145.339 165.772 145.33 165.225L145.305 163.838C145.296 163.291 145.179 162.752 144.961 162.25C144.743 161.749 144.428 161.296 144.035 160.916C143.642 160.536 143.177 160.237 142.669 160.037C142.16 159.837 141.617 159.738 141.07 159.748L136.491 159.828L136.661 169.541ZM138.433 167.705L141.069 167.659C141.769 167.647 142.434 167.358 142.92 166.855C143.406 166.352 143.672 165.676 143.66 164.977L143.645 164.145C143.633 163.445 143.344 162.78 142.84 162.294C142.337 161.808 141.662 161.542 140.963 161.554L138.327 161.6L138.433 167.705Z" fill="#009440"/>
<path d="M148.995 169.42L157.733 169.725L157.796 167.922L150.723 167.675L150.81 165.178L156.358 165.372L156.416 163.708L150.868 163.514L150.936 161.572L157.593 161.805L157.656 160.002L149.334 159.711L148.995 169.42Z" fill="#009440"/>
<path d="M161.319 169.944L162.978 170.089L163.559 163.453L164.914 170.259L166.435 170.392L168.951 163.925L168.37 170.561L170.029 170.706L170.876 161.029L168.456 160.817L165.94 167.284L164.585 160.479L162.166 160.267L161.319 169.944Z" fill="#009440"/>
<path d="M181.446 172.214L188.627 173.448L188.909 171.807L183.369 170.855L183.745 168.667L188.259 169.442L188.541 167.801L184.027 167.025L184.286 165.521L189.654 166.443L189.936 164.802L182.927 163.598L181.446 172.214Z" fill="#009440"/>
<path fill-rule="evenodd" clip-rule="evenodd" d="M199.893 175.838L201.64 176.289L202.543 172.796L206.305 173.769C207.089 173.972 207.921 173.855 208.619 173.444C209.317 173.033 209.822 172.362 210.025 171.578C210.228 170.794 210.111 169.961 209.7 169.264C209.289 168.566 208.618 168.06 207.834 167.857L202.46 166.468L199.893 175.838ZM202.995 171.05L206.622 171.988C206.943 172.071 207.283 172.023 207.569 171.855C207.854 171.687 208.061 171.412 208.144 171.091C208.227 170.771 208.179 170.43 208.011 170.145C207.843 169.859 207.568 169.652 207.248 169.569L203.62 168.631L202.995 171.05Z" fill="#009440"/>
<path fill-rule="evenodd" clip-rule="evenodd" d="M211.812 179.017L213.532 179.56L214.617 176.118L218.323 177.287C219.095 177.53 219.933 177.457 220.651 177.083C221.369 176.709 221.91 176.065 222.153 175.293C222.397 174.521 222.323 173.684 221.949 172.965C221.576 172.247 220.932 171.707 220.159 171.463L214.865 169.794L211.812 179.017ZM215.16 174.398L218.733 175.525C219.049 175.624 219.392 175.594 219.686 175.441C219.979 175.288 220.201 175.025 220.3 174.709C220.4 174.393 220.37 174.051 220.217 173.757C220.064 173.463 219.8 173.242 219.485 173.142L215.911 172.016L215.16 174.398Z" fill="#009440"/>
<path d="M219.687 181.5C220.104 180.177 221.022 177.265 219.037 176.639L216.522 175.846C219.434 176.764 218.516 179.676 218.098 180.999" fill="#009440"/>
<path fill-rule="evenodd" clip-rule="evenodd" d="M227.641 184.347C228.727 184.753 229.948 184.663 231.035 184.097C232.122 183.531 232.986 182.535 233.437 181.328C233.888 180.122 233.889 178.803 233.44 177.663C232.992 176.522 232.129 175.654 231.043 175.248C229.957 174.842 228.737 174.932 227.65 175.498C226.563 176.064 225.699 177.06 225.248 178.266C224.797 179.473 224.795 180.791 225.244 181.932C225.693 183.072 226.555 183.941 227.641 184.347M228.273 182.657C228.911 182.895 229.635 182.823 230.287 182.455C230.938 182.087 231.464 181.455 231.747 180.696C232.031 179.938 232.049 179.116 231.799 178.411C231.548 177.706 231.049 177.176 230.412 176.938C229.774 176.699 229.049 176.772 228.398 177.139C227.746 177.507 227.221 178.14 226.938 178.898C226.654 179.657 226.635 180.479 226.886 181.184C227.136 181.889 227.635 182.419 228.273 182.657" fill="#009440"/>
<mask id="mask1_338_30" style="mask-type:luminance" maskUnits="userSpaceOnUse" x="235" y="178" width="12" height="13">
<path d="M235.068 187.224L238.941 178.315L246.959 181.801L243.086 190.71L235.068 187.224ZM241.678 182.985L241.013 184.513L245.022 186.256L245.686 184.728L241.678 182.985Z" fill="white"/>
</mask>
<g mask="url(#mask1_338_30)">
<path fill-rule="evenodd" clip-rule="evenodd" d="M239.077 188.967C240.14 189.429 241.364 189.403 242.479 188.895C243.594 188.386 244.509 187.437 245.022 186.256C245.536 185.074 245.606 183.758 245.218 182.595C244.829 181.433 244.013 180.521 242.95 180.058C241.887 179.596 240.663 179.622 239.548 180.13C238.433 180.639 237.518 181.588 237.005 182.769C236.491 183.951 236.421 185.267 236.809 186.43C237.198 187.592 238.013 188.505 239.077 188.967M239.796 187.312C240.421 187.584 241.148 187.549 241.817 187.216C242.487 186.883 243.045 186.279 243.368 185.536C243.691 184.794 243.752 183.974 243.539 183.257C243.326 182.54 242.855 181.984 242.231 181.713C241.606 181.441 240.879 181.476 240.21 181.809C239.54 182.142 238.982 182.746 238.659 183.489C238.336 184.231 238.275 185.051 238.488 185.768C238.701 186.486 239.172 187.041 239.796 187.312" fill="#009440"/>
</g>
<path d="M241.65 184.789L245.022 186.256L244.469 187.528L241.097 186.062L241.65 184.789Z" fill="#009440"/>
<path d="M243.75 185.702L245.022 186.256L243.085 190.71L241.813 190.156L243.75 185.702Z" fill="#009440"/>
<path fill-rule="evenodd" clip-rule="evenodd" d="M246.342 192.229L247.957 193.034L249.567 189.804L253.044 191.538C253.769 191.9 254.607 191.958 255.375 191.701C256.143 191.444 256.777 190.893 257.139 190.168C257.5 189.444 257.559 188.605 257.302 187.837C257.045 187.069 256.493 186.435 255.769 186.074L250.801 183.597L246.342 192.229ZM250.372 188.19L253.725 189.862C254.021 190.01 254.364 190.034 254.679 189.928C254.993 189.823 255.252 189.598 255.4 189.301C255.548 189.005 255.572 188.662 255.467 188.348C255.362 188.034 255.136 187.774 254.84 187.626L251.486 185.954L250.372 188.19Z" fill="#009440"/>
<path d="M253.732 195.913C254.351 194.671 255.713 191.939 253.85 191.01L251.491 189.833C254.223 191.196 252.861 193.928 252.242 195.17" fill="#009440"/>
<path d="M257.34 197.816L264.949 202.122L265.837 200.551L259.677 197.066L260.907 194.892L265.739 197.626L266.559 196.176L261.727 193.443L262.684 191.752L268.482 195.032L269.37 193.462L262.123 189.362L257.34 197.816Z" fill="#009440"/>
<path d="M271.512 202.572C270.99 203.391 271.519 204.304 272.69 205.049C273.86 205.795 274.657 205.768 274.994 205.242C276.057 203.574 269.914 201.142 271.807 198.234C273.44 195.737 276.233 197.681 277.286 198.352C278.339 199.023 280.031 200.758 278.715 202.759L276.93 201.622C277.49 200.744 276.875 199.9 275.939 199.304C275.032 198.726 274.295 198.462 273.754 199.31C272.849 200.667 278.869 203.227 277.024 206.124C275.663 208.26 273.295 207.328 271.715 206.321C270.369 205.463 268.358 203.442 269.669 201.397L271.512 202.572Z" fill="#009440"/>
<path d="M281.933 209.463C281.369 210.254 281.85 211.193 282.979 211.999C284.109 212.805 284.907 212.82 285.27 212.312C286.419 210.702 280.412 207.951 282.455 205.147C284.215 202.738 286.903 204.826 287.92 205.551C288.936 206.276 290.535 208.098 289.116 210.027L287.393 208.798C287.998 207.95 287.429 207.076 286.525 206.431C285.649 205.806 284.927 205.504 284.343 206.324C283.368 207.631 289.246 210.503 287.251 213.299C285.781 215.361 283.465 214.306 281.94 213.218C280.64 212.291 278.738 210.167 280.154 208.194L281.933 209.463Z" fill="#009440"/>
<path fill-rule="evenodd" clip-rule="evenodd" d="M291.789 220.64C292.697 221.362 293.885 221.653 295.094 221.451C296.303 221.248 297.432 220.568 298.234 219.56C299.036 218.552 299.445 217.298 299.37 216.075C299.296 214.852 298.744 213.759 297.837 213.037C296.929 212.316 295.741 212.024 294.532 212.227C293.323 212.429 292.194 213.109 291.392 214.117C290.59 215.126 290.181 216.379 290.256 217.602C290.33 218.826 290.882 219.918 291.789 220.64M292.912 219.228C293.445 219.652 294.157 219.807 294.89 219.658C295.623 219.51 296.318 219.071 296.822 218.437C297.326 217.803 297.598 217.027 297.578 216.279C297.557 215.531 297.246 214.873 296.714 214.449C296.181 214.025 295.469 213.871 294.736 214.019C294.003 214.167 293.308 214.607 292.804 215.24C292.3 215.874 292.028 216.65 292.048 217.398C292.069 218.146 292.38 218.804 292.912 219.228" fill="#009440"/>
<path d="M120.164 178.31L118.813 182.468L120.891 183.143" fill="white"/>
<path d="M120.164 178.31L121.514 182.468L119.436 183.143" fill="white"/>
<path d="M124.32 181.331H119.949V183.517" fill="white"/>
<path d="M124.32 181.331L120.784 183.9L119.499 182.132" fill="white"/>
<path d="M116.005 181.331L119.542 183.9L120.827 182.132" fill="white"/>
<path d="M116.005 181.331H120.377V183.517" fill="white"/>
<path d="M122.733 186.218L121.382 182.061L119.303 182.736" fill="white"/>
<path d="M122.733 186.218L119.196 183.649L120.481 181.881" fill="white"/>
<path d="M117.594 186.218L121.13 183.649L119.846 181.881" fill="white"/>
<path d="M117.594 186.218L118.945 182.061L121.023 182.736" fill="white"/>
<path d="M129.184 221.192L127.833 225.349L129.911 226.025" fill="white"/>
<path d="M129.184 221.192L130.534 225.349L128.456 226.025" fill="white"/>
<path d="M133.341 224.213H128.97V226.398" fill="white"/>
<path d="M133.341 224.213L129.805 226.782L128.52 225.014" fill="white"/>
<path d="M125.026 224.212L128.563 226.782L129.848 225.013" fill="white"/>
<path d="M125.026 224.212H129.398V226.398" fill="white"/>
<path d="M131.753 229.1L130.403 224.943L128.324 225.618" fill="white"/>
<path d="M131.753 229.1L128.217 226.531L129.502 224.762" fill="white"/>
<path d="M126.614 229.1L130.151 226.53L128.866 224.762" fill="white"/>
<path d="M126.614 229.1L127.965 224.942L130.044 225.618" fill="white"/>
<path d="M116.694 231.08L115.569 234.544L117.301 235.107" fill="white"/>
<path d="M116.694 231.08L117.82 234.544L116.088 235.107" fill="white"/>
<path d="M120.158 233.597H116.515V235.418" fill="white"/>
<path d="M120.158 233.597L117.211 235.738L116.14 234.264" fill="white"/>
<path d="M113.23 233.597L116.177 235.738L117.248 234.265" fill="white"/>
<path d="M113.23 233.597H116.873V235.418" fill="white"/>
<path d="M118.835 237.669L117.71 234.205L115.977 234.768" fill="white"/>
<path d="M118.835 237.669L115.888 235.528L116.959 234.055" fill="white"/>
<path d="M114.553 237.67L117.5 235.528L116.429 234.055" fill="white"/>
<path d="M114.553 237.67L115.678 234.205L117.411 234.768" fill="white"/>
<path d="M139.175 217.237L138.532 219.217L139.522 219.538" fill="white"/>
<path d="M139.175 217.237L139.819 219.217L138.829 219.538" fill="white"/>
<path d="M141.155 218.675H139.074V219.716" fill="white"/>
<path d="M141.155 218.675L139.471 219.899L138.859 219.057" fill="white"/>
<path d="M137.196 218.675L138.88 219.899L139.492 219.057" fill="white"/>
<path d="M137.196 218.675H139.278V219.716" fill="white"/>
<path d="M140.399 221.002L139.756 219.023L138.766 219.344" fill="white"/>
<path d="M140.399 221.002L138.715 219.779L139.327 218.937" fill="white"/>
<path d="M137.952 221.002L139.636 219.779L139.024 218.937" fill="white"/>
<path d="M137.952 221.002L138.595 219.022L139.585 219.344" fill="white"/>
<path d="M150.417 232.051L149.291 235.516L151.024 236.079" fill="white"/>
<path d="M150.417 232.051L151.543 235.516L149.81 236.079" fill="white"/>
<path d="M153.88 234.568H150.238V236.39" fill="white"/>
<path d="M153.88 234.568L150.933 236.709L149.863 235.236" fill="white"/>
<path d="M146.952 234.568L149.899 236.709L150.97 235.236" fill="white"/>
<path d="M146.952 234.568H150.595V236.39" fill="white"/>
<path d="M152.558 238.641L151.432 235.176L149.7 235.739" fill="white"/>
<path d="M152.558 238.641L149.611 236.5L150.682 235.026" fill="white"/>
<path d="M148.276 238.641L151.224 236.499L150.153 235.026" fill="white"/>
<path d="M148.276 238.641L149.402 235.176L151.134 235.739" fill="white"/>
<path d="M147.363 242.91L146.463 245.682L147.849 246.132" fill="white"/>
<path d="M147.363 242.91L148.264 245.682L146.878 246.132" fill="white"/>
<path d="M150.135 244.924H147.221V246.381" fill="white"/>
<path d="M150.135 244.924L147.778 246.637L146.921 245.458" fill="white"/>
<path d="M144.592 244.924L146.95 246.637L147.806 245.458" fill="white"/>
<path d="M144.592 244.924H147.506V246.381" fill="white"/>
<path d="M149.076 248.182L148.176 245.41L146.79 245.861" fill="white"/>
<path d="M149.076 248.182L146.718 246.469L147.575 245.29" fill="white"/>
<path d="M145.65 248.182L148.008 246.469L147.152 245.29" fill="white"/>
<path d="M145.65 248.182L146.551 245.41L147.937 245.861" fill="white"/>
<path d="M235.069 164.988L233.718 169.145L235.797 169.82" fill="white"/>
<path d="M235.069 164.988L236.42 169.145L234.341 169.82" fill="white"/>
<path d="M239.227 168.008H234.855V170.194" fill="white"/>
<path d="M239.227 168.008L235.69 170.578L234.405 168.809" fill="white"/>
<path d="M230.912 168.008L234.448 170.578L235.733 168.809" fill="white"/>
<path d="M230.912 168.008H235.283V170.194" fill="white"/>
<path d="M237.639 172.896L236.288 168.739L234.209 169.414" fill="white"/>
<path d="M237.639 172.896L234.102 170.327L235.387 168.558" fill="white"/>
<path d="M232.5 172.896L236.037 170.326L234.752 168.558" fill="white"/>
<path d="M232.5 172.896L233.851 168.738L235.93 169.413" fill="white"/>
<path d="M274.898 232.433L273.547 236.59L275.626 237.266" fill="white"/>
<path d="M274.898 232.433L276.249 236.59L274.17 237.266" fill="white"/>
<path d="M279.056 235.453H274.684V237.639" fill="white"/>
<path d="M279.056 235.453L275.519 238.022L274.234 236.254" fill="white"/>
<path d="M270.741 235.453L274.277 238.023L275.562 236.254" fill="white"/>
<path d="M270.741 235.453H275.112V237.639" fill="white"/>
<path d="M277.468 240.341L276.117 236.183L274.038 236.859" fill="white"/>
<path d="M277.468 240.341L273.931 237.771L275.216 236.003" fill="white"/>
<path d="M272.329 240.341L275.865 237.771L274.58 236.003" fill="white"/>
<path d="M272.329 240.341L273.679 236.183L275.758 236.859" fill="white"/>
<path d="M289.053 234.861L288.153 237.633L289.538 238.083" fill="white"/>
<path d="M289.053 234.861L289.954 237.633L288.568 238.083" fill="white"/>
<path d="M291.825 236.875H288.911V238.332" fill="white"/>
<path d="M291.825 236.875L289.467 238.588L288.611 237.409" fill="white"/>
<path d="M286.282 236.875L288.639 238.588L289.496 237.409" fill="white"/>
<path d="M286.282 236.875H289.196V238.332" fill="white"/>
<path d="M290.767 240.133L289.866 237.361L288.48 237.812" fill="white"/>
<path d="M290.767 240.133L288.409 238.42L289.265 237.241" fill="white"/>
<path d="M287.341 240.133L289.699 238.42L288.842 237.241" fill="white"/>
<path d="M287.341 240.133L288.241 237.361L289.627 237.812" fill="white"/>
<path d="M279.062 242.182L277.936 245.646L279.668 246.209" fill="white"/>
<path d="M279.062 242.182L280.187 245.646L278.455 246.209" fill="white"/>
<path d="M282.525 244.699H278.883V246.52" fill="white"/>
<path d="M282.525 244.699L279.578 246.84L278.508 245.367" fill="white"/>
<path d="M275.597 244.699L278.544 246.84L279.615 245.367" fill="white"/>
<path d="M275.597 244.699H279.24V246.52" fill="white"/>
<path d="M281.203 248.771L280.077 245.307L278.345 245.87" fill="white"/>
<path d="M281.203 248.771L278.256 246.63L279.327 245.157" fill="white"/>
<path d="M276.92 248.771L279.867 246.63L278.796 245.156" fill="white"/>
<path d="M276.92 248.771L278.046 245.307L279.778 245.87" fill="white"/>
<path d="M254.499 263.553L253.373 267.018L255.106 267.58" fill="white"/>
<path d="M254.499 263.553L255.625 267.018L253.892 267.58" fill="white"/>
<path d="M257.962 266.07H254.32V267.892" fill="white"/>
<path d="M257.962 266.07L255.015 268.212L253.945 266.738" fill="white"/>
<path d="M251.034 266.071L253.981 268.212L255.051 266.738" fill="white"/>
<path d="M251.034 266.071H254.677V267.892" fill="white"/>
<path d="M256.64 270.143L255.514 266.679L253.782 267.241" fill="white"/>
<path d="M256.64 270.143L253.693 268.002L254.763 266.528" fill="white"/>
<path d="M252.357 270.143L255.305 268.002L254.234 266.528" fill="white"/>
<path d="M252.357 270.143L253.483 266.678L255.215 267.241" fill="white"/>
<path d="M254.359 274.551L253.459 277.323L254.845 277.773" fill="white"/>
<path d="M254.359 274.551L255.26 277.323L253.874 277.773" fill="white"/>
<path d="M257.132 276.564H254.218V278.022" fill="white"/>
<path d="M257.132 276.564L254.774 278.277L253.918 277.099" fill="white"/>
<path d="M251.588 276.565L253.946 278.278L254.802 277.099" fill="white"/>
<path d="M251.588 276.565H254.502V278.022" fill="white"/>
<path d="M256.073 279.823L255.172 277.051L253.786 277.501" fill="white"/>
<path d="M256.073 279.823L253.715 278.11L254.572 276.931" fill="white"/>
<path d="M252.646 279.823L255.004 278.11L254.148 276.931" fill="white"/>
<path d="M252.646 279.823L253.547 277.051L254.933 277.502" fill="white"/>
<path d="M264.628 256.233L263.728 259.005L265.114 259.455" fill="white"/>
<path d="M264.628 256.233L265.529 259.005L264.143 259.455" fill="white"/>
<path d="M267.4 258.246H264.486V259.703" fill="white"/>
<path d="M267.4 258.246L265.043 259.959L264.186 258.78" fill="white"/>
<path d="M261.857 258.247L264.215 259.96L265.072 258.781" fill="white"/>
<path d="M261.857 258.247H264.772V259.704" fill="white"/>
<path d="M266.342 261.504L265.441 258.733L264.055 259.183" fill="white"/>
<path d="M266.342 261.504L263.984 259.791L264.841 258.613" fill="white"/>
<path d="M262.916 261.505L265.273 259.792L264.417 258.613" fill="white"/>
<path d="M262.916 261.505L263.816 258.733L265.202 259.184" fill="white"/>
<path d="M272.817 250.37L271.691 253.834L273.423 254.397" fill="white"/>
<path d="M272.817 250.37L273.943 253.834L272.21 254.397" fill="white"/>
<path d="M276.281 252.886H272.638V254.708" fill="white"/>
<path d="M276.281 252.886L273.334 255.028L272.263 253.554" fill="white"/>
<path d="M269.352 252.886L272.299 255.028L273.369 253.554" fill="white"/>
<path d="M269.352 252.886H272.994V254.708" fill="white"/>
<path d="M274.958 256.959L273.832 253.495L272.1 254.058" fill="white"/>
<path d="M274.958 256.959L272.01 254.818L273.081 253.345" fill="white"/>
<path d="M270.675 256.959L273.622 254.818L272.552 253.345" fill="white"/>
<path d="M270.675 256.959L271.801 253.495L273.533 254.058" fill="white"/>
<path d="M254.081 254.29L253.18 257.061L254.566 257.512" fill="white"/>
<path d="M254.081 254.29L254.981 257.061L253.595 257.512" fill="white"/>
<path d="M256.853 256.303H253.939V257.76" fill="white"/>
<path d="M256.853 256.303L254.495 258.016L253.639 256.837" fill="white"/>
<path d="M251.309 256.303L253.667 258.016L254.523 256.837" fill="white"/>
<path d="M251.309 256.303H254.223V257.76" fill="white"/>
<path d="M255.794 259.562L254.894 256.79L253.508 257.24" fill="white"/>
<path d="M255.794 259.562L253.437 257.849L254.293 256.67" fill="white"/>
<path d="M252.368 259.562L254.726 257.849L253.869 256.67" fill="white"/>
<path d="M252.368 259.562L253.269 256.79L254.655 257.24" fill="white"/>
<path d="M164.572 201.52L163.446 204.985L165.178 205.548" fill="white"/>
<path d="M164.572 201.52L165.697 204.985L163.965 205.548" fill="white"/>
<path d="M168.037 204.038H164.394V205.859" fill="white"/>
<path d="M168.037 204.038L165.09 206.179L164.019 204.705" fill="white"/>
<path d="M161.107 204.037L164.054 206.178L165.125 204.705" fill="white"/>
<path d="M161.107 204.037H164.75V205.859" fill="white"/>
<path d="M166.713 208.11L165.587 204.646L163.855 205.208" fill="white"/>
<path d="M166.713 208.11L163.766 205.969L164.836 204.495" fill="white"/>
<path d="M162.431 208.11L165.378 205.969L164.307 204.495" fill="white"/>
<path d="M162.431 208.11L163.556 204.646L165.289 205.208" fill="white"/>
<path d="M231.184 192.951L230.283 195.723L231.669 196.173" fill="white"/>
<path d="M231.184 192.951L232.084 195.723L230.698 196.173" fill="white"/>
<path d="M233.956 194.964H231.041V196.421" fill="white"/>
<path d="M233.956 194.964L231.598 196.677L230.741 195.498" fill="white"/>
<path d="M228.412 194.965L230.77 196.678L231.626 195.499" fill="white"/>
<path d="M228.412 194.965H231.326V196.422" fill="white"/>
<path d="M232.896 198.223L231.996 195.451L230.61 195.902" fill="white"/>
<path d="M232.896 198.223L230.539 196.51L231.395 195.331" fill="white"/>
<path d="M229.471 198.223L231.828 196.51L230.972 195.331" fill="white"/>
<path d="M229.471 198.223L230.371 195.451L231.757 195.902" fill="white"/>
<path d="M203.429 242.425L202.078 246.582L204.157 247.257" fill="white"/>
<path d="M203.429 242.425L204.78 246.582L202.701 247.257" fill="white"/>
<path d="M207.587 245.445H203.215V247.631" fill="white"/>
<path d="M207.587 245.445L204.05 248.015L202.766 246.246" fill="white"/>
<path d="M199.272 245.445L202.809 248.014L204.093 246.246" fill="white"/>
<path d="M199.272 245.445H203.643V247.631" fill="white"/>
<path d="M205.999 250.333L204.648 246.176L202.569 246.851" fill="white"/>
<path d="M205.999 250.333L202.462 247.764L203.747 245.995" fill="white"/>
<path d="M200.86 250.333L204.396 247.763L203.112 245.995" fill="white"/>
<path d="M200.86 250.333L202.211 246.175L204.289 246.85" fill="white"/>
<path d="M215.225 222.892L214.099 226.356L215.832 226.919" fill="white"/>
<path d="M215.225 222.892L216.351 226.356L214.619 226.919" fill="white"/>
<path d="M218.689 225.409H215.046V227.23" fill="white"/>
<path d="M218.689 225.409L215.742 227.55L214.671 226.077" fill="white"/>
<path d="M211.76 225.409L214.707 227.55L215.778 226.076" fill="white"/>
<path d="M211.76 225.409H215.403V227.23" fill="white"/>
<path d="M217.366 229.482L216.241 226.017L214.508 226.58" fill="white"/>
<path d="M217.366 229.482L214.419 227.341L215.49 225.867" fill="white"/>
<path d="M213.083 229.482L216.03 227.341L214.959 225.867" fill="white"/>
<path d="M213.083 229.482L214.208 226.017L215.941 226.58" fill="white"/>
<path d="M203.429 213.733L202.303 217.197L204.036 217.76" fill="white"/>
<path d="M203.429 213.733L204.555 217.197L202.823 217.76" fill="white"/>
<path d="M206.893 216.25H203.25V218.071" fill="white"/>
<path d="M206.893 216.25L203.946 218.391L202.875 216.917" fill="white"/>
<path d="M199.964 216.25L202.911 218.391L203.982 216.917" fill="white"/>
<path d="M199.964 216.25H203.607V218.071" fill="white"/>
<path d="M205.57 220.322L204.444 216.858L202.712 217.421" fill="white"/>
<path d="M205.57 220.322L202.623 218.181L203.693 216.707" fill="white"/>
<path d="M201.288 220.323L204.235 218.181L203.164 216.708" fill="white"/>
<path d="M201.288 220.323L202.413 216.858L204.146 217.421" fill="white"/>
<path d="M193.159 223.621L192.259 226.392L193.644 226.843" fill="white"/>
<path d="M193.159 223.621L194.06 226.392L192.674 226.843" fill="white"/>
<path d="M195.932 225.634H193.017V227.091" fill="white"/>
<path d="M195.932 225.634L193.574 227.347L192.717 226.168" fill="white"/>
<path d="M190.388 225.634L192.745 227.347L193.602 226.168" fill="white"/>
<path d="M190.388 225.634H193.302V227.091" fill="white"/>
<path d="M194.872 228.892L193.972 226.12L192.586 226.571" fill="white"/>
<path d="M194.872 228.892L192.514 227.179L193.371 226" fill="white"/>
<path d="M191.446 228.893L193.804 227.18L192.948 226.001" fill="white"/>
<path d="M191.446 228.893L192.347 226.121L193.733 226.571" fill="white"/>
<path d="M198.293 231.531L197.65 233.511L198.64 233.832" fill="white"/>
<path d="M198.293 231.531L198.937 233.511L197.947 233.832" fill="white"/>
<path d="M200.273 232.969H198.192V234.01" fill="white"/>
<path d="M200.273 232.969L198.589 234.193L197.978 233.351" fill="white"/>
<path d="M196.315 232.969L197.999 234.193L198.611 233.351" fill="white"/>
<path d="M196.315 232.969H198.397V234.01" fill="white"/>
<path d="M199.518 235.296L198.874 233.317L197.884 233.638" fill="white"/>
<path d="M199.518 235.296L197.834 234.073L198.445 233.231" fill="white"/>
<path d="M197.07 235.296L198.754 234.073L198.143 233.231" fill="white"/>
<path d="M197.07 235.296L197.714 233.316L198.703 233.638" fill="white"/>
<path d="M233.96 266.051L232.835 269.516L234.567 270.079" fill="white"/>
<path d="M233.96 266.051L235.086 269.516L233.354 270.079" fill="white"/>
<path d="M237.425 268.568H233.782V270.39" fill="white"/>
<path d="M237.425 268.568L234.478 270.71L233.407 269.236" fill="white"/>
<path d="M230.495 268.568L233.442 270.709L234.512 269.236" fill="white"/>
<path d="M230.495 268.568H234.137V270.39" fill="white"/>
<path d="M236.101 272.641L234.975 269.177L233.243 269.739" fill="white"/>
<path d="M236.101 272.641L233.153 270.5L234.224 269.026" fill="white"/>
<path d="M231.819 272.641L234.766 270.5L233.695 269.027" fill="white"/>
<path d="M231.819 272.641L232.945 269.177L234.677 269.74" fill="white"/>
<path d="M242.702 257.759L241.801 260.531L243.187 260.981" fill="white"/>
<path d="M242.702 257.759L243.602 260.531L242.216 260.981" fill="white"/>
<path d="M245.474 259.773H242.559V261.23" fill="white"/>
<path d="M245.474 259.773L243.116 261.486L242.259 260.307" fill="white"/>
<path d="M239.931 259.773L242.288 261.486L243.145 260.307" fill="white"/>
<path d="M239.931 259.773H242.845V261.23" fill="white"/>
<path d="M244.416 263.031L243.515 260.259L242.129 260.71" fill="white"/>
<path d="M244.416 263.031L242.058 261.318L242.914 260.139" fill="white"/>
<path d="M240.989 263.031L243.347 261.318L242.49 260.139" fill="white"/>
<path d="M240.989 263.031L241.89 260.259L243.276 260.71" fill="white"/>
<path d="M225.91 255.261L225.01 258.033L226.395 258.483" fill="white"/>
<path d="M225.91 255.261L226.811 258.033L225.425 258.483" fill="white"/>
<path d="M228.683 257.275H225.768V258.732" fill="white"/>
<path d="M228.683 257.275L226.325 258.988L225.468 257.809" fill="white"/>
<path d="M223.139 257.275L225.497 258.988L226.353 257.809" fill="white"/>
<path d="M223.139 257.275H226.053V258.732" fill="white"/>
<path d="M227.623 260.533L226.722 257.761L225.337 258.212" fill="white"/>
<path d="M227.623 260.533L225.265 258.82L226.122 257.641" fill="white"/>
<path d="M224.198 260.533L226.555 258.82L225.699 257.642" fill="white"/>
<path d="M224.198 260.533L225.098 257.762L226.484 258.212" fill="white"/>
<path d="M162.49 250.751L161.139 254.908L163.218 255.584" fill="white"/>
<path d="M162.49 250.751L163.841 254.908L161.762 255.584" fill="white"/>
<path d="M166.647 253.772H162.276V255.957" fill="white"/>
<path d="M166.647 253.772L163.11 256.341L161.826 254.573" fill="white"/>
<path d="M158.333 253.771L161.869 256.341L163.154 254.573" fill="white"/>
<path d="M158.333 253.771H162.704V255.957" fill="white"/>
<path d="M165.06 258.659L163.709 254.501L161.63 255.177" fill="white"/>
<path d="M165.06 258.659L161.523 256.089L162.808 254.321" fill="white"/>
<path d="M159.92 258.659L163.457 256.09L162.172 254.322" fill="white"/>
<path d="M159.92 258.659L161.271 254.502L163.35 255.177" fill="white"/>
<path d="M203.429 279.339L202.978 280.725L203.671 280.95" fill="white"/>
<path d="M203.429 279.339L203.879 280.725L203.186 280.95" fill="white"/>
<path d="M204.814 280.346H203.357V281.075" fill="white"/>
<path d="M204.814 280.346L203.636 281.203L203.207 280.613" fill="white"/>
<path d="M202.042 280.346L203.221 281.202L203.65 280.613" fill="white"/>
<path d="M202.042 280.346H203.5V281.074" fill="white"/>
<path d="M204.285 281.975L203.835 280.589L203.142 280.814" fill="white"/>
<path d="M204.285 281.975L203.106 281.118L203.535 280.529" fill="white"/>
<path d="M202.572 281.975L203.751 281.118L203.322 280.529" fill="white"/>
<path d="M202.572 281.975L203.022 280.589L203.715 280.814" fill="white"/>
</g>
</g>
<defs>
<clipPath id="clip0_338_30">
<rect width="405" height="405" rx="202.5" fill="white"/>
</clipPath>
<clipPath id="clip1_338_30">
<rect width="582.857" height="408" fill="white" transform="translate(-88 -3)"/>
</clipPath>
</defs>
</svg>
