<svg width="26" height="26" viewBox="0 0 26 26" fill="none" xmlns="http://www.w3.org/2000/svg">
<g clip-path="url(#clip0_315_417)">
<mask id="mask0_315_417" style="mask-type:luminance" maskUnits="userSpaceOnUse" x="0" y="0" width="26" height="26">
<path d="M25.8061 0.0467229L0.277832 0.0467072L0.277848 25.8338L25.8061 25.8338L25.8061 0.0467229Z" fill="white"/>
</mask>
<g mask="url(#mask0_315_417)">
<mask id="mask1_315_417" style="mask-type:luminance" maskUnits="userSpaceOnUse" x="0" y="0" width="26" height="26">
<path d="M25.8066 0.0465703L0.27832 0.0465546L0.278336 25.8337L25.8066 25.8337L25.8066 0.0465703Z" fill="white"/>
</mask>
<g mask="url(#mask1_315_417)">
<path d="M12.5318 25.8338C10.3653 25.8338 8.28743 24.9643 6.75548 23.4169C5.22347 21.8693 4.36281 19.7704 4.3628 17.5819C4.3628 15.3934 5.22346 13.2944 6.75547 11.7469C8.28742 10.1994 10.3653 9.33 12.5318 9.33L12.5318 25.8338ZM12.5318 0.0466359L4.36279 0.0466309L4.3628 8.29851L12.5318 8.29852L12.5318 0.0466359ZM17.6375 8.29852C18.7208 8.29852 19.7597 7.86381 20.5257 7.09007C21.2917 6.3163 21.722 5.26685 21.722 4.17258C21.722 3.07831 21.2917 2.02887 20.5257 1.2551C19.7597 0.481336 18.7208 0.0466397 17.6375 0.046639C16.5542 0.0466384 15.5153 0.481334 14.7493 1.25509C13.9833 2.02886 13.5529 3.07831 13.5529 4.17258C13.5529 5.26685 13.9833 6.31629 14.7493 7.09007C15.5153 7.86381 16.5542 8.29852 17.6375 8.29852Z" fill="black"/>
</g>
</g>
</g>
<defs>
<clipPath id="clip0_315_417">
<rect width="25.5283" height="25.7871" fill="white" transform="matrix(1 6.15117e-07 6.14461e-07 1 0.276855 0.0469513)"/>
</clipPath>
</defs>
</svg>
