<svg width="26" height="27" viewBox="0 0 26 27" fill="none" xmlns="http://www.w3.org/2000/svg">
<g clip-path="url(#clip0_334_1151)">
<mask id="mask0_334_1151" style="mask-type:luminance" maskUnits="userSpaceOnUse" x="0" y="0" width="26" height="27">
<path d="M25.8413 0.85109L0.312988 0.851074L0.313004 26.6382L25.8413 26.6382L25.8413 0.85109Z" fill="white"/>
</mask>
<g mask="url(#mask0_334_1151)">
<mask id="mask1_334_1151" style="mask-type:luminance" maskUnits="userSpaceOnUse" x="0" y="0" width="26" height="27">
<path d="M25.8417 0.85109L0.313477 0.851074L0.313492 26.6382L25.8418 26.6382L25.8417 0.85109Z" fill="white"/>
</mask>
<g mask="url(#mask1_334_1151)">
<path d="M12.567 26.6382C10.4005 26.6382 8.32258 25.7688 6.79063 24.2213C5.25862 22.6737 4.39796 20.5749 4.39796 18.3863C4.39796 16.1978 5.25862 14.0989 6.79063 12.5513C8.32258 11.0039 10.4004 10.1344 12.567 10.1344L12.567 26.6382ZM12.567 0.851079L4.39795 0.851074L4.39795 9.10295L12.567 9.10296L12.567 0.851079ZM17.6726 9.10296C18.7559 9.10296 19.7948 8.66826 20.5608 7.89451C21.3269 7.12074 21.7571 6.07129 21.7571 4.97702C21.7571 3.88275 21.3269 2.83331 20.5608 2.05954C19.7948 1.28578 18.7559 0.851083 17.6726 0.851082C16.5893 0.851082 15.5505 1.28578 14.7844 2.05954C14.0184 2.8333 13.5881 3.88275 13.5881 4.97702C13.5881 6.07129 14.0184 7.12073 14.7844 7.89451C15.5505 8.66825 16.5893 9.10296 17.6726 9.10296Z" fill="white"/>
</g>
</g>
</g>
<defs>
<clipPath id="clip0_334_1151">
<rect width="25.5283" height="25.7871" fill="white" transform="matrix(1 6.15117e-07 6.14461e-07 1 0.312012 0.851562)"/>
</clipPath>
</defs>
</svg>
