<svg width="34" height="30" viewBox="0 0 34 30" fill="none" xmlns="http://www.w3.org/2000/svg">
<path d="M17.0337 17.8536C18.7289 17.8536 20.1031 16.4794 20.1031 14.7842C20.1031 13.0891 18.7289 11.7148 17.0337 11.7148C15.3386 11.7148 13.9644 13.0891 13.9644 14.7842C13.9644 16.4794 15.3386 17.8536 17.0337 17.8536Z" fill="white"/>
<path fill-rule="evenodd" clip-rule="evenodd" d="M17.2597 8.31413C22.493 8.34977 28.2027 8.73156 32.122 12.2266C32.2371 12.3294 32.3482 12.4363 32.4565 12.5467C33.3811 13.4892 33.8644 15.0108 33.1179 16.2631C31.5867 18.8342 28.1622 19.9556 24.8468 20.6458C19.8883 21.6781 14.7037 21.6863 9.74727 20.7774C6.89516 20.2538 3.97863 19.336 1.95179 17.416C1.16285 16.6689 0.48838 15.686 0.593937 14.592C0.765296 12.8222 2.46312 11.6865 3.89226 10.9174C7.86163 8.78159 12.6981 8.30384 17.2597 8.31413ZM16.8799 9.11814C11.9283 9.15173 6.56889 9.46772 2.74552 12.6338C2.61186 12.7441 2.483 12.8599 2.35894 12.9813C2.27874 13.0594 2.20129 13.141 2.12657 13.2246C1.45553 13.9786 1.22454 15.1897 1.85788 16.0952C2.49534 17.0062 3.46318 17.6635 4.4598 18.1995C8.18721 20.2037 12.5918 20.5595 16.8861 20.5745C21.2338 20.5903 25.7173 20.1941 29.5578 18.2084C31.0877 17.4167 32.8095 16.2542 32.7485 14.7572C32.6923 13.3836 31.3529 12.535 30.3501 11.9291C30.0787 11.7653 29.7997 11.6138 29.5166 11.4712C25.7042 9.56094 21.2366 9.10855 16.8799 9.11814Z" fill="white"/>
<path fill-rule="evenodd" clip-rule="evenodd" d="M23.9662 0.217211C25.8807 0.265877 26.8725 2.56757 27.0034 4.26746C27.0295 4.60538 27.0391 4.94467 27.0349 5.28396C27.0308 5.65136 27.011 6.01875 26.9787 6.38477C26.575 10.9169 24.5057 15.2331 22.069 19.2189C19.6857 23.1177 16.7794 27.0055 12.8258 28.8123C11.5187 29.41 9.96413 29.7787 8.80712 29.1118C7.22102 28.1981 7.0476 26.0609 7.07707 24.4399C7.08461 24.0416 7.11066 23.6434 7.15179 23.2465C7.76114 17.3792 10.7353 11.821 14.4572 7.03251C16.6286 4.23867 19.2121 1.46745 22.4302 0.463968C22.9367 0.305632 23.3391 0.209671 23.9662 0.217211ZM23.8744 1.02054C21.6268 1.05619 19.6089 2.7218 17.822 4.45253C13.124 9.00177 9.66186 15.0521 8.26905 21.3972C8.16144 21.8887 8.07096 22.3836 8.00447 22.8819C7.95306 23.2678 7.91536 23.6557 7.89549 24.0451C7.87972 24.3549 7.87424 24.6654 7.88383 24.9759C7.89069 25.2185 7.90645 25.4612 7.93318 25.7024C7.95306 25.8868 7.97979 26.0705 8.01338 26.2529C8.03874 26.3879 8.06822 26.5222 8.10249 26.6559C8.13059 26.7642 8.16212 26.8718 8.19776 26.9787C8.47811 27.8239 9.20056 28.6313 10.1705 28.6581C12.4331 28.7197 14.5634 27.0699 16.4052 25.2768C19.6384 22.13 22.0477 18.1757 23.9299 14.0192C25.4488 10.6633 26.8382 7.01538 26.0623 3.32156C26.0328 3.18173 25.9986 3.04327 25.9595 2.90618C25.9273 2.79445 25.891 2.6841 25.8512 2.57511C25.5496 1.75328 24.8402 1.01849 23.8744 1.02054Z" fill="white"/>
<path fill-rule="evenodd" clip-rule="evenodd" d="M10.2532 0.24762C12.6961 0.294915 14.8902 1.95299 16.8382 3.80984C20.3929 7.19795 23.0147 11.508 25.0038 16.0442C26.5447 19.5584 27.9621 23.5031 26.7023 27.2113C26.3054 28.38 25.3013 29.4493 23.9626 29.4767C21.5081 29.5261 19.2331 27.7412 17.259 25.8199C12.3068 20.9985 8.63007 14.6336 7.37023 7.88339C7.27975 7.40084 7.20778 6.91418 7.15843 6.42547C7.11799 6.02654 7.09263 5.62556 7.08578 5.22458C7.08029 4.90105 7.08715 4.57753 7.10977 4.25537C7.12485 4.04014 7.14678 3.82629 7.17625 3.61312C7.20436 3.41297 7.24 3.21351 7.28455 3.0161C7.31403 2.88518 7.34693 2.75563 7.38463 2.62677C7.75408 1.36351 8.71506 0.238023 10.2532 0.24762ZM10.1606 1.05164C8.73014 1.08317 8.07555 2.77003 7.94394 3.95378C7.91721 4.19642 7.90076 4.44112 7.89322 4.68583C7.88362 4.99838 7.88774 5.31163 7.9035 5.62419C8.12833 10.1474 10.1504 14.5205 12.5905 18.5248C14.8881 22.2947 17.6628 26.0495 21.4793 27.9797C22.5815 28.537 23.9208 28.975 24.8729 28.4486C26.0669 27.7878 26.2136 26.2134 26.2773 25.0399C26.2945 24.7205 26.2965 24.3997 26.2862 24.0796C26.2739 23.6779 26.2424 23.2769 26.1951 22.878C25.755 19.1513 24.1045 15.6247 22.2086 12.2921C19.8493 8.1466 16.9588 4.01478 12.8681 1.85634C12.0209 1.40944 11.1038 1.0441 10.1606 1.05164Z" fill="white"/>
</svg>
