<svg width="34" height="30" viewBox="0 0 34 30" fill="none" xmlns="http://www.w3.org/2000/svg">
<path d="M16.9986 18.0488C18.6938 18.0488 20.068 16.6746 20.068 14.9794C20.068 13.2843 18.6938 11.91 16.9986 11.91C15.3034 11.91 13.9292 13.2843 13.9292 14.9794C13.9292 16.6746 15.3034 18.0488 16.9986 18.0488Z" fill="black"/>
<path fill-rule="evenodd" clip-rule="evenodd" d="M17.2245 8.50965C22.4578 8.54529 28.1675 8.92708 32.0868 12.4221C32.202 12.5249 32.313 12.6319 32.4213 12.7422C33.346 13.6847 33.8292 15.2064 33.0828 16.4587C31.5515 19.0297 28.1271 20.1511 24.8116 20.8414C19.8532 21.8736 14.6685 21.8818 9.71211 20.973C6.86001 20.4493 3.94347 19.5315 1.91663 17.6116C1.12769 16.8644 0.453223 15.8815 0.558781 14.7876C0.73014 13.0178 2.42797 11.882 3.8571 11.1129C7.82647 8.97712 12.6629 8.49937 17.2245 8.50965ZM16.8448 9.31367C11.8932 9.34726 6.53374 9.66324 2.71037 12.8293C2.57671 12.9396 2.44785 13.0555 2.32378 13.1768C2.24359 13.2549 2.16613 13.3365 2.09142 13.4201C1.42038 14.1741 1.18938 15.3853 1.82273 16.2907C2.46018 17.2017 3.42802 17.859 4.42465 18.395C8.15205 20.3992 12.5567 20.755 16.8509 20.7701C21.1987 20.7858 25.6821 20.3896 29.5226 18.4039C31.0525 17.6123 32.7743 16.4498 32.7133 14.9528C32.6571 13.5791 31.3178 12.7306 30.315 12.1246C30.0436 11.9608 29.7646 11.8093 29.4815 11.6668C25.6691 9.75646 21.2014 9.30407 16.8448 9.31367Z" fill="black"/>
<path fill-rule="evenodd" clip-rule="evenodd" d="M23.9311 0.412569C25.8455 0.461235 26.8373 2.76293 26.9683 4.46282C26.9943 4.80074 27.0039 5.14003 26.9998 5.47932C26.9957 5.84671 26.9758 6.21411 26.9436 6.58013C26.5399 11.1122 24.4705 15.4284 22.0338 19.4143C19.6505 23.313 16.7443 27.2008 12.7907 29.0076C11.4835 29.6053 9.92898 29.9741 8.77196 29.3072C7.18586 28.3935 7.01244 26.2563 7.04192 24.6352C7.04946 24.237 7.0755 23.8388 7.11663 23.4419C7.72598 17.5745 10.7001 12.0163 14.422 7.22787C16.5935 4.43403 19.1769 1.66281 22.395 0.659326C22.9016 0.50099 23.3039 0.405029 23.9311 0.412569ZM23.8392 1.2159C21.5917 1.25154 19.5738 2.91716 17.7868 4.64789C13.0888 9.19713 9.6267 15.2475 8.23389 21.5926C8.12628 22.084 8.0358 22.5789 7.96931 23.0772C7.9179 23.4631 7.88021 23.8511 7.86033 24.2404C7.84456 24.5502 7.83908 24.8607 7.84868 25.1712C7.85553 25.4139 7.8713 25.6565 7.89803 25.8978C7.91791 26.0822 7.94464 26.2659 7.97822 26.4482C8.00358 26.5832 8.03306 26.7176 8.06733 26.8513C8.09543 26.9596 8.12696 27.0672 8.16261 27.1741C8.44295 28.0192 9.1654 28.8267 10.1353 28.8534C12.3979 28.9151 14.5283 27.2653 16.37 25.4722C19.6032 22.3253 22.0126 18.371 23.8948 14.2145C25.4137 10.8586 26.8031 7.21074 26.0272 3.51691C25.9977 3.37709 25.9634 3.23863 25.9243 3.10154C25.8921 2.98981 25.8558 2.87946 25.816 2.77047C25.5145 1.94863 24.805 1.21385 23.8392 1.2159Z" fill="black"/>
<path fill-rule="evenodd" clip-rule="evenodd" d="M10.218 0.442688C12.6609 0.489983 14.855 2.14806 16.803 4.00491C20.3577 7.39302 22.9795 11.7031 24.9686 16.2393C26.5095 19.7535 27.927 23.6982 26.6671 27.4064C26.2703 28.5751 25.2661 29.6444 23.9275 29.6718C21.4729 29.7211 19.1979 27.9363 17.2239 26.015C12.2716 21.1936 8.59491 14.8286 7.33508 8.07846C7.2446 7.59591 7.17263 7.10925 7.12328 6.62053C7.08283 6.22161 7.05747 5.82063 7.05062 5.41965C7.04514 5.09612 7.05199 4.77259 7.07461 4.45044C7.08969 4.23521 7.11162 4.02136 7.1411 3.80818C7.1692 3.60804 7.20484 3.40857 7.2494 3.21117C7.27887 3.08025 7.31177 2.9507 7.34947 2.82184C7.71892 1.55858 8.6799 0.433092 10.218 0.442688ZM10.1255 1.24671C8.69498 1.27824 8.04039 2.9651 7.90879 4.14885C7.88205 4.39149 7.8656 4.63619 7.85806 4.88089C7.84847 5.19345 7.85258 5.5067 7.86835 5.81926C8.09317 10.3425 10.1152 14.7155 12.5554 18.7199C14.853 22.4898 17.6276 26.2446 21.4441 28.1748C22.5463 28.7321 23.8856 29.17 24.8377 28.6436C26.0317 27.9829 26.1784 26.4084 26.2422 25.235C26.2593 24.9155 26.2614 24.5948 26.2511 24.2747C26.2388 23.873 26.2072 23.472 26.1599 23.0731C25.7199 19.3464 24.0693 15.8198 22.1734 12.4872C19.8141 8.34167 16.9237 4.20985 12.833 2.05141C11.9858 1.6045 11.0687 1.23917 10.1255 1.24671Z" fill="black"/>
</svg>
