<svg width="40" height="30" viewBox="0 0 40 30" fill="none" xmlns="http://www.w3.org/2000/svg">
<g clip-path="url(#clip0_334_1039)">
<path d="M34.2996 17.3524C32.9415 17.36 31.7655 17.6862 30.7792 18.1718C30.4151 17.4511 30.0509 16.8213 29.9903 16.351C29.922 15.8047 29.8385 15.4708 29.922 14.8184C30.0054 14.1659 30.3847 13.2403 30.3847 13.1644C30.3771 13.0961 30.3012 12.7623 29.5198 12.7547C28.7384 12.7471 28.0631 12.9064 27.9872 13.1113C27.9114 13.3161 27.7596 13.7865 27.661 14.2721C27.5244 14.9853 26.0981 17.5117 25.2863 18.8394C25.0208 18.3235 24.7932 17.8683 24.7476 17.504C24.6793 16.9579 24.5958 16.624 24.6793 15.9716C24.7628 15.319 25.1421 14.3935 25.1421 14.3176C25.1346 14.2493 25.0587 13.9155 24.2773 13.9079C23.4958 13.9003 22.8206 14.0596 22.7448 14.2645C22.6689 14.4693 22.5854 14.9549 22.4185 15.4253C22.2591 15.8957 20.3624 20.114 19.8692 21.2141C19.6189 21.7756 19.3989 22.2232 19.2395 22.5267C19.0802 22.8301 19.2319 22.5494 19.2168 22.5798C19.0802 22.8377 19.0043 22.9819 19.0043 22.9819V22.9895C18.8981 23.1792 18.7843 23.3612 18.7311 23.3612C18.6932 23.3612 18.6173 22.8529 18.7463 22.155C19.027 20.6906 19.7098 18.407 19.7023 18.3236C19.7023 18.2856 19.8312 17.8835 19.2622 17.6787C18.7084 17.4738 18.5112 17.8153 18.4656 17.8153C18.4201 17.8153 18.3821 17.9366 18.3821 17.9366C18.3821 17.9366 18.9967 15.3647 17.2061 15.3647C16.0833 15.3647 14.5355 16.5862 13.7693 17.7015C13.2837 17.9671 12.2519 18.5284 11.1594 19.1279C10.7421 19.3555 10.3096 19.5983 9.89994 19.8183L9.81656 19.7271C7.64669 17.4131 3.63321 15.7743 3.80012 12.6637C3.86082 11.5332 4.25534 8.55154 11.5085 4.94016C17.4491 1.98126 22.2061 2.79306 23.033 4.59875C24.209 7.1783 20.4914 11.9732 14.3157 12.6637C11.9637 12.9292 10.727 12.0188 10.416 11.6774C10.0898 11.3208 10.0442 11.3056 9.92285 11.3739C9.72559 11.4801 9.84698 11.7987 9.92285 11.9884C10.1049 12.4664 10.8636 13.3161 12.1534 13.741C13.2838 14.1128 16.0455 14.3176 19.3837 13.0278C23.1241 11.5787 26.0451 7.55765 25.1877 4.19664C24.3153 0.774936 18.6402 -0.347929 13.2763 1.55639C10.0821 2.69443 6.62246 4.46977 4.13395 6.79896C1.17505 9.5606 0.704656 11.9732 0.901916 12.9747C1.5924 16.5482 6.51624 18.8773 8.48884 20.5996C8.39021 20.6526 8.29917 20.7057 8.21571 20.7513C7.22941 21.2368 3.47388 23.2019 2.53311 25.2806C1.47094 27.6326 2.70002 29.3245 3.51941 29.5522C6.05344 30.2577 8.64817 28.9907 10.0518 26.9043C11.4477 24.8179 11.2808 22.1094 10.6359 20.8727L10.6131 20.8272L11.387 20.372C11.8878 20.0761 12.3809 19.803 12.8133 19.5677C12.5706 20.2277 12.396 21.0092 12.3051 22.1472C12.1989 23.4826 12.7451 25.2124 13.4659 25.8952C13.7845 26.191 14.1639 26.1987 14.3991 26.1987C15.2336 26.1987 15.613 25.5082 16.0302 24.6813C16.5462 23.6722 17.0014 22.5038 17.0014 22.5038C17.0014 22.5038 16.4324 25.6676 17.9877 25.6676C18.5567 25.6676 19.1257 24.9316 19.3837 24.5523V24.5599C19.3837 24.5599 19.3988 24.5371 19.4292 24.484C19.461 24.4369 19.4914 24.3889 19.5202 24.3399V24.3248C19.7478 23.9302 20.2562 23.0274 21.0149 21.5328C21.9935 19.6057 22.9344 17.193 22.9344 17.193C22.9344 17.193 23.0254 17.7848 23.3061 18.756C23.4729 19.3326 23.8371 19.9623 24.1178 20.5768C23.8902 20.8955 23.7537 21.0776 23.7537 21.0776L23.7613 21.0852C23.5792 21.328 23.3743 21.586 23.162 21.8439C22.3881 22.7695 21.4625 23.8242 21.3411 24.1277C21.1969 24.4842 21.2273 24.7497 21.508 24.9622C21.7129 25.114 22.077 25.1442 22.464 25.114C23.162 25.0684 23.6475 24.8939 23.8903 24.7876C24.2697 24.6511 24.7021 24.4462 25.1194 24.1428C25.8781 23.5814 26.3409 22.7848 26.2954 21.7226C26.2726 21.1384 26.0829 20.5618 25.8477 20.0155C25.916 19.9169 25.9844 19.8182 26.0526 19.7121C27.2513 17.9594 28.1769 16.0324 28.1769 16.0324C28.1769 16.0324 28.268 16.6242 28.5487 17.5953C28.6928 18.0885 28.9811 18.6272 29.2391 19.1583C28.1162 20.0763 27.4106 21.1385 27.1679 21.8365C26.7202 23.1263 27.0692 23.7104 27.7293 23.847C28.0251 23.9077 28.4501 23.7711 28.7686 23.6346C29.1631 23.5056 29.6411 23.2855 30.0812 22.9593C30.8399 22.3979 31.5683 21.6165 31.5303 20.5619C31.5076 20.0763 31.3786 19.5983 31.2041 19.1431C32.1601 18.7486 33.3967 18.521 34.9672 18.7107C38.3434 19.1052 39.0111 21.2143 38.8822 22.0944C38.7532 22.9746 38.0476 23.4601 37.8123 23.6118C37.5771 23.756 37.5013 23.8092 37.524 23.9153C37.5544 24.0747 37.6606 24.067 37.8654 24.0368C38.1461 23.9912 39.6408 23.316 39.7015 21.6925C39.7925 19.6058 37.8123 17.3297 34.2996 17.3524ZM8.26124 26.1305C7.14596 27.3519 5.57546 27.8147 4.90781 27.4202C4.18706 27.0029 4.4677 25.2048 5.84101 23.9075C6.67557 23.1184 7.7605 22.3901 8.47367 21.9425C8.633 21.8438 8.87578 21.6998 9.16408 21.5252C9.2096 21.4949 9.23995 21.4797 9.23995 21.4797C9.29306 21.4493 9.35375 21.4114 9.41445 21.3734C9.92277 23.2247 9.43721 24.8483 8.26124 26.1305ZM16.4172 20.5844C16.0302 21.5328 15.2109 23.9682 14.7177 23.8316C14.2928 23.7178 14.0349 21.8742 14.6342 20.0533C14.9377 19.1352 15.5825 18.0428 15.9619 17.6178C16.5765 16.935 17.2441 16.7074 17.4111 16.9881C17.6083 17.3524 16.66 19.9926 16.4172 20.5844ZM23.1468 23.8013C22.9799 23.8848 22.8281 23.9454 22.7599 23.9C22.7067 23.8696 22.8281 23.7558 22.8281 23.7558C22.8281 23.7558 23.6702 22.853 24.004 22.4357C24.1937 22.193 24.4213 21.9123 24.6641 21.5935V21.6846C24.6642 22.777 23.6172 23.5054 23.1468 23.8013ZM28.3362 22.6177C28.2148 22.5267 28.23 22.2459 28.6396 21.3659C28.799 21.0169 29.1631 20.4327 29.7929 19.8788C29.8687 20.1064 29.9143 20.3264 29.9067 20.5313C29.8992 21.8969 28.928 22.4053 28.3362 22.6177Z" fill="black"/>
</g>
<defs>
<clipPath id="clip0_334_1039">
<rect width="38.8451" height="29.1338" fill="white" transform="translate(0.871094 0.615601)"/>
</clipPath>
</defs>
</svg>
