<svg width="40" height="30" viewBox="0 0 40 30" fill="none" xmlns="http://www.w3.org/2000/svg">
<g clip-path="url(#clip0_334_1121)">
<path d="M34.3347 17.157C32.9767 17.1646 31.8007 17.4908 30.8144 17.9764C30.4502 17.2557 30.086 16.6259 30.0254 16.1556C29.9571 15.6093 29.8737 15.2754 29.9571 14.623C30.0405 13.9705 30.4199 13.0449 30.4199 12.969C30.4122 12.9007 30.3363 12.5669 29.555 12.5593C28.7736 12.5517 28.0983 12.711 28.0224 12.9159C27.9465 13.1207 27.7948 13.5911 27.6962 14.0767C27.5596 14.7899 26.1333 17.3163 25.3215 18.644C25.0559 18.1281 24.8283 17.6729 24.7827 17.3086C24.7145 16.7625 24.631 16.4286 24.7145 15.7762C24.798 15.1236 25.1773 14.1981 25.1773 14.1222C25.1697 14.0539 25.0939 13.7201 24.3125 13.7125C23.5309 13.7049 22.8558 13.8643 22.7799 14.0691C22.704 14.274 22.6206 14.7595 22.4537 15.2299C22.2943 15.7003 20.3975 19.9186 19.9044 21.0187C19.654 21.5802 19.4341 22.0278 19.2747 22.3313C19.1154 22.6347 19.2671 22.354 19.2519 22.3844C19.1154 22.6423 19.0395 22.7865 19.0395 22.7865V22.7941C18.9333 22.9838 18.8195 23.1658 18.7663 23.1658C18.7283 23.1658 18.6525 22.6575 18.7815 21.9596C19.0622 20.4952 19.745 18.2116 19.7375 18.1282C19.7375 18.0903 19.8664 17.6881 19.2974 17.4833C18.7435 17.2785 18.5463 17.6199 18.5007 17.6199C18.4552 17.6199 18.4173 17.7413 18.4173 17.7413C18.4173 17.7413 19.0318 15.1694 17.2413 15.1694C16.1184 15.1694 14.5707 16.3909 13.8044 17.5061C13.3189 17.7717 12.287 18.333 11.1945 18.9325C10.7772 19.1601 10.3448 19.4029 9.93509 19.6229L9.85171 19.5317C7.68185 17.2177 3.66837 15.5789 3.83528 12.4683C3.89597 11.3378 4.29049 8.35615 11.5437 4.74477C17.4842 1.78587 22.2412 2.59767 23.0681 4.40336C24.2441 6.98291 20.5265 11.7779 14.3508 12.4683C11.9989 12.7338 10.7621 11.8234 10.4512 11.482C10.1249 11.1254 10.0794 11.1102 9.958 11.1785C9.76075 11.2847 9.88214 11.6034 9.958 11.793C10.1401 12.271 10.8988 13.1207 12.1886 13.5456C13.3189 13.9174 16.0807 14.1222 19.4189 12.8324C23.1593 11.3833 26.0802 7.36226 25.2229 4.00125C24.3504 0.579547 18.6754 -0.543318 13.3114 1.361C10.1173 2.49904 6.65762 4.27438 4.1691 6.60357C1.2102 9.36521 0.739812 11.7779 0.937072 12.7793C1.62756 16.3528 6.5514 18.682 8.524 20.4042C8.42537 20.4572 8.33433 20.5103 8.25087 20.5559C7.26457 21.0414 3.50904 23.0065 2.56826 25.0853C1.50609 27.4372 2.73517 29.1292 3.55456 29.3568C6.0886 30.0624 8.68333 28.7953 10.0869 26.7089C11.4828 24.6225 11.316 21.914 10.6711 20.6773L10.6483 20.6318L11.4221 20.1766C11.9229 19.8807 12.4161 19.6076 12.8485 19.3723C12.6058 20.0324 12.4312 20.8138 12.3402 21.9519C12.234 23.2872 12.7803 25.017 13.501 25.6998C13.8197 25.9956 14.199 26.0033 14.4342 26.0033C15.2688 26.0033 15.6481 25.3128 16.0654 24.4859C16.5813 23.4768 17.0365 22.3084 17.0365 22.3084C17.0365 22.3084 16.4675 25.4722 18.0228 25.4722C18.5919 25.4722 19.1609 24.7363 19.4188 24.3569V24.3645C19.4188 24.3645 19.434 24.3417 19.4643 24.2886C19.4962 24.2416 19.5265 24.1935 19.5554 24.1445V24.1294C19.783 23.7349 20.2913 22.832 21.05 21.3374C22.0287 19.4103 22.9695 16.9977 22.9695 16.9977C22.9695 16.9977 23.0606 17.5894 23.3413 18.5606C23.5081 19.1373 23.8723 19.7669 24.153 20.3814C23.9254 20.7001 23.7888 20.8822 23.7888 20.8822L23.7964 20.8898C23.6144 21.1326 23.4095 21.3906 23.1971 21.6485C22.4233 22.5741 21.4976 23.6288 21.3763 23.9323C21.2321 24.2888 21.2625 24.5543 21.5432 24.7668C21.748 24.9186 22.1122 24.9488 22.4991 24.9186C23.1971 24.873 23.6827 24.6985 23.9255 24.5923C24.3048 24.4557 24.7373 24.2508 25.1545 23.9474C25.9132 23.386 26.376 22.5894 26.3305 21.5272C26.3078 20.943 26.1181 20.3664 25.8829 19.8201C25.9512 19.7215 26.0195 19.6228 26.0877 19.5167C27.2865 17.764 28.2121 15.837 28.2121 15.837C28.2121 15.837 28.3031 16.4288 28.5838 17.3999C28.7279 17.8931 29.0163 18.4318 29.2742 18.9629C28.1514 19.8809 27.4458 20.9431 27.203 21.6411C26.7554 22.9309 27.1044 23.5151 27.7644 23.6516C28.0603 23.7123 28.4852 23.5758 28.8038 23.4392C29.1983 23.3102 29.6763 23.0901 30.1164 22.764C30.8751 22.2025 31.6034 21.4211 31.5655 20.3665C31.5427 19.8809 31.4138 19.4029 31.2393 18.9477C32.1952 18.5532 33.4318 18.3256 35.0024 18.5153C38.3786 18.9098 39.0462 21.019 38.9173 21.899C38.7883 22.7792 38.0827 23.2647 37.8475 23.4164C37.6123 23.5606 37.5364 23.6138 37.5592 23.7199C37.5895 23.8793 37.6957 23.8716 37.9006 23.8414C38.1813 23.7958 39.6759 23.1206 39.7366 21.4971C39.8277 19.4104 37.8475 17.1343 34.3347 17.157ZM8.29639 25.9351C7.18111 27.1566 5.61062 27.6194 4.94297 27.2248C4.22221 26.8076 4.50285 25.0095 5.87616 23.7121C6.71072 22.9231 7.79565 22.1947 8.50883 21.7471C8.66815 21.6484 8.91093 21.5044 9.19924 21.3298C9.24476 21.2995 9.27511 21.2843 9.27511 21.2843C9.32821 21.2539 9.38891 21.216 9.4496 21.1781C9.95793 23.0293 9.47237 24.6529 8.29639 25.9351ZM16.4523 20.389C16.0654 21.3374 15.246 23.7728 14.7529 23.6362C14.3279 23.5224 14.07 21.6788 14.6693 19.8579C14.9728 18.9398 15.6177 17.8474 15.997 17.4225C16.6117 16.7396 17.2792 16.512 17.4462 16.7927C17.6435 17.157 16.6951 19.7972 16.4523 20.389ZM23.1819 23.6059C23.015 23.6894 22.8633 23.75 22.795 23.7046C22.7419 23.6742 22.8632 23.5604 22.8632 23.5604C22.8632 23.5604 23.7054 22.6576 24.0392 22.2403C24.2289 21.9976 24.4565 21.7169 24.6993 21.3982V21.4892C24.6993 22.5816 23.6523 23.31 23.1819 23.6059ZM28.3713 22.4223C28.2499 22.3313 28.2652 22.0506 28.6748 21.1705C28.8342 20.8215 29.1983 20.2373 29.828 19.6834C29.9039 19.911 29.9495 20.131 29.9418 20.3359C29.9343 21.7016 28.9632 22.2099 28.3713 22.4223Z" fill="white"/>
</g>
<defs>
<clipPath id="clip0_334_1121">
<rect width="38.8451" height="29.1338" fill="white" transform="translate(0.90625 0.42041)"/>
</clipPath>
</defs>
</svg>
