<svg width="40" height="40" viewBox="0 0 40 40" fill="none" xmlns="http://www.w3.org/2000/svg">
<path d="M5.75161 27.0003C5.09489 27.0003 4.55029 26.4557 4.55029 25.799V13.7858C4.55029 13.1291 5.09489 12.5845 5.75161 12.5845C6.40834 12.5845 6.95294 13.1291 6.95294 13.7858V25.799C6.95294 26.4557 6.40834 27.0003 5.75161 27.0003Z" fill="#14141A"/>
<path d="M12.9591 31.0057C12.3024 31.0057 11.7578 30.4611 11.7578 29.8044V9.78238C11.7578 9.12565 12.3024 8.58105 12.9591 8.58105C13.6159 8.58105 14.1605 9.12565 14.1605 9.78238V29.8044C14.1605 30.4611 13.6159 31.0057 12.9591 31.0057Z" fill="#14141A"/>
<path d="M20.1681 35.0101C19.5114 35.0101 18.9668 34.4655 18.9668 33.8088V5.77798C18.9668 5.12126 19.5114 4.57666 20.1681 4.57666C20.8248 4.57666 21.3694 5.12126 21.3694 5.77798V33.8088C21.3694 34.4655 20.8248 35.0101 20.1681 35.0101Z" fill="#14141A"/>
<path d="M27.3761 31.0057C26.7194 31.0057 26.1748 30.4611 26.1748 29.8044V9.78238C26.1748 9.12565 26.7194 8.58105 27.3761 8.58105C28.0328 8.58105 28.5774 9.12565 28.5774 9.78238V29.8044C28.5774 30.4611 28.0328 31.0057 27.3761 31.0057Z" fill="#14141A"/>
<path d="M34.5832 27.0003C33.9264 27.0003 33.3818 26.4557 33.3818 25.799V13.7858C33.3818 13.1291 33.9264 12.5845 34.5832 12.5845C35.2399 12.5845 35.7845 13.1291 35.7845 13.7858V25.799C35.7845 26.4557 35.2399 27.0003 34.5832 27.0003Z" fill="#14141A"/>
</svg>
