<svg width="36" height="37" viewBox="0 0 36 37" fill="none" xmlns="http://www.w3.org/2000/svg">
<path d="M18.0326 29.1826C15.3554 29.1826 12.6782 28.1655 10.6292 26.1165C6.54613 22.0335 6.54613 15.3929 10.6292 11.3098C14.7122 7.2268 21.3528 7.2268 25.4359 11.3098C29.5189 15.3929 29.5189 22.0335 25.4359 26.1165C23.3869 28.1655 20.7097 29.1826 18.0326 29.1826ZM18.0326 10.4873C15.9237 10.4873 13.8148 11.2949 12.2145 12.8952C9.01391 16.1108 9.01391 21.3156 12.2145 24.5312C15.4302 27.7468 20.6499 27.7318 23.8505 24.5312C27.0512 21.3156 27.0512 16.1108 23.8505 12.8952C22.2502 11.2949 20.1414 10.4873 18.0326 10.4873Z" fill="#14141A"/>
<path d="M12.4225 33.6991C12.2879 33.6991 12.1383 33.6692 12.0037 33.6243C8.6386 32.2783 5.91655 29.9002 4.0919 26.7594C2.32706 23.6934 1.62412 20.2236 2.08776 16.6939C2.16255 16.0807 2.73088 15.647 3.34409 15.7218C3.95729 15.7965 4.391 16.3649 4.31622 16.9781C3.92736 19.9992 4.52566 22.9905 6.03623 25.6228C7.59168 28.3149 9.93977 30.3639 12.8263 31.5155C13.3947 31.7548 13.6788 32.3978 13.4545 32.9811C13.29 33.4298 12.8562 33.6991 12.4225 33.6991Z" fill="#14141A"/>
<path d="M8.83411 8.03475C8.50508 8.03475 8.17604 7.88522 7.9517 7.60105C7.56284 7.1075 7.65259 6.40457 8.14614 6.03066C11.0028 3.80219 14.4128 2.62061 18.0322 2.62061C21.5618 2.62061 24.927 3.75731 27.7537 5.911C28.2472 6.28491 28.337 6.98782 27.9631 7.48137C27.5892 7.97493 26.8862 8.06469 26.3927 7.69079C23.9698 5.83622 21.0832 4.86404 18.0322 4.86404C14.9213 4.86404 11.9749 5.8811 9.52208 7.7955C9.3127 7.96001 9.07341 8.03475 8.83411 8.03475Z" fill="#14141A"/>
<path d="M23.6423 33.6998C23.1936 33.6998 22.7748 33.4306 22.5953 32.9968C22.371 32.4285 22.6402 31.7704 23.2235 31.5311C26.11 30.3646 28.4582 28.3305 30.0136 25.6384C31.5391 23.0061 32.1374 20.0149 31.7336 16.9937C31.6588 16.3805 32.0925 15.8122 32.7057 15.7374C33.304 15.6626 33.8873 16.0963 33.962 16.7095C34.4107 20.2242 33.7227 23.709 31.9579 26.7751C30.1482 29.9159 27.4112 32.2789 24.0461 33.64C23.9264 33.6699 23.7918 33.6998 23.6423 33.6998Z" fill="#14141A"/>
</svg>
