<svg width="57" height="25" viewBox="0 0 57 25" fill="none" xmlns="http://www.w3.org/2000/svg">
<path d="M38.4233 0.322998L38.2477 1.23897C37.9759 2.97485 38.0743 3.47149 38.8192 4.11571L39.5384 4.71074L38.7935 8.03259C38.3484 10.0145 37.8025 11.6754 37.4558 12.2212C37.1583 12.6921 36.8116 13.3855 36.7367 13.758C36.6125 14.2031 36.1908 14.6505 35.5466 15.0464C34.9773 15.3697 33.8599 16.2365 33.0681 16.9322C32.4356 17.5015 31.9999 17.8506 31.7633 18.0005L30.9902 18.6119C30.7419 19.0102 30.6013 19.3311 30.5474 19.5747C30.4935 19.8254 30.524 19.9917 30.6036 20.1135C30.681 20.2307 30.8145 20.3127 30.9972 20.3642C31.2135 20.4149 31.4362 20.4331 31.6578 20.4181C32.1593 20.3838 32.6557 20.2959 33.1384 20.1557C33.3024 20.1112 33.4312 20.069 33.5436 20.0315C33.717 19.8184 34.1176 19.4154 34.8274 18.715C36.7109 16.8573 37.4301 15.8406 36.6875 16.1147C36.4134 16.2131 36.5375 15.9647 37.0084 15.4681C38.0017 14.5006 38.5709 13.0388 39.761 8.45427C40.7027 4.8349 40.7027 4.78337 41.3961 4.78337C41.7218 4.78337 42.6424 4.83959 42.6424 4.83959V0.322998H40.5294H38.4233ZM47.4167 7.73742C47.2668 7.73742 47.0185 7.96231 46.8709 8.21063C46.5991 8.65573 46.9201 8.92748 51.0103 11.4809C53.4396 13.0201 55.398 14.3319 55.3488 14.4327C55.2997 14.5053 53.3154 15.7961 50.9377 17.2836C46.6226 19.9589 46.5991 19.9847 46.995 20.5305C47.4917 21.1747 46.995 21.3973 52.5963 17.9021L56.6631 15.2994V13.341L52.1254 10.5392C49.6727 9.00244 47.5409 7.76319 47.4167 7.73742ZM9.7355 8.01151C9.61134 8.01151 7.47955 9.27653 5.02681 10.7875L0.439941 13.5893V15.5477L5.00104 18.3987C7.53108 19.9589 9.66288 21.2497 9.76127 21.2497C9.85966 21.2497 10.0588 21.0248 10.2579 20.7531C10.5554 20.2822 10.3048 20.0831 6.11613 17.4312C2.12664 14.927 1.70496 14.5802 2.10321 14.3085C2.35153 14.1351 4.235 12.9685 6.2684 11.7058C10.9045 8.85486 10.6562 9.05164 10.2837 8.45661C10.1361 8.21063 9.88543 7.98808 9.73784 8.01151H9.7355ZM30.0789 8.06539C29.3949 8.06071 27.9237 9.10318 23.5195 12.6991C23.3298 13.1512 23.3134 13.4628 23.4001 13.6643C23.4563 13.8025 23.5594 13.8985 23.7023 13.9688C23.8428 14.0391 24.0255 14.0813 24.227 14.0977C24.6276 14.1328 25.1008 14.0695 25.4827 13.9946L25.7403 13.936C25.8286 13.8177 25.9444 13.7228 26.0777 13.6596C26.3494 13.5097 27.4903 12.4695 28.6312 11.3544C30.6388 9.32104 31.1097 8.40273 30.2921 8.10521C30.225 8.07853 30.1511 8.06501 30.0789 8.06539ZM35.2233 9.478C34.6213 9.49439 33.5366 10.1925 31.6789 11.6754C30.7465 12.4321 30.1562 12.8397 29.84 12.924L28.6124 13.8939C28.1509 14.7372 28.083 15.2596 28.2048 15.5477C28.2353 15.6188 28.2795 15.6832 28.335 15.737C28.3905 15.7909 28.4561 15.8333 28.5281 15.8617C28.707 15.9323 28.8979 15.9681 29.0903 15.9671C29.5501 15.9622 30.0072 15.8952 30.449 15.768C30.6793 15.7062 30.9068 15.6342 31.1307 15.5524L31.1987 15.5243L31.3228 15.4587C31.5571 15.1565 32.0959 14.5873 32.7706 13.9313C34.9024 11.8745 35.9917 10.4127 35.7691 9.86687C35.6684 9.60216 35.4951 9.46863 35.2233 9.478ZM29.5448 12.008C29.3714 12.0268 28.9825 12.3266 28.2821 12.9404C27.2701 13.8353 26.1667 14.3507 25.7849 14.1211C25.6961 14.1411 25.6071 14.1599 25.5178 14.1773C25.1289 14.2546 24.644 14.3179 24.2106 14.2827C24.0064 14.2704 23.8063 14.2203 23.6203 14.1351C23.4448 14.0549 23.3048 13.9133 23.2267 13.7369C23.14 13.5261 23.14 13.2637 23.2384 12.9287L21.7157 14.1797L18.2697 17.0306V21.6526L29.5612 12.7577C29.559 12.6603 29.5716 12.5631 29.5987 12.4695C29.6853 12.1556 29.6807 11.9963 29.5448 12.0104V12.008ZM34.4034 13.505C34.2324 13.505 33.9466 13.7463 33.4898 14.2312C32.869 14.8942 31.8921 15.536 31.3744 15.6672L31.2947 15.7094C31.2097 15.7445 31.1238 15.7773 31.037 15.8078C30.8965 15.8546 30.7138 15.9109 30.5029 15.9671C30.0812 16.0819 29.5565 16.1873 29.088 16.1756C28.8671 16.1753 28.6483 16.1323 28.4437 16.0491C28.2509 15.9696 28.0964 15.8184 28.0127 15.6274C27.8768 15.3018 27.9307 14.845 28.2282 14.1961L18.2674 22.0415V24.8644H22.6434L31.9249 17.5741C32.1662 17.3071 32.5293 16.9416 33.0189 16.4848C34.3308 15.269 34.6283 14.8496 34.6283 14.2288C34.6283 13.7463 34.5744 13.5026 34.4034 13.5026V13.505ZM36.6125 18.0731L35.8183 18.8649C35.3732 19.2866 34.5791 19.8067 34.0356 20.0292L33.9278 20.0761L33.9208 20.0878L33.8974 20.1112C33.8763 20.1276 33.8669 20.1299 33.8505 20.137C33.6336 20.2191 33.4132 20.2918 33.1899 20.3548C32.6935 20.4993 32.183 20.5896 31.6672 20.6242C31.4233 20.6399 31.1785 20.6185 30.941 20.561C30.7349 20.5156 30.5529 20.3954 30.4303 20.2236C30.3178 20.0503 30.285 19.8184 30.3483 19.5326C30.3986 19.3291 30.4733 19.1324 30.5709 18.9469L23.0815 24.8644H33.0423L34.2324 23.501C35.8675 21.5941 36.6125 20.2307 36.6125 19.064V18.0731Z" fill="black"/>
</svg>
