<svg width="57" height="25" viewBox="0 0 57 25" fill="none" xmlns="http://www.w3.org/2000/svg">
<path d="M38.4585 0.127441L38.2828 1.04341C38.0111 2.7793 38.1095 3.27593 38.8544 3.92016L39.5736 4.51519L38.8286 7.83704C38.3835 9.8189 37.8377 11.4798 37.491 12.0257C37.1935 12.4965 36.8468 13.1899 36.7718 13.5624C36.6477 14.0075 36.226 14.455 35.5818 14.8509C35.0125 15.1742 33.8951 16.0409 33.1033 16.7367C32.4707 17.3059 32.035 17.655 31.7984 17.8049L31.0253 18.4164C30.777 18.8146 30.6365 19.1355 30.5826 19.3792C30.5287 19.6298 30.5592 19.7962 30.6388 19.918C30.7161 20.0351 30.8496 20.1171 31.0324 20.1686C31.2487 20.2193 31.4713 20.2375 31.693 20.2225C32.1945 20.1883 32.6908 20.1003 33.1735 19.9601C33.3375 19.9156 33.4664 19.8735 33.5788 19.836C33.7522 19.6228 34.1527 19.2199 34.8626 18.5194C36.746 16.6617 37.4652 15.645 36.7226 15.9191C36.4485 16.0175 36.5727 15.7692 37.0436 15.2725C38.0368 14.305 38.6061 12.8432 39.7961 8.25871C40.7379 4.63935 40.7379 4.58781 41.4313 4.58781C41.7569 4.58781 42.6776 4.64403 42.6776 4.64403V0.127441H40.5645H38.4585ZM47.4519 7.54186C47.3019 7.54186 47.0536 7.76676 46.906 8.01508C46.6343 8.46018 46.9552 8.73192 51.0455 11.2854C53.4748 12.8245 55.4332 14.1364 55.384 14.2371C55.3348 14.3097 53.3506 15.6005 50.9728 17.0881C46.6577 19.7634 46.6343 19.7891 47.0302 20.335C47.5268 20.9792 47.0302 21.2017 52.6314 17.7065L56.6982 15.1039V13.1454L52.1605 10.3437C49.7078 8.80689 47.576 7.56763 47.4519 7.54186ZM9.77065 7.81595C9.64649 7.81595 7.5147 9.08097 5.06197 10.592L0.475098 13.3938V15.3522L5.0362 18.2032C7.56624 19.7634 9.69803 21.0542 9.79642 21.0542C9.89481 21.0542 10.0939 20.8293 10.2931 20.5575C10.5906 20.0866 10.3399 19.8875 6.15129 17.2357C2.16179 14.7314 1.74012 14.3847 2.13837 14.1129C2.38668 13.9396 4.27016 12.773 6.30356 11.5103C10.9396 8.6593 10.6913 8.85608 10.3188 8.26105C10.1712 8.01508 9.92058 7.79253 9.773 7.81595H9.77065ZM30.1141 7.86983C29.43 7.86515 27.9588 8.90762 23.5547 12.5036C23.3649 12.9557 23.3485 13.2673 23.4352 13.4687C23.4914 13.6069 23.5945 13.703 23.7374 13.7733C23.878 13.8435 24.0607 13.8857 24.2622 13.9021C24.6628 13.9372 25.136 13.874 25.5178 13.799L25.7755 13.7405C25.8637 13.6222 25.9795 13.5273 26.1128 13.464C26.3846 13.3141 27.5254 12.274 28.6663 11.1589C30.6739 9.12548 31.1448 8.20717 30.3272 7.90966C30.2602 7.88297 30.1862 7.86945 30.1141 7.86983ZM35.2585 9.28244C34.6564 9.29884 33.5718 9.99694 31.7141 11.4798C30.7817 12.2365 30.1914 12.6441 29.8751 12.7284L28.6476 13.6983C28.1861 14.5416 28.1181 15.064 28.24 15.3522C28.2704 15.4233 28.3147 15.4876 28.3702 15.5415C28.4257 15.5954 28.4913 15.6377 28.5632 15.6661C28.7422 15.7368 28.933 15.7726 29.1255 15.7715C29.5853 15.7666 30.0423 15.6996 30.4842 15.5724C30.7145 15.5106 30.9419 15.4387 31.1659 15.3569L31.2338 15.3288L31.358 15.2632C31.5923 14.961 32.1311 14.3917 32.8057 13.7358C34.9375 11.6789 36.0269 10.2171 35.8043 9.67132C35.7036 9.4066 35.5302 9.27307 35.2585 9.28244ZM29.5799 11.8125C29.4066 11.8312 29.0177 12.1311 28.3173 12.7448C27.3052 13.6397 26.2019 14.1551 25.82 13.9255C25.7313 13.9456 25.6422 13.9643 25.553 13.9818C25.1641 14.0591 24.6792 14.1223 24.2458 14.0872C24.0416 14.0748 23.8414 14.0248 23.6554 13.9396C23.48 13.8594 23.34 13.7177 23.2619 13.5413C23.1752 13.3305 23.1752 13.0681 23.2736 12.7331L21.7509 13.9841L18.3049 16.8351V21.4571L29.5963 12.5621C29.5941 12.4647 29.6068 12.3676 29.6338 12.274C29.7205 11.9601 29.7158 11.8008 29.5799 11.8148V11.8125ZM34.4385 13.3094C34.2675 13.3094 33.9817 13.5507 33.5249 14.0356C32.9041 14.6986 31.9272 15.3405 31.4095 15.4717L31.3299 15.5138C31.2449 15.5489 31.159 15.5817 31.0722 15.6122C30.9316 15.6591 30.7489 15.7153 30.5381 15.7715C30.1164 15.8863 29.5916 15.9917 29.1231 15.98C28.9022 15.9797 28.6835 15.9368 28.4789 15.8535C28.2861 15.774 28.1316 15.6229 28.0479 15.4318C27.912 15.1062 27.9659 14.6494 28.2634 14.0005L18.3025 21.846V24.6688H22.6785L31.96 17.3786C32.2013 17.1115 32.5644 16.7461 33.0541 16.2892C34.3659 15.0734 34.6634 14.6541 34.6634 14.0333C34.6634 13.5507 34.6096 13.3071 34.4385 13.3071V13.3094ZM36.6476 17.8775L35.8535 18.6694C35.4084 19.091 34.6142 19.6111 34.0708 19.8336L33.963 19.8805L33.956 19.8922L33.9325 19.9156C33.9115 19.932 33.9021 19.9344 33.8857 19.9414C33.6687 20.0235 33.4483 20.0962 33.2251 20.1593C32.7287 20.3037 32.2182 20.3941 31.7024 20.4287C31.4585 20.4443 31.2136 20.423 30.9761 20.3654C30.77 20.32 30.5881 20.1999 30.4654 20.0281C30.353 19.8547 30.3202 19.6228 30.3835 19.337C30.4338 19.1335 30.5085 18.9369 30.606 18.7513L23.1166 24.6688H33.0775L34.2675 23.3054C35.9027 21.3985 36.6476 20.0351 36.6476 18.8685V17.8775Z" fill="white"/>
</svg>
