<svg width="35" height="22" viewBox="0 0 35 22" fill="none" xmlns="http://www.w3.org/2000/svg">
<path d="M17.9587 0.959961C13.4139 0.959961 10.5733 3.23239 9.43714 7.77725C11.1415 5.50482 13.1298 4.65266 15.4023 5.22077C16.6988 5.5449 17.6255 6.4855 18.6513 7.52671C20.3223 9.22283 22.2562 11.1859 26.4804 11.1859C31.0252 11.1859 33.8657 8.91346 35.002 4.3686C33.2976 6.64103 31.3093 7.49319 29.0368 6.92509C27.7403 6.60095 26.8136 5.66035 25.7878 4.61914C24.1168 2.92302 22.1829 0.959961 17.9587 0.959961ZM9.43714 11.1859C4.89228 11.1859 2.05174 13.4583 0.915527 18.0032C2.61985 15.7308 4.60822 14.8786 6.88065 15.4467C8.1772 15.7708 9.10391 16.7114 10.1297 17.7526C11.8007 19.4488 13.7346 21.4118 17.9587 21.4118C22.5036 21.4118 25.3441 19.1394 26.4804 14.5945C24.776 16.867 22.7877 17.7191 20.5152 17.151C19.2187 16.8269 18.292 15.8863 17.2662 14.8451C15.5952 13.149 13.6613 11.1859 9.43714 11.1859Z" fill="white"/>
</svg>
