<svg width="35" height="21" viewBox="0 0 35 21" fill="none" xmlns="http://www.w3.org/2000/svg">
<path d="M17.9236 0.155075C13.3787 0.155075 10.5382 2.4275 9.40198 6.97236C11.1063 4.69993 13.0947 3.84777 15.3671 4.41588C16.6637 4.74002 17.5904 5.68061 18.6161 6.72183C20.2871 8.41794 22.2211 10.381 26.4452 10.381C30.9901 10.381 33.8306 8.10858 34.9668 3.56372C33.2625 5.83615 31.2741 6.68831 29.0017 6.1202C27.7051 5.79606 26.7784 4.85547 25.7527 3.81425C24.0817 2.11814 22.1477 0.155075 17.9236 0.155075ZM9.40198 10.381C4.85712 10.381 2.01659 12.6534 0.880371 17.1983C2.58469 14.9259 4.57307 14.0737 6.8455 14.6418C8.14204 14.9659 9.06875 15.9065 10.0945 16.9478C11.7655 18.6439 13.6995 20.6069 17.9236 20.6069C22.4684 20.6069 25.309 18.3345 26.4452 13.7896C24.7409 16.0621 22.7525 16.9142 20.4801 16.3461C19.1835 16.022 18.2568 15.0814 17.2311 14.0402C15.5601 12.3441 13.6261 10.381 9.40198 10.381Z" fill="black"/>
</svg>
