<svg width="29" height="29" viewBox="0 0 29 29" fill="none" xmlns="http://www.w3.org/2000/svg">
<path d="M0.907715 14.3311V0.331055H28.9077V28.3311H0.907715" fill="white"/>
<path d="M7.04688 14.3799V15.5209H10.6869V25.8809H13.2699V15.5209H16.9099V14.4009C16.9099 13.7709 16.9099 13.2599 16.8819 13.2459C16.8819 13.2249 14.6629 13.2179 11.9679 13.2179L7.06788 13.2389V14.3869L7.04688 14.3799ZM23.4059 13.2109C24.1199 13.3789 24.6659 13.7009 25.1559 14.2119C25.4149 14.4919 25.7999 14.9819 25.8279 15.1079C25.8279 15.1499 24.6169 15.9689 23.8819 16.4239C23.8539 16.4449 23.7419 16.3259 23.6299 16.1439C23.2659 15.6259 22.8949 15.4019 22.3139 15.3599C21.4739 15.3039 20.9139 15.7449 20.9139 16.4799C20.9139 16.7039 20.9559 16.8299 21.0399 17.0119C21.2289 17.3969 21.5789 17.6279 22.6639 18.1039C24.6659 18.9649 25.5339 19.5319 26.0589 20.3439C26.6539 21.2539 26.7869 22.6819 26.3879 23.7529C25.9399 24.9219 24.8479 25.7129 23.2869 25.9719C22.7969 26.0559 21.6769 26.0419 21.1519 25.9509C20.0319 25.7409 18.9609 25.1809 18.3029 24.4599C18.0439 24.1799 17.5469 23.4309 17.5749 23.3819L17.8409 23.2139L18.8909 22.6049L19.6819 22.1429L19.8639 22.3879C20.0949 22.7519 20.6129 23.2419 20.9139 23.4099C21.8239 23.8789 23.0419 23.8159 23.6439 23.2699C23.9029 23.0319 24.0149 22.7799 24.0149 22.4299C24.0149 22.1079 23.9659 21.9609 23.8049 21.7159C23.5809 21.4079 23.1329 21.1559 21.8729 20.5959C20.4239 19.9799 19.8079 19.5879 19.2339 18.9859C18.9049 18.6219 18.6039 18.0549 18.4639 17.5859C18.3589 17.1799 18.3239 16.1859 18.4219 15.7869C18.7229 14.3869 19.7799 13.4069 21.2919 13.1269C21.7819 13.0289 22.9369 13.0709 23.4199 13.1969L23.4059 13.2109Z" fill="black"/>
</svg>
