<svg width="29" height="29" viewBox="0 0 29 29" fill="none" xmlns="http://www.w3.org/2000/svg">
<path d="M0.872559 14.5264V0.526428H28.8726V28.5264H0.872559" fill="black"/>
<path d="M7.01172 14.5754V15.7164H10.6517V26.0764H13.2347V15.7164H16.8747V14.5964C16.8747 13.9664 16.8747 13.4554 16.8467 13.4414C16.8467 13.4204 14.6277 13.4134 11.9327 13.4134L7.03272 13.4344V14.5824L7.01172 14.5754ZM23.3707 13.4064C24.0847 13.5744 24.6307 13.8964 25.1207 14.4074C25.3797 14.6874 25.7647 15.1774 25.7927 15.3034C25.7927 15.3454 24.5817 16.1644 23.8467 16.6194C23.8187 16.6404 23.7067 16.5214 23.5947 16.3394C23.2307 15.8214 22.8597 15.5974 22.2787 15.5554C21.4387 15.4994 20.8787 15.9404 20.8787 16.6754C20.8787 16.8994 20.9207 17.0254 21.0047 17.2074C21.1937 17.5924 21.5437 17.8234 22.6287 18.2994C24.6307 19.1604 25.4987 19.7274 26.0237 20.5394C26.6187 21.4494 26.7517 22.8774 26.3527 23.9484C25.9047 25.1174 24.8127 25.9084 23.2517 26.1674C22.7617 26.2514 21.6417 26.2374 21.1167 26.1464C19.9967 25.9364 18.9257 25.3764 18.2677 24.6554C18.0087 24.3754 17.5117 23.6264 17.5397 23.5774L17.8057 23.4094L18.8557 22.8004L19.6467 22.3384L19.8287 22.5834C20.0597 22.9474 20.5777 23.4374 20.8787 23.6054C21.7887 24.0744 23.0067 24.0114 23.6087 23.4654C23.8677 23.2274 23.9797 22.9754 23.9797 22.6254C23.9797 22.3034 23.9307 22.1564 23.7697 21.9114C23.5457 21.6034 23.0977 21.3514 21.8377 20.7914C20.3887 20.1754 19.7727 19.7834 19.1987 19.1814C18.8697 18.8174 18.5687 18.2504 18.4287 17.7814C18.3237 17.3754 18.2887 16.3814 18.3867 15.9824C18.6877 14.5824 19.7447 13.6024 21.2567 13.3224C21.7467 13.2244 22.9017 13.2664 23.3847 13.3924L23.3707 13.4064Z" fill="white"/>
</svg>
