<svg width="88" height="59" viewBox="0 0 88 59" fill="none" xmlns="http://www.w3.org/2000/svg">
<path d="M53.3444 9.81603C53.3444 8.94827 53.675 8.11605 54.2634 7.50245C54.8519 6.88885 55.65 6.54412 56.4822 6.54412L81.5839 6.54384C82.4161 6.54383 83.2142 6.88854 83.8026 7.50213C84.391 8.11572 84.7216 8.94793 84.7216 9.81569C84.7216 10.6834 84.391 11.5157 83.8025 12.1293C83.2141 12.7429 82.416 13.0876 81.5838 13.0876L56.4821 13.0879C55.6499 13.0879 54.8518 12.7432 54.2634 12.1296C53.675 11.516 53.3444 10.6838 53.3444 9.81603ZM43.9309 41.7169C43.9308 46.2726 42.1952 50.6418 39.1059 53.8632C36.0166 57.0846 31.8266 58.8944 27.4577 58.8945L3.14036 58.8947C2.30819 58.8947 1.5101 58.55 0.921671 57.9364C0.333241 57.3228 0.00267052 56.4906 0.00268012 55.6229L0.00325968 3.27285C0.00326928 2.4051 0.333858 1.57288 0.922302 0.959278C1.51074 0.345675 2.30884 0.000951487 3.14101 0.000942436L25.8895 0.000695017C28.8905 0.00399277 31.8206 0.951891 34.2964 2.72034C36.7722 4.4888 38.6784 6.99542 39.7654 9.9122C40.8525 12.829 41.0698 16.02 40.389 19.0678C39.7081 22.1155 38.1608 24.8779 35.9495 26.9936C38.3849 28.5212 40.3998 30.68 41.7984 33.2599C43.197 35.8399 43.9316 38.7533 43.9309 41.7169ZM6.27846 24.54L25.8892 24.5398C28.1777 24.5397 30.3724 23.5918 31.9907 21.9044C33.6089 20.2169 34.518 17.9283 34.518 15.542C34.5181 13.1557 33.609 10.8671 31.9908 9.17974C30.3726 7.49236 28.1779 6.54442 25.8894 6.54445L6.27866 6.54466L6.27846 24.54ZM37.6555 41.717C37.6555 40.3206 37.3917 38.9378 36.8793 37.6477C36.3668 36.3576 35.6157 35.1853 34.6687 34.1979C33.7218 33.2105 32.5976 32.4273 31.3604 31.8929C30.1232 31.3585 28.7972 31.0835 27.458 31.0835L6.27839 31.0837L6.27815 52.3509L27.4578 52.3507C28.7969 52.3507 30.123 52.0756 31.3602 51.5412C32.5974 51.0068 33.7216 50.2236 34.6686 49.2361C35.6155 48.2487 36.3667 47.0764 36.8792 45.7863C37.3917 44.4962 37.6554 43.1134 37.6555 41.717ZM87.859 39.2625C87.859 40.1303 87.5284 40.9625 86.9399 41.5761C86.3515 42.1897 85.5534 42.5344 84.7212 42.5345L56.874 42.5348C57.4646 44.9222 58.69 47.087 60.409 48.78C62.1279 50.4729 64.2706 51.6251 66.5901 52.1037C68.9096 52.5824 71.3116 52.3681 73.5194 51.4855C75.7272 50.6029 77.6511 49.088 79.0694 47.1151C79.3168 46.7714 79.6268 46.4819 79.9816 46.2631C80.3364 46.0442 80.7291 45.9004 81.1372 45.8398C81.5453 45.7793 81.9608 45.8031 82.3601 45.91C82.7593 46.0169 83.1345 46.2047 83.4641 46.4628C83.7938 46.7208 84.0714 47.0441 84.2813 47.414C84.4911 47.784 84.629 48.1934 84.6871 48.619C84.7452 49.0445 84.7223 49.4778 84.6198 49.8942C84.5173 50.3105 84.3372 50.7017 84.0897 51.0454C81.4063 54.7735 77.5384 57.3843 73.1781 58.4107C68.8177 59.4372 64.2493 58.8123 60.2904 56.6479C56.3315 54.4835 53.2404 50.9208 51.57 46.5973C49.8997 42.2737 49.7593 37.4715 51.1738 33.0498C52.5883 28.628 55.4654 24.8754 59.2905 22.4632C63.1155 20.051 67.6388 19.1368 72.0511 19.884C76.4634 20.6313 80.4767 22.9912 83.3729 26.5417C86.2691 30.0921 87.8593 34.6013 87.859 39.2625ZM81.1914 35.9907C80.5002 33.1756 78.9301 30.6804 76.7286 28.8985C74.5272 27.1167 71.8196 26.1495 69.0328 26.1496C66.246 26.1496 63.5384 27.1168 61.3369 28.8987C59.1355 30.6806 57.5653 33.1758 56.874 35.991L81.1914 35.9907Z" fill="#E2B1A6"/>
</svg>
