<svg width="72" height="92" viewBox="0 0 72 92" fill="none" xmlns="http://www.w3.org/2000/svg">
<path d="M68.7273 13.1448C63.7465 13.1403 58.8196 14.1796 54.2618 16.1962C48.0845 5.77695 37.9309 0.589888 37.4645 0.347579C37.0099 0.119166 36.5084 0.000244141 36 0.000244141C35.4916 0.000244141 34.9901 0.119166 34.5355 0.347579C34.0691 0.585781 23.8991 5.77695 17.7382 16.1962C13.1804 14.1796 8.25353 13.1403 3.27273 13.1448C2.40475 13.1448 1.57232 13.4909 0.95856 14.1071C0.344805 14.7233 0 15.5589 0 16.4303V32.8581C0.0107981 41.8711 3.37164 50.5557 9.42475 57.2121C15.4779 63.8685 23.7875 68.0175 32.7273 68.8471V83.398L17.8282 75.9151C17.4435 75.7221 17.0248 75.6069 16.5958 75.5763C16.1668 75.5457 15.736 75.6002 15.328 75.7368C14.9201 75.8733 14.5429 76.0892 14.218 76.372C13.8931 76.6549 13.6269 76.9993 13.4345 77.3854C13.2422 77.7716 13.1275 78.192 13.0971 78.6227C13.0666 79.0533 13.1209 79.4858 13.2569 79.8954C13.3929 80.3049 13.6079 80.6836 13.8897 81.0098C14.1714 81.3359 14.5144 81.6032 14.8991 81.7963L34.5355 91.6529C34.9901 91.8813 35.4916 92.0002 36 92.0002C36.5084 92.0002 37.0099 91.8813 37.4645 91.6529L57.1009 81.7963C57.8778 81.4063 58.4685 80.7226 58.7431 79.8954C59.0178 79.0682 58.9539 78.1653 58.5655 77.3854C58.177 76.6055 57.4959 76.0125 56.672 75.7368C55.848 75.461 54.9487 75.5252 54.1718 75.9151L39.2727 83.398V68.8471C48.2125 68.0175 56.5221 63.8685 62.5752 57.2121C68.6284 50.5557 71.9892 41.8711 72 32.8581V16.4303C72 15.5589 71.6552 14.7233 71.0414 14.1071C70.4277 13.4909 69.5953 13.1448 68.7273 13.1448ZM32.7273 62.2473C25.5301 61.4304 18.8839 57.9835 14.0555 52.5635C9.22702 47.1435 6.55385 40.1295 6.54545 32.8581V19.8966C13.7426 20.7135 20.3888 24.1604 25.2172 29.5803C30.0457 35.0003 32.7189 42.0144 32.7273 49.2858V62.2473ZM36 34.238C33.2468 28.2331 28.9128 23.0969 23.4655 19.3832C27.3805 12.8984 33.2836 8.74626 36 7.06241C38.7205 8.73804 44.6236 12.8902 48.5345 19.3832C43.088 23.0978 38.7542 28.2338 36 34.238ZM65.4545 32.8581C65.4461 40.1295 62.773 47.1435 57.9445 52.5635C53.1161 57.9835 46.4699 61.4304 39.2727 62.2473V49.2858C39.2811 42.0144 41.9543 35.0003 46.7827 29.5803C51.6112 24.1604 58.2574 20.7135 65.4545 19.8966V32.8581Z" fill="#E2B1A6"/>
</svg>
