<svg width="143" height="133" viewBox="0 0 143 133" fill="none" xmlns="http://www.w3.org/2000/svg">
<mask id="path-1-inside-1_33_153" fill="white">
<path d="M58.7229 52.9146C58.603 53.0684 58.366 53.1105 58.2132 52.9841C47.9308 44.4808 34.7989 39.0983 22.4628 48.404C17.798 51.9228 12.3478 62.2019 13.375 69.8187C13.2265 69.8808 13.3416 69.5505 13.375 69.8187L13.3418 68.9469L13.3086 68.0751L13.3184 68.867C13.3932 71.5661 14.1548 73.5005 15.0351 75.9432C15.7692 77.644 16.8572 79.1308 18.0532 80.5121C24.0042 87.4833 32.4514 89.8279 40.9534 85.6053C42.4824 84.9198 44.2558 84.0107 45.8094 83.1345C47.8214 81.9636 49.8617 80.3394 51.819 78.8329C58.2171 73.6292 64.3744 66.4029 70.3049 60.3786C72.3494 58.2363 73.8725 56.4107 76.019 54.1423C78.3288 51.8482 80.2238 50.3112 82.5577 48.3023C87.1388 44.4447 92.2525 40.8047 97.9237 39.1754C109.547 35.9844 122.096 40.4947 128.735 50.6604C132.043 55.786 133.504 62.3052 133.155 68.8687C132.548 82.4194 122.498 93.2867 110.763 95.506C99.7188 97.8313 90.7869 90.1174 83.7113 82.5437C83.6071 82.4321 83.5956 82.2619 83.683 82.1403C83.7863 81.9967 83.9879 81.975 84.1236 82.0929C87.8674 85.3462 91.6608 88.5877 95.9901 90.8104C102.686 94.4718 110.604 94.1494 117.53 89.7165C132.709 80.7182 133.03 57.5319 120.043 48.3016C114.02 44.0014 106.217 42.22 98.8735 44.4644C93.9492 46.0024 89.5246 49.2053 85.4183 52.7145C83.379 54.4891 81.2519 56.2734 79.3388 58.207C77.4685 60.2146 75.6427 62.3939 73.7505 64.3995C64.184 74.358 54.8215 85.6245 42.4406 90.7793C35.1054 94.2266 26.6814 93.7976 20.3771 89.2269C13.7477 84.6021 9.38513 78.142 9.40264 68.8942C8.51085 60.1731 13.2417 50.7075 19.8322 45.4495C24.1654 41.9925 31.2906 39.8825 36.4867 40.1301C45.1632 40.1402 53.1937 46.084 58.6964 52.5766C58.7883 52.685 58.8084 52.8049 58.7229 52.9146Z"/>
</mask>
<path d="M58.7229 52.9146C58.603 53.0684 58.366 53.1105 58.2132 52.9841C47.9308 44.4808 34.7989 39.0983 22.4628 48.404C17.798 51.9228 12.3478 62.2019 13.375 69.8187C13.2265 69.8808 13.3416 69.5505 13.375 69.8187L13.3418 68.9469L13.3086 68.0751L13.3184 68.867C13.3932 71.5661 14.1548 73.5005 15.0351 75.9432C15.7692 77.644 16.8572 79.1308 18.0532 80.5121C24.0042 87.4833 32.4514 89.8279 40.9534 85.6053C42.4824 84.9198 44.2558 84.0107 45.8094 83.1345C47.8214 81.9636 49.8617 80.3394 51.819 78.8329C58.2171 73.6292 64.3744 66.4029 70.3049 60.3786C72.3494 58.2363 73.8725 56.4107 76.019 54.1423C78.3288 51.8482 80.2238 50.3112 82.5577 48.3023C87.1388 44.4447 92.2525 40.8047 97.9237 39.1754C109.547 35.9844 122.096 40.4947 128.735 50.6604C132.043 55.786 133.504 62.3052 133.155 68.8687C132.548 82.4194 122.498 93.2867 110.763 95.506C99.7188 97.8313 90.7869 90.1174 83.7113 82.5437C83.6071 82.4321 83.5956 82.2619 83.683 82.1403C83.7863 81.9967 83.9879 81.975 84.1236 82.0929C87.8674 85.3462 91.6608 88.5877 95.9901 90.8104C102.686 94.4718 110.604 94.1494 117.53 89.7165C132.709 80.7182 133.03 57.5319 120.043 48.3016C114.02 44.0014 106.217 42.22 98.8735 44.4644C93.9492 46.0024 89.5246 49.2053 85.4183 52.7145C83.379 54.4891 81.2519 56.2734 79.3388 58.207C77.4685 60.2146 75.6427 62.3939 73.7505 64.3995C64.184 74.358 54.8215 85.6245 42.4406 90.7793C35.1054 94.2266 26.6814 93.7976 20.3771 89.2269C13.7477 84.6021 9.38513 78.142 9.40264 68.8942C8.51085 60.1731 13.2417 50.7075 19.8322 45.4495C24.1654 41.9925 31.2906 39.8825 36.4867 40.1301C45.1632 40.1402 53.1937 46.084 58.6964 52.5766C58.7883 52.685 58.8084 52.8049 58.7229 52.9146Z" fill="#991F6F"/>
<path d="M22.4628 48.404L17.7017 41.827L22.4628 48.404ZM13.3184 68.867L5.43044 68.7839L5.43123 68.8477L5.433 68.9116L13.3184 68.867ZM15.0351 75.9432L7.64528 78.6061L7.7334 78.8506L7.83641 79.0892L15.0351 75.9432ZM18.0532 80.5121L23.9303 75.2425L23.9112 75.2202L23.892 75.198L18.0532 80.5121ZM40.9534 85.6053L37.6616 78.1594L37.5248 78.2208L37.3905 78.2875L40.9534 85.6053ZM45.8094 83.1345L49.7244 90.2657L49.7694 90.2404L49.8141 90.2144L45.8094 83.1345ZM51.819 78.8329L56.639 85.365L56.7204 85.3023L56.8002 85.2375L51.819 78.8329ZM70.3049 60.3786L75.9144 66.2116L75.9564 66.1689L75.9979 66.1255L70.3049 60.3786ZM76.019 54.1423L70.4709 48.2476L70.3858 48.3321L70.3033 48.4193L76.019 54.1423ZM82.5577 48.3023L77.4756 41.9813L77.4439 42.008L77.4125 42.035L82.5577 48.3023ZM97.9237 39.1754L95.7258 31.3368L95.6826 31.3487L95.6395 31.3611L97.9237 39.1754ZM128.735 50.6604L135.277 46.2855L135.265 46.2664L135.253 46.2473L128.735 50.6604ZM133.155 68.8687L125.278 68.2404L125.276 68.275L125.275 68.3098L133.155 68.8687ZM110.763 95.506L109.164 87.5289L109.088 87.5434L109.011 87.5595L110.763 95.506ZM95.9901 90.8104L99.5687 83.6695L99.4769 83.6192L99.3838 83.5715L95.9901 90.8104ZM117.53 89.7165L113.473 82.6676L113.361 82.734L113.251 82.8043L117.53 89.7165ZM120.043 48.3016L115.645 54.9281L115.652 54.9331L115.659 54.9382L120.043 48.3016ZM98.8735 44.4644L96.4668 36.6864L96.4447 36.6932L96.4227 36.7001L98.8735 44.4644ZM85.4183 52.7145L80.2937 46.4295L80.2676 46.4519L80.2416 46.4744L85.4183 52.7145ZM79.3388 58.207L73.7429 52.3601L73.6612 52.4427L73.5819 52.5278L79.3388 58.207ZM73.7505 64.3995L79.426 70.1647L79.4501 70.1396L79.474 70.1142L73.7505 64.3995ZM42.4406 90.7793L39.3361 83.2525L39.1793 83.3178L39.0255 83.3901L42.4406 90.7793ZM20.3771 89.2269L24.8239 82.6351L24.7639 82.5916L24.7031 82.5492L20.3771 89.2269ZM9.40264 68.8942L17.2913 69.0963L17.2921 68.6625L17.2479 68.23L9.40264 68.8942ZM19.8322 45.4495L24.7573 51.8993L19.8322 45.4495ZM36.4867 40.1301L36.3023 48.2312L36.4807 48.2397L36.659 48.2399L36.4867 40.1301ZM13.3086 68.0751L21.1913 67.9439L5.42064 67.9919L13.3086 68.0751ZM13.3418 68.9469L5.45924 69.0781L5.45924 69.0781L13.3418 68.9469ZM84.1236 82.0929L79.1124 88.2362L84.1236 82.0929ZM83.7113 82.5437L89.3403 76.9964L83.7113 82.5437ZM83.683 82.1403L90.0647 87.0571L83.683 82.1403ZM58.6964 52.5766L52.8002 57.8237L58.6964 52.5766ZM58.2132 52.9841L63.0714 46.7111L58.2132 52.9841ZM58.7229 52.9146L52.5229 47.7552L58.7229 52.9146ZM63.0714 46.7111C57.3646 41.9917 50.3236 37.6625 42.4705 36.062C34.3091 34.3986 25.7016 35.7924 17.7017 41.827L27.2238 54.981C31.5601 51.7099 35.6866 51.1421 39.7459 51.9694C44.1133 52.8595 48.7794 55.4733 53.355 59.2572L63.0714 46.7111ZM17.7017 41.827C13.9949 44.6232 10.774 49.3157 8.63507 53.9788C6.49605 58.6421 4.75383 64.7616 5.56157 70.7508L21.1885 68.8866C20.969 67.259 21.4383 64.4305 22.9337 61.1703C24.4293 57.91 26.2659 55.7036 27.2238 54.981L17.7017 41.827ZM21.1992 68.969C21.1553 68.6169 21.0488 67.91 20.7462 67.0733C20.5913 66.6449 20.3174 65.9914 19.8437 65.2745C19.3842 64.579 18.5327 63.5154 17.128 62.6919C15.585 61.7874 13.7085 61.3807 11.8037 61.7219C10.0444 62.037 8.79978 62.8888 8.06066 63.5512C6.68967 64.7797 6.108 66.1779 5.87286 66.853C5.58647 67.6752 5.41886 68.5799 5.41249 69.5333C5.40657 70.4184 5.53749 71.9346 6.40257 73.5645C7.40438 75.452 9.2471 77.1477 11.7547 77.7325C13.9266 78.239 15.6573 77.6892 16.4895 77.3413L10.2605 62.2961C11.0556 61.9637 12.7575 61.4172 14.9073 61.9186C17.3929 62.4982 19.2205 64.1803 20.2128 66.0498C21.0683 67.6617 21.1952 69.1554 21.1894 70.0172C21.1832 70.9474 21.0199 71.8283 20.7407 72.6298C20.5128 73.2842 19.9411 74.665 18.5817 75.8832C17.8483 76.5404 16.6098 77.3889 14.8569 77.7028C12.9585 78.0428 11.0885 77.6373 9.55206 76.7366C8.15395 75.917 7.30902 74.8601 6.85603 74.1743C6.38891 73.4672 6.12129 72.8269 5.97246 72.4152C5.68204 71.6119 5.58644 70.9534 5.55086 70.6683L21.1992 68.969ZM5.433 68.9116C5.55149 73.1901 6.85481 76.4128 7.64528 78.6061L22.4249 73.2803C21.4547 70.5883 21.2349 69.9421 21.2039 68.8224L5.433 68.9116ZM7.83641 79.0892C9.05305 81.9078 10.7522 84.1374 12.2145 85.8261L23.892 75.198C22.9623 74.1243 22.4854 73.3802 22.2337 72.7972L7.83641 79.0892ZM12.1762 85.7817C20.3391 95.344 32.6063 98.8382 44.5163 92.9231L37.3905 78.2875C32.2964 80.8175 27.6693 79.6226 23.9303 75.2425L12.1762 85.7817ZM44.2452 93.0511C46.0221 92.2545 48.0049 91.2354 49.7244 90.2657L41.8943 76.0033C40.5066 76.7859 38.9428 77.5851 37.6616 78.1594L44.2452 93.0511ZM49.8141 90.2144C52.3613 88.732 54.8852 86.7149 56.639 85.365L46.9989 72.3009C44.8383 73.9638 43.2815 75.1952 41.8047 76.0547L49.8141 90.2144ZM56.8002 85.2375C63.6259 79.686 70.5775 71.6329 75.9144 66.2116L64.6954 54.5456C58.1713 61.1729 52.8084 67.5724 46.8377 72.4284L56.8002 85.2375ZM75.9979 66.1255C77.1115 64.9586 78.0758 63.8853 78.9771 62.8813C79.8899 61.8645 80.7418 60.9146 81.7347 59.8652L70.3033 48.4193C69.1497 49.6384 68.1668 50.7355 67.2703 51.7342C66.3622 52.7457 65.5427 53.6564 64.6119 54.6317L75.9979 66.1255ZM81.5671 60.0369C83.6234 57.9947 85.2087 56.7165 87.703 54.5696L77.4125 42.035C75.2389 43.9059 73.0342 45.7018 70.4709 48.2476L81.5671 60.0369ZM87.6398 54.6234C92.0184 50.9363 96.1247 48.1628 100.208 46.9897L95.6395 31.3611C88.3803 33.4466 82.2592 37.9531 77.4756 41.9813L87.6398 54.6234ZM100.121 47.014C108.733 44.6499 117.651 48.082 122.217 55.0734L135.253 46.2473C126.541 32.9074 110.361 27.319 95.7258 31.3368L100.121 47.014ZM122.192 55.0352C124.374 58.4168 125.552 63.1055 125.278 68.2404L141.032 69.497C141.457 61.505 139.711 53.1552 135.277 46.2855L122.192 55.0352ZM125.275 68.3098C124.839 78.0233 117.505 85.9515 109.164 87.5289L112.362 103.483C127.492 100.622 140.256 86.8156 141.035 69.4276L125.275 68.3098ZM109.011 87.5595C102.6 88.9094 96.5531 84.717 89.3403 76.9964L78.0823 88.091C85.0206 95.5178 96.8379 106.753 112.516 103.453L109.011 87.5595ZM79.1124 88.2362C82.7702 91.4148 87.2672 95.3133 92.5963 98.0493L99.3838 83.5715C96.0543 81.8621 92.9645 79.2776 89.1349 75.9496L79.1124 88.2362ZM92.4114 97.9513C101.807 103.089 112.713 102.451 121.809 96.6287L113.251 82.8043C108.495 85.8483 103.565 85.8546 99.5687 83.6695L92.4114 97.9513ZM121.588 96.7653C131.751 90.7402 136.773 80.0481 137.23 69.6469C137.681 59.3461 133.667 48.2318 124.428 41.6651L115.659 54.9382C119.406 57.6017 121.725 62.6957 121.468 68.5452C121.216 74.2943 118.488 79.6945 113.473 82.6676L121.588 96.7653ZM124.442 41.6752C116.65 36.1123 106.362 33.6622 96.4668 36.6864L101.28 52.2424C106.072 50.7779 111.39 51.8905 115.645 54.9281L124.442 41.6752ZM96.4227 36.7001C89.9833 38.7112 84.598 42.751 80.2937 46.4295L90.543 58.9994C94.4512 55.6595 97.9151 53.2936 101.324 52.2288L96.4227 36.7001ZM80.2416 46.4744C78.3563 48.115 75.9176 50.1622 73.7429 52.3601L84.9346 64.0539C86.5862 62.3846 88.4017 60.8631 90.5951 58.9545L80.2416 46.4744ZM73.5819 52.5278C72.5662 53.6181 71.5713 54.7457 70.6646 55.7695C69.7315 56.8231 68.878 57.7827 68.0271 58.6847L79.474 70.1142C80.5153 69.0106 81.5207 67.8778 82.4412 66.8384C83.388 65.7693 84.241 64.8034 85.0956 63.8862L73.5819 52.5278ZM68.0751 58.6342C57.8133 69.3165 49.8462 78.8766 39.3361 83.2525L45.5451 98.3061C59.7968 92.3724 70.5548 79.3994 79.426 70.1647L68.0751 58.6342ZM39.0255 83.3901C33.8308 85.8314 28.4583 85.2701 24.8239 82.6351L15.9303 95.8187C24.9045 102.325 36.38 102.622 45.8557 98.1685L39.0255 83.3901ZM24.7031 82.5492C19.8487 79.1626 17.2799 75.0924 17.2913 69.0963L1.51401 68.6921C1.49034 81.1916 7.64678 90.0416 16.0511 95.9046L24.7031 82.5492ZM17.2479 68.23C16.6889 62.7636 19.8574 55.8084 24.7573 51.8993L14.9071 38.9998C6.62604 45.6065 0.332811 57.5826 1.55742 69.5584L17.2479 68.23ZM24.7573 51.8993C27.5613 49.6622 32.852 48.0668 36.3023 48.2312L36.6712 32.029C29.7291 31.6982 20.7695 34.3227 14.9071 38.9998L24.7573 51.8993ZM36.659 48.2399C41.938 48.2461 47.927 52.0738 52.8002 57.8237L64.5925 47.3295C58.4603 40.0941 48.3884 32.0343 36.3144 32.0203L36.659 48.2399ZM5.42064 67.9919L5.43044 68.7839L21.2065 68.9502L21.1967 68.1582L5.42064 67.9919ZM21.2576 69.6875L21.2244 68.8157L5.45924 69.0781L5.49244 69.9499L21.2576 69.6875ZM21.2244 68.8157L21.1913 67.9439L5.42604 68.2062L5.45924 69.0781L21.2244 68.8157ZM90.0647 87.0571C87.4971 90.628 82.4842 91.1663 79.1124 88.2362L89.1349 75.9496C85.4916 72.7836 80.0754 73.3653 77.3013 77.2236L90.0647 87.0571ZM89.3403 76.9964C91.9602 79.8007 92.2217 84.0572 90.0647 87.0571L77.3013 77.2236C74.9694 80.4667 75.254 85.0636 78.0823 88.091L89.3403 76.9964ZM52.8002 57.8237C52.1072 57.006 51.1458 55.5162 50.9307 53.407C50.6962 51.107 51.4573 49.1221 52.5229 47.7552L64.9229 58.074C66.074 56.5973 66.8679 54.4976 66.6216 52.0832C66.3949 49.8595 65.3775 48.2556 64.5925 47.3295L52.8002 57.8237ZM53.355 59.2572C57.4634 62.6547 62.5514 61.1162 64.9229 58.074L52.5229 47.7552C53.7605 46.1676 55.4696 45.2826 57.1705 45.0284C58.8987 44.7701 61.1322 45.1074 63.0714 46.7111L53.355 59.2572Z" fill="#AF0073" mask="url(#path-1-inside-1_33_153)"/>
</svg>
