<svg width="114" height="113" viewBox="0 0 114 113" fill="none" xmlns="http://www.w3.org/2000/svg">
<path d="M57 0C42.1873 0.00567792 27.958 5.72441 17.324 15.9458C6.68992 26.1671 0.485628 40.089 0.0242536 54.7646C0.00796791 55.3377 0 55.9189 0 56.5C0 67.6746 3.34296 78.5983 9.6062 87.8897C15.8694 97.1811 24.7716 104.423 35.187 108.699C45.6024 112.976 57.0632 114.094 68.1202 111.914C79.1771 109.734 89.3335 104.353 97.3051 96.4515C105.277 88.5499 110.705 78.4825 112.905 67.5226C115.104 56.5627 113.975 45.2024 109.661 34.8784C105.347 24.5544 98.0411 15.7303 88.6675 9.52197C79.2939 3.31367 68.2735 0 57 0ZM57 110.543C42.3193 110.528 29.3808 104.866 19 94.5761C8.61916 84.2863 2.3903 71.0519 2.375 56.5C2.375 55.7494 2.3424 54.778 2.375 54.0435C2.81593 43.2922 6.71453 33.2938 13.0625 24.5652C19.4105 15.8366 27.849 9.95418 38 6.1413C48.151 2.32843 58.2854 1.31818 68.875 3.68478C79.4646 6.05139 88.6692 11.8905 96.1875 19.6522C103.706 27.4139 108.482 36.0897 110.438 46.6739C112.393 57.2581 111.131 67.4818 106.875 77.3804C102.619 87.2791 95.7441 96.0134 86.6875 101.946C77.6309 107.878 67.8554 110.544 57 110.543Z" fill="#42A867"/>
<path d="M105.043 56.4987C105.043 69.1286 99.9814 81.2413 90.9716 90.1721C81.9618 99.1028 69.7419 104.12 57.0001 104.12C44.2584 104.12 32.0385 99.1028 23.0287 90.1721C14.0189 81.2413 8.95728 69.1286 8.95728 56.4987C8.95728 54.9893 9.03044 53.5042 9.1688 52.0352C10.3266 39.8459 16.176 28.5669 25.5026 20.5402C34.8291 12.5134 46.9162 8.35553 59.2541 8.92993C71.592 9.50433 83.2328 14.7669 91.7593 23.6248C100.286 32.4827 105.043 44.2555 105.043 56.4987Z" fill="white"/>
<path d="M71.3065 59.6636C70.142 58.146 68.6101 56.9439 66.8526 56.1687C64.6849 55.2632 62.4462 54.5343 60.159 53.9894V41.0267C63.6748 41.5522 66.9721 43.0424 69.6779 45.3288L72.3327 39.7192C70.8059 38.3709 69.0531 37.2974 67.1536 36.5471C65.0482 35.702 62.8382 35.1401 60.5824 34.8763V28.3062H54.4347V34.9409C52.0608 35.2052 49.7707 35.9673 47.7169 37.1767C45.8615 38.2652 44.2996 39.7828 43.1647 41.5998C42.0817 43.373 41.5205 45.4111 41.5445 47.4839C41.4387 49.73 42.0952 51.9466 43.4092 53.7796C44.6187 55.3666 46.2159 56.6221 48.0504 57.4279C50.2527 58.3601 52.5299 59.108 54.8581 59.6636V72.0856C50.7093 71.7754 46.7561 70.2119 43.5313 67.6059L40.877 73.2237C42.68 74.7013 44.7305 75.8541 46.9352 76.6298C49.351 77.4867 51.8748 78.0082 54.4348 78.1795V84.6931H60.5825V78.0584C63.9972 77.6886 67.1995 76.2331 69.7106 73.9097C70.8164 72.8585 71.69 71.5911 72.2759 70.1878C72.8618 68.7845 73.1474 67.276 73.1145 65.7576C73.2165 63.583 72.5799 61.4373 71.3065 59.6636ZM54.8582 52.6173C53.3606 52.1671 51.9682 51.4264 50.7621 50.438C50.2843 50.0166 49.9065 49.4955 49.6559 48.9121C49.4053 48.3288 49.2882 47.6977 49.3128 47.0642C49.2684 45.6266 49.8014 44.2302 50.7947 43.1818C51.896 42.0818 53.3168 41.3509 54.8582 41.0913V52.6173ZM64.0189 69.7933C62.98 70.8493 61.6274 71.5479 60.159 71.7869V61.1004C61.5625 61.4736 62.8755 62.1243 64.0189 63.0133C64.4523 63.3802 64.7967 63.8393 65.0265 64.3563C65.2562 64.8734 65.3655 65.4351 65.3461 65.9997C65.4026 67.385 64.9285 68.7402 64.0189 69.7933Z" fill="#42A867"/>
</svg>
