<svg width="126" height="128" viewBox="0 0 126 128" fill="none" xmlns="http://www.w3.org/2000/svg">
<g clip-path="url(#clip0_33_169)">
<path d="M52.6641 19.4994C50.1293 19.7994 48.7512 20.1994 46.3887 21.3744C41.836 23.6244 38.5137 27.3994 36.9141 32.1244C36.4219 33.5744 36.4711 33.5494 33.6164 32.7744C29.7036 31.7244 25.2246 32.2494 21.5825 34.1744C19.1461 35.4744 15.9223 38.7244 14.6918 41.1744C13.4368 43.6494 12.7969 46.2994 12.7969 49.1244V51.4244L11.1481 51.8494C6.05395 53.1244 1.9934 57.1744 0.615274 62.3744C0.098477 64.2744 0.098477 67.9244 0.615274 69.8494C1.10746 71.7744 2.5102 74.4494 3.76527 75.8994L4.74965 77.0244L4.23285 77.6994C2.14106 80.3494 0.664493 84.0494 0.270743 87.4494C-0.836679 97.5494 5.88168 106.624 15.7254 108.374C18.777 108.924 99.0774 108.924 102.621 108.399C111.53 107.024 118.986 101.499 122.998 93.3494C124.966 89.3494 125.754 85.8744 125.779 81.1744C125.779 73.5744 123.367 67.4244 118.223 61.9994C111.973 55.4244 103.089 52.3994 94.377 53.8494C93.2942 54.0494 92.3836 54.1494 92.3344 54.1244C92.2852 54.0744 92.1375 53.2244 92.0145 52.2244C90.8825 42.9744 85.2223 34.8994 76.9536 30.7494C75.6493 30.0994 73.6313 29.2994 72.4993 28.9744C70.5305 28.4244 70.4075 28.3494 69.62 27.1744C68.4879 25.4994 65.9532 23.1744 63.9598 21.9744C62.0403 20.8494 59.2102 19.8494 57.3399 19.6244C54.7313 19.3494 54.2637 19.3244 52.6641 19.4994ZM59.284 24.2494C61.9418 25.2994 64.7227 27.1244 64.7227 27.7744C64.7227 27.8994 64.1567 27.9994 63.4676 27.9994C61.5481 27.9994 57.4629 28.9244 55.0266 29.9244C51.1629 31.4744 48.3082 33.4494 45.4536 36.4744C40.95 41.2744 38.4399 47.0494 37.9723 53.7244L37.8246 55.8744H33.6164C29.5313 55.8744 29.3344 55.8994 27.1934 56.6744C20.795 58.9244 15.8977 63.8494 13.8059 70.0994C13.4121 71.1994 13.2891 71.3494 12.0586 71.8744C11.3204 72.1744 10.0407 72.8244 9.22855 73.3244L7.7766 74.2494L6.93988 73.4244C6.49691 72.9994 5.73402 71.8244 5.26645 70.8494C1.9934 64.1494 6.4723 56.1244 13.7813 55.5744C16.9805 55.3244 17.5219 54.6994 17.0051 51.8744C16.1684 47.1994 17.325 43.3994 20.5489 40.1244C23.0836 37.5244 26.0121 36.2494 29.4082 36.2494C31.8692 36.2494 33.4196 36.7244 36.6188 38.4744C38.5875 39.5494 39.4981 38.8244 40.1379 35.6744C41.2946 29.8244 45.2813 25.5244 51.0399 23.8494C52.9102 23.3244 57.5368 23.5494 59.284 24.2494ZM69.6446 32.4994C76.0676 33.8244 81.5555 37.7994 84.9516 43.5494C86.9696 46.9994 88.0278 50.7744 88.2 55.2244C88.2739 57.4994 88.3477 57.8494 88.8645 58.3994C89.5536 59.1494 90.0457 59.1244 93.2696 58.2494C96.1489 57.4494 100.8 57.4244 103.925 58.1994C111.038 59.9744 116.673 64.6744 119.749 71.3994C121.25 74.6744 121.693 76.8994 121.693 81.1244C121.693 84.1744 121.57 85.2494 121.152 86.8994C120.045 91.0494 117.953 94.7244 115.073 97.6494C110.89 101.874 106.214 103.999 99.9141 104.524C97.9207 104.674 82.7122 104.749 56.7246 104.699C18.9739 104.599 16.5129 104.574 15.1348 104.149C10.2129 102.649 6.37387 98.8994 4.77426 93.9994C4.06059 91.8494 4.13441 87.4244 4.89731 85.0244C5.6602 82.6744 7.43207 79.9244 9.13012 78.4494C10.7543 77.0494 13.2645 75.6244 14.8149 75.2494C16.3161 74.8494 16.8082 74.2494 17.4481 71.9994C18.3094 69.0994 19.4907 67.1494 21.8778 64.7494C24.3387 62.2494 26.8981 60.8244 30.1219 60.0994C32.4106 59.5994 36.2743 59.7244 38.243 60.3494C40.0887 60.9494 40.9746 60.8744 41.5899 60.0494C42.0821 59.4494 42.1313 59.1744 42.0082 57.2994C41.836 55.0244 42.1559 51.6744 42.7219 49.3744C42.9188 48.5494 43.7063 46.6244 44.4446 45.0744C47.8653 37.9994 54.0914 33.4244 62.0157 32.1744C63.7875 31.8744 67.4297 32.0494 69.6446 32.4994Z" fill="#313131" fill-opacity="0.39"/>
<path d="M69.6445 32.4994C76.0676 33.8244 81.5554 37.7994 84.9515 43.5494C86.9695 46.9994 88.0277 50.7744 88.2 55.2244C88.2738 57.4994 88.3476 57.8494 88.8644 58.3994C89.5535 59.1494 90.0457 59.1244 93.2695 58.2494C96.1488 57.4494 100.8 57.4244 103.925 58.1994C111.037 59.9744 116.673 64.6744 119.749 71.3994C121.25 74.6744 121.693 76.8994 121.693 81.1244C121.693 84.1744 121.57 85.2494 121.152 86.8994C120.045 91.0494 117.953 94.7244 115.073 97.6494C110.89 101.874 106.214 103.999 99.914 104.524C97.9207 104.674 82.7121 104.749 56.7246 104.699C18.9738 104.599 16.5129 104.574 15.1347 104.149C10.2129 102.649 6.3738 98.8994 4.77419 93.9994C4.06051 91.8494 4.13434 87.4244 4.89723 85.0244C5.66012 82.6744 7.432 79.9244 9.13004 78.4494C10.7543 77.0494 13.2644 75.6244 14.8148 75.2494C16.316 74.8494 16.8082 74.2494 17.448 71.9994C18.3093 69.0994 19.4906 67.1494 21.8777 64.7494C24.3386 62.2494 26.898 60.8244 30.1218 60.0994C32.4105 59.5994 36.2742 59.7244 38.2429 60.3494C40.0886 60.9494 40.9746 60.8744 41.5898 60.0494C42.082 59.4494 42.1312 59.1744 42.0082 57.2994C41.8359 55.0244 42.1558 51.6744 42.7218 49.3744C42.9187 48.5494 43.7062 46.6244 44.4445 45.0744C47.8652 37.9994 54.0914 33.4244 62.0156 32.1744C63.7875 31.8744 67.4297 32.0494 69.6445 32.4994Z" fill="white" fill-opacity="0.87"/>
<path d="M64.2502 26.8014C64.2502 26.1514 61.4694 24.3264 58.8115 23.2764C57.0643 22.5764 52.4377 22.3514 50.5674 22.8764C44.8088 24.5514 40.8221 28.8514 39.6655 34.7014C39.0256 37.8514 38.1151 38.5764 36.1463 37.5014C32.9471 35.7514 31.3967 35.2764 28.9358 35.2764C25.5397 35.2764 22.6112 36.5514 20.0764 39.1514C16.8526 42.4264 15.6959 46.2264 16.5327 50.9014C17.0494 53.7264 16.508 54.3514 13.3088 54.6014C5.99984 55.1514 1.52094 63.1763 4.79398 69.8763C5.26156 70.8513 6.02445 72.0264 6.46742 72.4514L7.30414 73.2764L8.75609 72.3514C9.5682 71.8514 10.8479 71.2014 11.5862 70.9014C12.8166 70.3764 12.9397 70.2264 13.3334 69.1264C15.4252 62.8764 20.3225 57.9514 26.7209 55.7014C28.8619 54.9264 29.0588 54.9013 33.144 54.9013H37.3522L37.4998 52.7514C37.9674 46.0764 40.4776 40.3014 44.9811 35.5014C47.8358 32.4764 50.6905 30.5014 54.5541 28.9514C56.9905 27.9514 61.0756 27.0264 62.9951 27.0264C63.6842 27.0264 64.2502 26.9264 64.2502 26.8014Z" fill="#6E728D" fill-opacity="0.78"/>
</g>
<defs>
<clipPath id="clip0_33_169">
<rect y="-0.000488281" width="126" height="128" rx="13" fill="white"/>
</clipPath>
</defs>
</svg>
