<svg width="185" height="160" viewBox="0 0 185 160" fill="none" xmlns="http://www.w3.org/2000/svg">
<mask id="mask0_5_31" style="mask-type:luminance" maskUnits="userSpaceOnUse" x="0" y="0" width="185" height="160">
<path d="M0 0H185V160H0V0Z" fill="white"/>
</mask>
<g mask="url(#mask0_5_31)">
<path d="M165.415 23.6428C165.021 23.125 164.785 22.5536 164.667 21.9464C164.549 21.3393 164.569 20.7321 164.726 20.125C164.884 19.5178 165.159 18.9643 165.572 18.4821C165.985 17.9821 166.496 17.5714 167.086 17.2678C169.623 16.0536 171.884 15.0714 172.769 15.7678C176.957 19.2678 179.946 23.4643 181.755 28.3571C182.109 29.3214 180.359 31.0536 178.314 32.9643C177.882 33.3928 177.351 33.6964 176.741 33.9107C176.131 34.1071 175.522 34.1785 174.873 34.125C174.224 34.0536 173.634 33.875 173.084 33.5714C172.533 33.25 172.081 32.8393 171.746 32.3393L165.415 23.6428ZM14.4335 133.786C14.0598 133.25 13.5879 132.839 12.998 132.518C12.4081 132.214 11.7591 132.036 11.0709 132.018C10.4023 131.982 9.73374 132.089 9.12415 132.357C8.4949 132.625 7.98364 133 7.55102 133.482C5.87957 135.375 4.52275 137.054 4.9357 138C7.03976 142.75 10.2057 146.821 14.4138 150.214C15.0627 150.75 17.0095 149.804 19.1922 148.625C19.7428 148.304 20.2147 147.893 20.5883 147.393C20.9619 146.893 21.2372 146.357 21.3749 145.768C21.5125 145.179 21.5125 144.589 21.3946 144C21.2766 143.411 21.0209 142.857 20.667 142.357L14.4335 133.786ZM38.5417 121.482C33.9993 115.25 29.4765 109.018 24.9144 102.804C17.2848 92.3036 17.2848 92.3036 6.78412 99.8571C0.648919 104.286 0.137653 107.036 4.48342 113.036C13.3126 125.196 22.3974 137.179 30.971 149.5C41.216 164.232 41.9632 161.732 55.0595 152.607C58.2648 150.375 58.3828 148.446 56.0427 145.411C50.0845 137.536 44.3622 129.482 38.5417 121.482ZM180.458 50.5C171.746 38.4643 162.78 26.5893 154.265 14.4286C144.197 0.0356913 143.43 1.99998 130.058 11.4821C129.41 11.8035 128.859 12.2321 128.426 12.7857C127.994 13.3393 127.738 13.9643 127.64 14.625C127.541 15.3035 127.6 15.9464 127.856 16.5893C128.112 17.2321 128.505 17.7857 129.056 18.25C135.289 26.4464 141.247 34.8571 147.304 43.1786L160.617 61.4464C168.01 71.5893 168.01 71.5893 178.354 64.1607C184.764 59.5893 185.197 57.0357 180.458 50.5ZM64.4983 104.911C57.2816 94.9821 50.0452 85.0714 42.8284 75.1607C33.783 62.7678 33.783 62.7678 21.0996 71.7321C13.8632 76.8571 13.4896 78.875 18.7399 86.0893C33.7436 106.732 48.7867 127.357 63.8297 147.982C73.6225 161.411 73.8191 161.429 87.407 151.304C92.9523 147.179 93.3849 144.625 89.3144 138.982C81.0751 127.607 72.8162 116.25 64.4983 104.911ZM143.174 45.2678C135.958 35.3393 128.721 25.4285 121.485 15.5357C112.636 3.39284 112.636 3.39284 100.228 12.1786C92.5393 17.6071 92.2837 19.1428 97.947 26.8928C112.97 47.5357 128.013 68.1607 143.056 88.7678C152.554 101.786 152.554 101.804 165.631 92.3928C172.022 87.8036 172.474 85.5357 167.991 79.3393C159.751 67.9643 151.473 56.6071 143.174 45.2678ZM114.74 59.625C114.366 59.0893 113.895 58.6428 113.305 58.2678C112.715 57.9107 112.085 57.6786 111.378 57.5536C110.689 57.4464 110.001 57.4643 109.313 57.625C108.625 57.7678 107.995 58.0536 107.445 58.4464L65.3832 87.9643C64.2033 88.8393 63.4954 89.9643 63.2595 91.3393C63.0432 92.6964 63.3381 93.9643 64.1837 95.1071L69.3357 102.196C69.7093 102.75 70.1812 103.196 70.7712 103.554C71.3611 103.929 71.9903 104.161 72.6982 104.268C73.3865 104.393 74.0747 104.357 74.763 104.214C75.4512 104.054 76.0805 103.786 76.6311 103.393L118.693 73.8571C119.872 72.9821 120.58 71.8571 120.797 70.5C121.033 69.125 120.738 67.875 119.892 66.7143L114.74 59.625Z" fill="white"/>
</g>
</svg>
