<svg width="88" height="82" viewBox="0 0 88 82" fill="none" xmlns="http://www.w3.org/2000/svg">
<path d="M84.1474 19.4518C85.1352 16.4829 85.4521 13.3554 85.0781 10.2667C84.7041 7.17791 83.6473 4.19489 81.9744 1.50569C81.6907 1.04784 81.2827 0.66767 80.7913 0.40339C80.2999 0.13911 79.7425 3.98432e-05 79.1752 0.000164745C75.4112 -0.00713548 71.6976 0.805957 68.331 2.37448C64.9644 3.943 62.0382 6.22347 59.7861 9.03368L50.0916 9.03379C47.8396 6.22362 44.9134 3.94322 41.5468 2.37477C38.1803 0.806322 34.4667 -0.00669015 30.7027 0.000691944C30.1354 0.000579384 29.578 0.139661 29.0866 0.403952C28.5952 0.668243 28.1871 1.04843 27.9034 1.50627C26.2305 4.19551 25.1737 7.17856 24.7996 10.2673C24.4255 13.3561 24.7424 16.4835 25.7301 19.4525C23.7335 22.6996 22.6639 26.3697 22.6237 30.1118L22.6236 33.1229C22.6304 38.2177 24.6152 43.1381 28.2116 46.9756C31.8081 50.8131 36.7732 53.3085 42.1901 54.0009C39.979 56.6374 38.7787 59.8877 38.7808 63.2338L38.7807 66.2449L29.0863 66.245C26.5151 66.245 24.0493 65.2933 22.2313 63.5992C20.4132 61.9052 19.3918 59.6075 19.3919 57.2118C19.3919 55.2346 18.974 53.2769 18.162 51.4503C17.3501 49.6237 16.1599 47.964 14.6596 46.566C13.1592 45.1679 11.3781 44.059 9.41775 43.3024C7.45745 42.5458 5.3564 42.1564 3.23457 42.1564C2.37752 42.1564 1.55558 42.4737 0.949546 43.0384C0.343517 43.6031 0.00304885 44.369 0.00304001 45.1676C0.00303117 45.9662 0.343483 46.732 0.949499 47.2967C1.55552 47.8614 2.37746 48.1786 3.2345 48.1786C5.80564 48.1786 8.27146 49.1303 10.0895 50.8243C11.9076 52.5184 12.9289 54.8161 12.9289 57.2118C12.9288 61.2048 14.6311 65.0342 17.6612 67.8576C20.6913 70.6811 24.801 72.2672 29.0862 72.2672L38.7807 72.2671L38.7806 78.2893C38.7806 79.0879 39.1211 79.8537 39.7271 80.4184C40.3331 80.9831 41.155 81.3003 42.0121 81.3003C42.8691 81.3003 43.6911 80.9831 44.2971 80.4184C44.9031 79.8537 45.2436 79.0878 45.2436 78.2892L45.2438 63.2337C45.2438 60.8379 46.2652 58.5402 48.0833 56.8461C49.9014 55.152 52.3672 54.2003 54.9383 54.2003C57.5095 54.2002 59.9753 55.1519 61.7934 56.846C63.6114 58.54 64.6328 60.8377 64.6327 63.2335L64.6326 78.289C64.6326 79.0876 64.973 79.8535 65.579 80.4182C66.185 80.9828 67.007 81.3001 67.864 81.3001C68.7211 81.3 69.543 80.9828 70.1491 80.4181C70.7551 79.8534 71.0955 79.0875 71.0956 78.2889L71.0957 63.2334C71.0978 59.8874 69.8977 56.6371 67.6866 54.0006C73.1036 53.3081 78.0687 50.8126 81.6652 46.975C85.2617 43.1375 87.2467 38.217 87.2535 33.1222L87.2536 30.1111C87.2134 26.369 86.1439 22.699 84.1474 19.4518ZM80.7905 33.1223C80.7905 37.1152 79.0882 40.9447 76.058 43.7682C73.0279 46.5917 68.9181 48.1779 64.6329 48.178L45.2439 48.1782C40.9587 48.1782 36.849 46.5921 33.8189 43.7686C30.7888 40.9452 29.0866 37.1158 29.0866 33.1228L29.0867 30.1117C29.1263 27.1007 30.0938 24.1637 31.8739 21.6505C32.2058 21.2429 32.4207 20.7633 32.4984 20.2569C32.5762 19.7505 32.5142 19.234 32.3183 18.7561C31.4766 16.7334 31.0715 14.5758 31.1263 12.4069C31.1811 10.2381 31.6946 8.10058 32.6375 6.11697C35.2822 6.38204 37.8289 7.19833 40.0888 8.50534C42.3488 9.81234 44.2641 11.5765 45.6927 13.6672C45.9838 14.0914 46.3844 14.4408 46.858 14.6834C47.3315 14.926 47.8627 15.0541 48.4031 15.056L61.4704 15.0559C62.0129 15.0559 62.5466 14.9287 63.0224 14.6859C63.4982 14.4432 63.9008 14.0928 64.193 13.667C65.6214 11.5761 67.5367 9.81174 69.7967 8.50466C72.0568 7.19759 74.6036 6.38135 77.2483 6.11649C78.1899 8.10057 78.702 10.2383 78.7553 12.4071C78.8087 14.576 78.4022 16.7334 77.5592 18.7556C77.3639 19.2289 77.2985 19.7402 77.3691 20.243C77.4396 20.7459 77.6438 21.2243 77.9631 21.6349C79.7608 24.1482 80.7425 27.0912 80.7906 30.1112L80.7905 33.1223Z" fill="#E2B1A6"/>
</svg>
