<svg width="81" height="79" viewBox="0 0 81 79" fill="none" xmlns="http://www.w3.org/2000/svg">
<path d="M40.1621 21.0813C36.4962 21.0813 32.9127 22.1411 29.8646 24.1266C26.8166 26.1121 24.4409 28.9342 23.038 32.2359C21.6351 35.5376 21.268 39.1708 21.9832 42.6758C22.6983 46.1809 24.4635 49.4005 27.0556 51.9275C29.6477 54.4545 32.9503 56.1754 36.5457 56.8726C40.1411 57.5697 43.8678 57.2119 47.2546 55.8442C50.6415 54.4766 53.5362 52.1606 55.5729 49.1891C57.6095 46.2176 58.6966 42.7241 58.6967 39.1503C58.6916 34.3596 56.7373 29.7665 53.2625 26.379C49.7876 22.9915 45.0762 21.0862 40.1621 21.0813ZM40.1617 51.1967C37.7178 51.1967 35.3288 50.4902 33.2968 49.1666C31.2648 47.843 29.6811 45.9616 28.7459 43.7605C27.8106 41.5594 27.566 39.1373 28.0428 36.8006C28.5196 34.4638 29.6965 32.3174 31.4246 30.6327C33.1527 28.948 35.3544 27.8007 37.7514 27.3359C40.1483 26.871 42.6328 27.1096 44.8906 28.0213C47.1485 28.933 49.0783 30.477 50.436 32.4579C51.7938 34.4389 52.5184 36.7679 52.5184 39.1504C52.5184 42.3452 51.2165 45.4092 48.8992 47.6683C46.5818 49.9274 43.4389 51.1966 40.1617 51.1967ZM58.6971 0.000338195L21.6275 0.000741375C15.8943 0.00678248 10.3977 2.22976 6.34375 6.18192C2.28976 10.1341 0.00950134 15.4926 0.00330666 21.0817L0.00290658 57.2202C0.00897751 62.8093 2.28912 68.1678 6.34302 72.1198C10.3969 76.0719 15.8935 78.2948 21.6266 78.3007L58.6962 78.3003C64.4294 78.2942 69.926 76.0713 73.98 72.1191C78.034 68.167 80.3142 62.8084 80.3204 57.2193L80.3208 21.0809C80.3147 15.4917 78.0346 10.1333 73.9807 6.18119C69.9268 2.22912 64.4303 0.00625459 58.6971 0.000338195ZM74.1422 57.2194C74.1421 61.2129 72.5148 65.0429 69.6181 67.8668C66.7214 70.6907 62.7928 72.2772 58.6963 72.2772L21.6267 72.2776C17.5302 72.2777 13.6016 70.6913 10.705 67.8674C7.8084 65.0436 6.18113 61.2136 6.18118 57.2201L6.18158 21.0817C6.18162 17.0881 7.80897 13.2581 10.7056 10.4342C13.6023 7.61033 17.531 6.02386 21.6274 6.02381L58.697 6.02341C62.7935 6.02337 66.7221 7.60975 69.6187 10.4336C72.5153 13.2574 74.1426 17.0874 74.1426 21.0809L74.1422 57.2194ZM64.8752 19.5753C64.8752 20.4687 64.6034 21.3421 64.0942 22.0849C63.585 22.8278 62.8614 23.4068 62.0147 23.7487C61.168 24.0906 60.2363 24.1801 59.3374 24.0058C58.4386 23.8315 57.6129 23.4013 56.9649 22.7696C56.3169 22.1378 55.8756 21.3329 55.6968 20.4566C55.518 19.5804 55.6098 18.6721 55.9605 17.8467C56.3112 17.0212 56.9051 16.3157 57.6672 15.8193C58.4292 15.323 59.325 15.058 60.2415 15.058C61.4704 15.058 62.649 15.5339 63.518 16.3811C64.387 17.2282 64.8752 18.3772 64.8752 19.5753Z" fill="#E2B1A6"/>
</svg>
