<svg width="233" height="213" viewBox="0 0 233 213" fill="none" xmlns="http://www.w3.org/2000/svg">
<path d="M37.16 139.222L56.4899 128.078C60.2197 134.376 63.6119 139.706 71.7494 139.706C79.5499 139.706 84.4683 136.799 84.4683 125.495L84.4682 48.6122L108.206 48.6122L108.206 125.814C108.206 149.233 93.7943 159.894 72.7671 159.894C53.7774 159.894 42.7557 150.528 37.16 139.222ZM121.1 136.798L140.428 126.139C145.516 134.054 152.129 139.868 163.828 139.869C173.665 139.869 179.936 135.184 179.936 128.723C179.936 120.971 173.493 118.224 162.641 113.703L156.708 111.279C139.581 104.335 128.221 95.6129 128.221 77.2005C128.221 60.2407 141.785 47.3189 162.981 47.3189C178.072 47.3189 188.924 52.3267 196.723 65.4093L178.24 76.7163C174.17 69.7715 169.763 67.0256 162.98 67.0256C156.028 67.0256 151.619 71.2252 151.619 76.7163C151.619 83.4996 156.028 86.247 166.201 90.4466L172.135 92.8687C192.314 101.107 203.674 109.505 203.674 128.4C203.674 148.753 186.887 159.897 164.336 159.897C142.294 159.897 128.051 149.882 121.1 136.798Z" fill="#E2B1A6"/>
</svg>
