<svg width="84" height="79" viewBox="0 0 84 79" fill="none" xmlns="http://www.w3.org/2000/svg">
<path d="M76.7417 0.000140123L6.39839 0.000906859C4.70237 0.000925346 3.07581 0.635435 1.87653 1.76485C0.677249 2.89427 0.00349094 4.42607 0.00347322 6.02329L0.00273821 72.2688C0.00272049 73.866 0.676444 75.3978 1.8757 76.5272C3.07495 77.6566 4.7015 78.291 6.39752 78.291L76.7409 78.2902C78.4369 78.2902 80.0634 77.6557 81.2627 76.5263C82.462 75.3969 83.1358 73.8651 83.1358 72.2679L83.1365 6.02239C83.1365 4.42517 82.4628 2.89338 81.2636 1.76399C80.0643 0.634596 78.4378 0.000121637 76.7417 0.000140123ZM76.7409 72.2679L6.39759 72.2687L6.39832 6.02322L76.7417 6.02246L76.7409 72.2679ZM28.78 33.1234L28.7797 57.2127C28.7797 58.0113 28.4428 58.7772 27.8432 59.3419C27.2436 59.9066 26.4303 60.2238 25.5823 60.2239C24.7343 60.2239 23.921 59.9066 23.3214 59.3419C22.7217 58.7772 22.3849 58.0113 22.3849 57.2127L22.3851 33.1235C22.3852 32.3249 22.722 31.559 23.3217 30.9943C23.9213 30.4295 24.7346 30.1123 25.5826 30.1123C26.4306 30.1123 27.2439 30.4295 27.8435 30.9942C28.4431 31.5589 28.78 32.3248 28.78 33.1234ZM63.9515 43.6621L63.9514 57.2123C63.9514 58.0109 63.6145 58.7768 63.0149 59.3415C62.4152 59.9062 61.6019 60.2235 60.7539 60.2235C59.9059 60.2235 59.0927 59.9062 58.493 59.3416C57.8934 58.7769 57.5565 58.011 57.5565 57.2124L57.5567 43.6621C57.5567 41.6656 56.7146 39.7509 55.2155 38.3391C53.7164 36.9274 51.6832 36.1343 49.5632 36.1343C47.4432 36.1344 45.41 36.9275 43.9109 38.3393C42.4118 39.751 41.5696 41.6658 41.5696 43.6623L41.5694 57.2125C41.5694 58.0111 41.2325 58.777 40.6329 59.3417C40.0333 59.9065 39.22 60.2237 38.372 60.2237C37.524 60.2237 36.7107 59.9065 36.1111 59.3418C35.5114 58.7771 35.1746 58.0112 35.1746 57.2126L35.1748 33.1233C35.1788 32.3858 35.4701 31.6752 35.9935 31.1265C36.5168 30.5777 37.2358 30.229 38.0141 30.1463C38.7924 30.0637 39.5758 30.253 40.2157 30.6782C40.8556 31.1034 41.3075 31.7351 41.4858 32.4533C43.6488 31.0714 46.1706 30.2705 48.7805 30.1366C51.3904 30.0026 53.9897 30.5407 56.2993 31.693C58.6089 32.8454 60.5416 34.5684 61.8897 36.6771C63.2379 38.7858 63.9507 41.2006 63.9515 43.6621ZM30.3788 22.5843C30.3788 23.4777 30.0975 24.3509 29.5705 25.0937C29.0435 25.8365 28.2944 26.4154 27.418 26.7573C26.5417 27.0992 25.5773 27.1886 24.647 27.0143C23.7166 26.8401 22.862 26.4099 22.1913 25.7782C21.5205 25.1466 21.0637 24.3418 20.8787 23.4656C20.6936 22.5894 20.7886 21.6813 21.1517 20.856C21.5147 20.0306 22.1294 19.3252 22.9181 18.8289C23.7069 18.3326 24.6342 18.0677 25.5827 18.0676C26.8548 18.0676 28.0747 18.5435 28.9741 19.3905C29.8735 20.2376 30.3788 21.3864 30.3788 22.5843Z" fill="#E2B1A6"/>
</svg>
