<svg width="162" height="163" viewBox="0 0 162 163" fill="none" xmlns="http://www.w3.org/2000/svg">
<g clip-path="url(#clip0_40_143)">
<mask id="mask0_40_143" style="mask-type:luminance" maskUnits="userSpaceOnUse" x="0" y="0" width="162" height="163">
<path d="M161.025 0.948829L0.886597 0.94873L0.886696 162.711L161.025 162.711L161.025 0.948829Z" fill="white"/>
</mask>
<g mask="url(#mask0_40_143)">
<mask id="mask1_40_143" style="mask-type:luminance" maskUnits="userSpaceOnUse" x="0" y="0" width="162" height="163">
<path d="M161.025 0.948829L0.886597 0.94873L0.886696 162.711L161.025 162.711L161.025 0.948829Z" fill="white"/>
</mask>
<g mask="url(#mask1_40_143)">
<path d="M77.7534 162.711C64.1629 162.711 51.1284 157.257 41.5185 147.55C31.9083 137.842 26.5094 124.676 26.5093 110.947C26.5093 97.2186 31.9082 84.0519 41.5185 74.3442C51.1284 64.6369 64.1628 59.1831 77.7533 59.1831L77.7534 162.711ZM77.7533 0.948762L26.5093 0.94873L26.5093 52.7126L77.7533 52.7126L77.7533 0.948762ZM109.781 52.7126C116.576 52.7126 123.094 49.9857 127.899 45.1321C132.704 40.2782 135.403 33.695 135.403 26.8307C135.403 19.9664 132.704 13.3832 127.899 8.52941C123.094 3.67563 116.576 0.948786 109.781 0.948782C102.985 0.948778 96.4687 3.67561 91.6633 8.52938C86.8584 13.3832 84.1588 19.9664 84.1589 26.8307C84.1589 33.695 86.8584 40.2782 91.6633 45.132C96.4687 49.9857 102.986 52.7126 109.781 52.7126Z" fill="#E2B1A6"/>
</g>
</g>
</g>
<defs>
<clipPath id="clip0_40_143">
<rect width="160.138" height="161.762" fill="white" transform="matrix(1 6.15117e-07 6.14461e-07 1 0.886597 0.94873)"/>
</clipPath>
</defs>
</svg>
