<svg width="186" height="167" viewBox="0 0 186 167" fill="none" xmlns="http://www.w3.org/2000/svg">
<path d="M93.0411 100.229C102.294 100.229 109.794 92.694 109.794 83.3997C109.794 74.1054 102.294 66.5708 93.0411 66.5708C83.7885 66.5708 76.2878 74.1053 76.2878 83.3996C76.2878 92.694 83.7885 100.228 93.0411 100.229Z" fill="#E2B1A6"/>
<path fill-rule="evenodd" clip-rule="evenodd" d="M62.2675 7.49347C56.9102 5.75253 52.6994 5.99548 49.5876 7.80016C46.4758 9.60483 44.1609 13.1465 42.9832 18.6775C41.8057 24.2075 41.8523 31.3894 43.1959 39.8138C43.7636 43.373 44.5581 47.1249 45.5742 51.0309C53.6755 49.1336 62.5779 47.7117 72.0259 46.8558C77.491 39.0594 83.1715 32.0217 88.8611 25.92C86.003 23.0847 83.167 20.519 80.3837 18.2467C73.7925 12.8656 67.6239 9.23412 62.2675 7.49347ZM93.0411 21.6069C90.0626 18.6542 87.0955 15.9707 84.1695 13.5819C77.2475 7.93069 70.4283 3.82439 64.1231 1.77541C57.8189 -0.273267 51.6944 -0.357645 46.5977 2.59818C41.501 5.554 38.5115 10.9241 37.1256 17.4327C35.7396 23.9422 35.8702 31.9276 37.2813 40.7748C37.878 44.5163 38.7085 48.441 39.7656 52.5103C35.7268 53.6258 31.9261 54.8662 28.4004 56.2185C20.0653 59.4153 13.114 63.2953 8.1941 67.7566C3.27383 72.2182 0.144853 77.4997 0.144857 83.3996C0.144861 89.2994 3.27384 94.5809 8.19412 99.0425C13.114 103.504 20.0654 107.384 28.4005 110.581C31.9266 111.933 35.7279 113.174 39.7673 114.289C38.7096 118.361 37.8786 122.287 37.2816 126.03C35.8705 134.877 35.7399 142.863 37.126 149.372C38.5119 155.881 41.5014 161.251 46.5981 164.207C51.6947 167.163 57.8192 167.078 64.1235 165.03C70.4287 162.981 77.2479 158.874 84.1699 153.223C87.0958 150.835 90.0628 148.151 93.0411 145.199C96.0193 148.151 98.9861 150.834 101.912 153.223C108.834 158.874 115.653 162.98 121.958 165.029C128.262 167.078 134.387 167.162 139.484 164.206C144.58 161.251 147.57 155.88 148.956 149.372C150.342 142.862 150.211 134.877 148.8 126.03C148.203 122.287 147.372 118.36 146.314 114.289C150.354 113.174 154.155 111.933 157.681 110.581C166.016 107.384 172.968 103.504 177.888 99.0427C182.808 94.581 185.937 89.2995 185.937 83.3997C185.937 77.4998 182.808 72.2183 177.887 67.7567C172.968 63.2954 166.016 59.4154 157.681 56.2185C154.156 54.8663 150.355 53.6259 146.316 52.5104C147.373 48.4413 148.204 44.5167 148.8 40.7755C150.211 31.9282 150.342 23.9429 148.956 17.4333C147.57 10.9247 144.58 5.55466 139.484 2.59883C134.387 -0.356995 128.263 -0.272625 121.958 1.77605C115.653 3.82501 108.834 7.93131 101.912 13.5825C98.9862 15.9711 96.0193 18.6544 93.0411 21.6069ZM93.041 30.2431C88.6154 35.007 84.1728 40.3837 79.8255 46.2862C84.1441 46.0454 88.5567 45.921 93.0408 45.921C97.525 45.921 101.938 46.0454 106.257 46.2863C101.909 40.3837 97.4667 35.007 93.041 30.2431ZM67.6495 53.3348C60.3852 54.1657 53.5271 55.3426 47.2062 56.8112C49.1004 63.0442 51.5146 69.5985 54.43 76.3329C56.381 72.4571 58.4792 68.5578 60.7204 64.6585C62.9645 60.754 65.2802 56.9743 67.6495 53.3348ZM57.6452 83.4028C60.1186 78.213 62.8764 72.9478 65.9107 67.6686C68.948 62.3842 72.1116 57.3477 75.3526 52.5971C81.0605 52.1542 86.9756 51.921 93.0408 51.921C99.1061 51.921 105.021 52.1543 110.729 52.5971C113.97 57.3476 117.134 62.3839 120.171 67.668C123.205 72.9474 125.963 78.2129 128.437 83.4029C125.963 88.5926 123.205 93.8579 120.171 99.1371C117.135 104.419 113.973 109.453 110.734 114.202C105.024 114.645 99.1077 114.878 93.0408 114.878C86.974 114.878 81.0574 114.645 75.3481 114.202C72.1086 109.453 68.9464 104.419 65.9104 99.1365C62.8763 93.8575 60.1185 88.5924 57.6452 83.4028ZM51.0211 83.4028C47.0318 74.7492 43.8047 66.2877 41.3893 58.2864C37.521 59.354 33.8957 60.537 30.5491 61.8206C22.6162 64.8631 16.4026 68.4126 12.2245 72.2013C8.04685 75.9896 6.14485 79.7784 6.14486 83.3996C6.14486 87.0207 8.04686 90.8095 12.2245 94.5978C16.4027 98.3865 22.6162 101.936 30.5491 104.979C33.8963 106.262 37.5222 107.445 41.3912 108.513C43.8063 100.514 47.0329 92.0543 51.0211 83.4028ZM47.2082 109.988C49.102 103.757 51.5156 97.205 54.43 90.4727C56.3809 94.3483 58.4791 98.2475 60.7202 102.147C62.963 106.049 65.2773 109.826 67.6451 113.464C60.3832 112.633 53.5273 111.457 47.2082 109.988ZM45.5759 115.769C44.5591 119.677 43.7642 123.43 43.1963 126.991C41.8526 135.416 41.806 142.598 42.9836 148.128C44.1613 153.659 46.4762 157.2 49.588 159.005C52.6997 160.81 56.9106 161.053 62.2679 159.312C67.6243 157.571 73.7929 153.939 80.384 148.558C83.1673 146.286 86.0032 143.721 88.8611 140.885C83.1699 134.782 77.4878 127.742 72.0213 119.943C62.5757 119.087 53.6754 117.665 45.5759 115.769ZM97.2211 140.885C100.079 143.72 102.915 146.286 105.698 148.558C112.289 153.939 118.457 157.57 123.814 159.311C129.171 161.052 133.382 160.809 136.494 159.004C139.606 157.2 141.92 153.658 143.098 148.127C144.276 142.597 144.229 135.415 142.885 126.991C142.317 123.43 141.523 119.676 140.506 115.769C132.406 117.665 123.506 119.087 114.061 119.943C108.594 127.742 102.912 134.782 97.2211 140.885ZM106.261 120.513C101.913 126.418 97.4684 131.797 93.0411 136.562C88.6138 131.797 84.1696 126.418 79.8207 120.513C84.1409 120.754 88.5551 120.878 93.0408 120.878C97.5267 120.878 101.941 120.754 106.261 120.513ZM118.437 113.464C125.699 112.633 132.555 111.457 138.874 109.988C136.98 103.757 134.566 97.2051 131.652 90.4728C129.701 94.3486 127.603 98.2479 125.361 102.147C123.119 106.049 120.805 109.827 118.437 113.464ZM135.061 83.4029C139.049 92.0543 142.275 100.514 144.691 108.513C148.56 107.446 152.185 106.262 155.533 104.979C163.465 101.936 169.679 98.3866 173.857 94.5979C178.035 90.8096 179.937 87.0208 179.937 83.3997C179.937 79.7785 178.035 75.9897 173.857 72.2014C169.679 68.4127 163.465 64.8632 155.533 61.8206C152.186 60.5371 148.561 59.3541 144.692 58.2865C142.277 66.2877 139.05 74.7493 135.061 83.4029ZM140.508 51.031C132.406 49.1337 123.504 47.7118 114.056 46.8558C108.591 39.0594 102.911 32.0217 97.221 25.92C100.079 23.085 102.915 20.5195 105.698 18.2473C112.289 12.8663 118.458 9.23475 123.814 7.49411C129.171 5.75317 133.382 5.99613 136.494 7.80081C139.606 9.60549 141.921 13.1472 143.098 18.6781C144.276 24.2081 144.229 31.3901 142.886 39.8145C142.318 43.3735 141.524 47.1252 140.508 51.031ZM138.875 56.8113C136.981 63.0443 134.567 69.5985 131.652 76.3329C129.701 72.4569 127.602 68.5574 125.361 64.6579C123.117 60.7537 120.802 56.9742 118.433 53.3348C125.697 54.1658 132.555 55.3427 138.875 56.8113Z" fill="#E2B1A6"/>
</svg>
