<svg width="177" height="159" viewBox="0 0 177 159" fill="none" xmlns="http://www.w3.org/2000/svg">
<g clip-path="url(#clip0_40_4)">
<mask id="mask0_40_4" style="mask-type:luminance" maskUnits="userSpaceOnUse" x="0" y="5" width="177" height="149">
<path d="M176.647 5.88878L0.895386 5.88867L0.895477 153.952L176.647 153.952L176.647 5.88878Z" fill="white"/>
</mask>
<g mask="url(#mask0_40_4)">
<path d="M152.112 90.9997L152.837 90.9875C157.418 90.9875 161.751 92.1842 165.596 94.3191L165.426 94.2326C168.846 96.0883 171.767 98.93 173.889 102.468L173.938 102.555C175.786 105.6 176.7 109.238 176.542 112.919L176.542 112.882C176.465 114.583 176.085 116.249 175.427 117.783C174.769 119.317 173.845 120.688 172.708 121.815L172.697 121.828C171.472 123.18 170.001 124.221 168.386 124.882L168.303 124.912C167.388 125.118 166.885 124.963 166.793 124.45C166.702 123.935 167.114 123.37 168.029 122.753C170.511 121.062 172.307 118.336 172.961 115.122L172.978 115.041C173.12 112.899 172.74 110.753 171.879 108.835L171.906 108.903C170.754 106.175 168.971 103.844 166.744 102.154L166.689 102.117C163.247 99.6497 159.319 98.1691 155.249 97.8043L155.161 97.7984C149.332 96.8665 143.388 97.6424 137.904 100.05L138.135 99.9577C138.931 102.049 139.431 104.473 139.502 107.015L139.502 107.046C139.463 109.523 138.865 111.947 137.765 114.094C136.665 116.241 135.099 118.04 133.214 119.323L133.153 119.36C131.45 120.717 129.506 121.908 127.436 122.833L127.244 122.907C125.742 123.72 124.08 124.09 122.416 123.981L122.443 123.981C118.969 123.162 118.145 119.769 119.972 113.801C120.768 111.204 121.883 108.952 123.295 106.972L123.262 107.015C125.069 104.362 127.051 102.036 129.243 99.9759L129.303 99.9206L128.765 99.02C127.698 96.9494 126.805 94.7731 126.096 92.5174L126.019 92.2335C125.47 90.1768 125.012 88.2256 124.646 86.3785L124.371 84.2196L121.625 90.0742C119.245 95.0096 116.957 99.3263 114.76 103.024L113.936 104.566C114.859 107.083 115.54 110.001 115.847 113.049L115.858 113.203C116.01 115.582 115.614 117.965 114.708 120.121C113.801 122.278 112.416 124.136 110.685 125.517L110.646 125.548C108.981 126.689 107.257 127.719 105.483 128.633L105.154 128.787C103.08 129.783 100.865 130.357 98.6127 130.483L98.5631 130.483C97.0323 130.603 95.4998 130.275 94.1141 129.533L94.1693 129.558C93.6252 129.038 93.2501 128.331 93.1018 127.546C92.9538 126.761 93.0413 125.944 93.351 125.221L93.3401 125.245C95.537 121.785 97.7009 118.774 100.002 115.899L99.9308 115.991L105.972 107.361L104.879 104.585C103.931 102.604 103.129 100.538 102.484 98.4087L102.407 98.1126C101.858 96.0567 101.401 94.1046 101.035 92.2584L100.76 90.099L98.0137 97.5022C95.821 103.256 93.8069 108.19 91.9724 112.302C89.2374 118.471 86.9491 123.202 85.1072 126.491L84.5578 127.417C82.3648 131.32 80.2593 133.272 78.2416 133.272C76.2247 133.272 74.8567 131.832 74.1392 128.953C73.58 126.647 73.2991 124.267 73.3044 121.877L73.3097 121.21L73.3097 121.242L73.8587 116.923L73.8587 117.232C72.3944 121.135 70.93 124.732 69.4653 128.021C68.5735 130.003 67.5394 131.899 66.3731 133.691L66.4445 133.574C65.313 134.906 63.7203 135.733 61.9575 135.733L61.9136 135.733C61.798 135.745 61.6661 135.745 61.5343 135.745C60.2007 135.747 58.9142 135.191 57.9262 134.185L57.9314 134.191C55.9834 131.945 54.5798 129.175 53.8561 126.146L53.829 126.017C52.7499 122.576 52.2778 118.932 52.4392 115.288L52.4392 115.35C52.8733 110.439 53.7464 105.942 55.0262 101.654L54.9106 102.092L45.0305 108.57L45.0305 108.878C46.8327 113.132 47.5888 117.85 47.2215 122.543L47.2274 122.444C46.9614 128.545 45.2284 134.451 42.2129 139.533L42.2843 139.41C39.2691 144.829 34.8272 149.058 29.5752 151.514L29.3939 151.588C26.2367 153.154 22.8218 153.957 19.3706 153.945C17.0748 153.945 14.845 153.599 12.736 152.945L12.9117 152.989C11.2075 152.353 9.76074 151.056 8.83097 149.33L8.81449 149.293C7.48387 147.111 6.71773 144.557 6.60114 141.915L6.60114 141.878C6.25374 138.134 6.84138 134.354 8.29822 130.964L8.2488 131.088C11.3243 125.153 15.7039 120.204 20.9688 116.713L21.1336 116.615C25.0622 113.581 29.1874 110.881 33.4746 108.539L34.0568 108.249L35.4299 107.324C33.7822 105.884 30.7615 103.416 26.3677 99.9205C20.8266 95.7744 15.552 91.1958 10.583 86.2182L10.7203 86.354C6.01121 81.8229 2.67025 75.761 1.15827 69.0057L1.11433 68.7716C0.482406 64.3956 1.17469 59.908 3.08055 56.0256L3.03661 56.131C5.97772 48.947 10.264 42.5605 15.6028 37.407L15.6687 37.3453C21.3827 31.287 27.7745 26.0899 34.6829 21.8851L35.1607 21.6198C41.8676 17.3236 48.9061 13.7164 56.1907 10.8421L57.1243 10.5213C64.6946 7.47294 72.6766 5.91394 80.719 5.9128L80.7299 5.9128C87.7487 5.66406 94.7155 7.34562 101.024 10.8112L100.771 10.6817C105.714 13.2111 109.416 17.9738 110.898 23.7976L110.931 23.9457C112.22 29.8145 111.764 35.9953 109.635 41.5466L109.696 41.3678C107.463 47.5288 104.1 53.0928 99.826 57.6981L99.8098 57.7163C95.5433 62.4685 90.4655 66.2037 84.8819 68.6974L84.5796 68.8151C78.2585 71.8123 71.5012 73.4828 64.643 73.7442L64.5386 73.7505C60.2169 74.2725 55.8459 73.8322 51.676 72.455L51.9119 72.5226C49.3737 71.6287 47.0281 70.152 45.0245 68.1857L45.0467 68.2039C43.6899 66.9672 42.5788 65.4242 41.7844 63.6759L41.7513 63.5957C41.2023 61.9501 41.1566 60.9736 41.6142 60.6653C42.0719 60.3565 42.3921 60.3052 42.5752 60.5109L43.9482 62.0535C45.4808 63.651 47.3093 64.9098 49.3304 65.7117L49.4405 65.7488C52.2195 66.8346 55.4269 67.4636 58.7609 67.4636C59.8316 67.4636 60.8861 67.402 61.9245 67.2725L61.7979 67.2851C70.304 66.1922 78.4613 62.8685 85.6123 57.5805L85.4095 57.7226C91.1534 53.9113 95.9377 48.5182 99.31 42.0524L99.4088 41.8428C101.062 39.116 102.051 35.7475 102.051 32.12C102.051 29.8929 101.677 27.7583 100.996 25.7964L101.034 25.9137C100.017 24.0892 98.6653 22.5286 97.0699 21.3353C95.474 20.1419 93.6712 19.3431 91.7801 18.9917L91.7035 18.9793C85.6674 17.3797 79.3977 17.2388 73.3096 18.566L73.5842 18.5167C64.8117 20.2493 56.3211 23.4541 48.3968 28.0235L48.897 27.7582C26.386 40.5082 14.7625 53.5646 14.0266 66.9273L14.0266 67.2294C14.0266 72.6153 15.9104 77.5073 18.9806 81.1224L18.9751 81.1165C22.4368 85.4478 26.3245 89.3239 30.5637 92.6714L30.7779 92.8317C34.4758 95.9232 37.9604 99.3239 41.2023 103.005L41.2076 103.018L41.757 103.634L59.3321 92.8443C61.2833 89.6533 63.714 86.8685 66.5162 84.6144L66.6037 84.5465C68.8006 82.4736 71.5908 81.1225 74.6496 80.8508L74.6995 80.8449C74.8092 80.8327 74.9354 80.8327 75.0672 80.8327C77.1161 80.8327 78.8736 82.2205 79.6315 84.2069L79.6424 84.244C80.4473 86.2972 80.7303 88.5608 80.4607 90.7837L80.4663 90.7221L79.9334 93.7635L80.7573 93.1468C81.2445 92.731 81.8224 92.47 82.4298 92.3907C83.0375 92.3117 83.653 92.4167 84.2119 92.6963L84.1901 92.6836C84.8038 92.8605 85.3314 93.3008 85.6594 93.9096C85.987 94.5192 86.0886 95.2485 85.9417 95.941L85.9476 95.9228L85.1237 99.3161C83.4762 106.714 82.3792 112.06 81.8336 115.35C81.4807 116.764 81.3433 118.234 81.4273 119.699L81.4273 119.662C81.5191 120.896 81.6561 121.513 81.8393 121.513C82.0228 121.513 82.3869 120.896 82.9321 119.662L83.756 117.503C83.9392 117.503 83.9392 117.606 83.756 117.812L86.7765 110.717C93.9166 93.0398 97.7595 83.1685 98.3051 81.1043L99.9529 75.2493C100.136 74.8383 100.868 74.4292 102.15 74.0218C103.683 73.5685 105.266 73.3604 106.851 73.405L106.834 73.405C109.398 73.405 110.679 74.1244 110.679 75.5644L110.404 77.1066C109.711 79.2983 109.144 81.5386 108.707 83.8121L108.647 84.2014C108.37 86.2905 108.421 88.4174 108.795 90.4876L108.778 90.3703L109.053 91.5978C109.613 94.171 110.465 96.4286 111.58 98.4893L111.525 98.3843C113.718 94.2756 115.824 90.0619 117.841 85.7436C119.434 82.7634 120.916 79.3086 122.109 75.6935L122.234 75.2616C122.647 72.936 123.119 70.9745 123.696 69.0619L123.608 69.4074C123.791 68.7902 124.573 68.3275 125.953 68.0191C127.26 67.723 128.759 67.5564 130.292 67.5564L130.49 67.5564L130.479 67.5564C133.042 67.5564 134.409 68.2762 134.581 69.7157L134.032 70.9433C133.378 73.0162 132.807 75.5083 132.423 78.0688L132.39 78.3464C132.218 80.4533 132.318 82.5771 132.687 84.6515L132.665 84.5098L132.665 85.7373C133.296 88.4269 134.235 90.79 135.466 92.9304L135.41 92.8317L136.234 94.9911C141.122 92.333 146.485 90.9614 151.915 90.9811L152.129 90.9811L152.118 90.9811L152.112 90.9997ZM34.3644 135.745C38.3298 131.154 40.5447 125.005 40.5376 118.607C40.539 116.103 40.2019 113.613 39.5379 111.223L39.5819 111.395L35.1882 114.48C30.7066 117.349 26.829 120.551 23.3195 124.191L23.3634 124.147C20.6661 126.926 18.7256 130.507 17.7669 134.474L17.7339 134.629C16.9101 138.433 17.322 140.901 18.9696 142.032C19.9747 142.55 21.1556 142.852 22.3913 142.852C23.7424 142.852 25.0221 142.494 26.148 141.853L26.0986 141.878C29.2449 140.609 32.0674 138.495 34.3204 135.721L34.3369 135.702L34.3644 135.745ZM71.1458 107.342C72.0615 104.669 73.0682 101.481 74.1666 97.7797C75.6314 92.8443 76.1351 89.9672 75.677 89.1491C75.2194 88.3302 74.3498 88.2275 73.0682 88.8403C71.5887 89.6386 70.2818 90.79 69.2403 92.2149L69.2234 92.2394C68.0406 93.9277 66.9721 95.714 66.0269 97.5819L65.9281 97.792C64.7664 99.9462 63.8581 102.26 63.2261 104.677L63.1769 104.886C61.8974 108.858 61.3389 113.076 61.5343 117.293L61.5343 117.219C61.7175 121.328 62.3031 123.539 63.2918 123.851C64.2803 124.164 65.4251 122.673 66.7246 119.378C67.9823 116.83 69.1025 113.869 69.9374 110.766L70.0143 110.433C70.5602 108.977 70.9335 107.947 71.1349 107.342L71.1458 107.342ZM101.606 123.691C103.498 122.75 105.132 121.259 106.338 119.37C107.545 117.481 108.279 115.265 108.466 112.95L108.471 112.901L108.471 112.592L105.45 116.911L99.9638 123.697C99.9217 123.733 99.8872 123.78 99.8637 123.833C99.8398 123.887 99.8271 123.946 99.8261 124.005C99.8261 124.129 99.8812 124.24 99.9579 124.314C100.134 124.515 100.683 124.309 101.606 123.697L101.606 123.691ZM125.217 117.83C127.269 117.183 129.076 115.801 130.364 113.894C131.653 111.988 132.353 109.662 132.357 107.268L132.357 107.028L132.357 107.04C132.302 105.806 132.104 104.646 131.78 103.548L131.802 103.64C129.666 105.775 127.914 108.329 126.645 111.21L126.584 111.352C124.933 115.05 124.472 117.205 125.2 117.818L125.217 117.83Z" fill="#E2B1A6"/>
</g>
</g>
<defs>
<clipPath id="clip0_40_4">
<rect width="175.752" height="157.934" fill="white" transform="matrix(1 6.15117e-07 6.14461e-07 1 0.895386 0.953125)"/>
</clipPath>
</defs>
</svg>
