<svg width="211" height="101" viewBox="0 0 211 101" fill="none" xmlns="http://www.w3.org/2000/svg">
<path d="M141.986 0.780974L141.33 4.51043C140.316 11.5779 140.683 13.5998 143.465 16.2231L146.152 18.6455L143.37 32.1699C141.707 40.2389 139.669 47.0013 138.374 49.2234C137.262 51.1405 135.968 53.9641 135.688 55.4806C135.224 57.2924 133.649 59.1145 131.244 60.726C129.117 62.0421 124.944 65.5713 121.987 68.404C119.624 70.7216 117.997 72.1425 117.114 72.7531L114.226 75.2425C113.484 76.4425 112.926 77.7667 112.573 79.1625C112.372 80.1828 112.485 80.8604 112.783 81.356C113.072 81.8333 113.57 82.1669 114.253 82.3769C115.061 82.583 115.892 82.6568 116.72 82.5962C118.593 82.4565 120.447 82.0983 122.249 81.5278C122.862 81.347 123.343 81.1753 123.763 81.0225C124.41 80.1544 125.907 78.5143 128.558 75.6621C135.592 68.0991 138.278 63.9593 135.504 65.0752C134.48 65.4758 134.944 64.4652 136.703 62.4428C140.412 58.5039 142.538 52.5524 146.983 33.8868C150.5 19.1509 150.5 18.9414 153.089 18.9415C154.306 18.9415 157.744 19.1704 157.744 19.1704L157.744 0.78116L149.852 0.781067L141.986 0.780974ZM175.575 30.9685C175.015 30.9685 174.088 31.8841 173.536 32.8953C172.522 34.7077 173.72 35.8139 188.996 46.2105C198.07 52.4769 205.384 57.818 205.2 58.2283C205.016 58.5236 197.606 63.7792 188.726 69.8354C172.61 80.7272 172.522 80.8325 174.001 83.0546C175.856 85.6774 174.001 86.5838 194.92 72.3535L210.108 61.757L210.108 53.7836L193.161 42.3763C184.001 36.119 176.039 31.0738 175.575 30.9685ZM34.8445 32.0828C34.3808 32.0828 26.4191 37.2331 17.2588 43.3849L0.128068 54.7923L0.12816 62.7657L17.1629 74.3732C26.6121 80.7255 34.574 85.9813 34.9414 85.9813C35.3089 85.9813 36.0525 85.0657 36.7962 83.9589C37.9074 82.0418 36.9712 81.2315 21.3275 70.4343C6.42754 60.238 4.85267 58.8268 6.34 57.7201C7.26742 57.0145 14.3017 52.2647 21.896 47.1241C39.2104 35.5164 38.283 36.3176 36.8919 33.8952C36.3407 32.8937 35.4045 31.9878 34.8533 32.0828L34.8445 32.0828ZM110.823 32.3034C108.268 32.2839 102.773 36.5284 86.3249 51.1685C85.6163 53.0095 85.5549 54.2782 85.8788 55.0983C86.0888 55.6608 86.4736 56.0523 87.0074 56.3384C87.5324 56.6246 88.2148 56.7962 88.9671 56.8626C90.4632 57.0057 92.2307 56.7482 93.657 56.4432L94.6192 56.2046C94.9489 55.7233 95.3814 55.3365 95.8791 55.0795C96.8938 54.4689 101.155 50.2342 105.416 45.6944C112.914 37.4155 114.672 33.6769 111.618 32.4654C111.368 32.3567 111.101 32.3017 110.831 32.3034L110.823 32.3034ZM130.036 38.055C127.787 38.1213 123.736 40.9637 116.798 47.0011C113.316 50.0815 111.112 51.7411 109.93 52.0844L105.346 56.033C103.622 59.4666 103.369 61.5937 103.823 62.7669C103.937 63.0565 104.103 63.318 104.31 63.5378C104.517 63.7569 104.762 63.9292 105.031 64.0448C105.699 64.3327 106.412 64.4786 107.13 64.474C108.848 64.454 110.555 64.1816 112.205 63.6637C113.065 63.412 113.915 63.119 114.751 62.7859L115.005 62.6715L115.469 62.4048C116.343 61.1744 118.356 58.8568 120.876 56.186C128.837 47.8121 132.905 41.8606 132.074 39.6379C131.698 38.5603 131.051 38.0166 130.036 38.055ZM108.828 48.3555C108.18 48.4316 106.728 49.6523 104.112 52.1513C100.332 55.7949 96.2114 57.8928 94.7856 56.9583C94.4539 57.0395 94.1216 57.1162 93.7882 57.1872C92.3357 57.5019 90.5246 57.7594 88.9062 57.6163C88.1434 57.5659 87.3959 57.3622 86.7014 57.0154C86.0463 56.6886 85.5234 56.1118 85.2315 55.3942C84.9076 54.5357 84.9076 53.4673 85.2751 52.1036L79.5883 57.1967L66.7182 68.8039L66.7185 87.6218L108.889 51.4074C108.881 51.0109 108.928 50.6154 109.029 50.2343C109.353 48.9564 109.335 48.3075 108.828 48.3647L108.828 48.3555ZM126.973 54.4504C126.335 54.4504 125.267 55.4324 123.561 57.4067C121.243 60.1061 117.595 62.7196 115.661 63.2535L115.364 63.4251C115.046 63.5682 114.725 63.7015 114.401 63.8257C113.876 64.0163 113.194 64.2452 112.406 64.4741C110.831 64.9416 108.872 65.3708 107.122 65.3233C106.297 65.3221 105.48 65.147 104.716 64.8082C103.995 64.4843 103.419 63.8691 103.106 63.0914C102.599 61.7654 102.8 59.9055 103.911 57.2634L66.7096 89.2053L66.7097 100.698L83.0535 100.698L117.717 71.0175C118.619 69.9302 119.974 68.4423 121.803 66.5824C126.703 61.6324 127.813 59.9247 127.813 57.3976C127.813 55.4324 127.612 54.4407 126.973 54.4407L126.973 54.4504ZM135.224 73.0492L132.258 76.2728C130.596 77.9896 127.63 80.1069 125.601 81.0128L125.198 81.2039L125.172 81.2514L125.084 81.347C125.005 81.4134 124.971 81.4231 124.909 81.4517C124.099 81.7859 123.276 82.0818 122.442 82.3387C120.588 82.927 118.681 83.2943 116.755 83.4357C115.844 83.4992 114.93 83.4122 114.043 83.1781C113.273 82.9933 112.593 82.504 112.136 81.8047C111.716 81.0985 111.593 80.1542 111.829 78.9908C112.017 78.1622 112.296 77.3616 112.66 76.6062L84.6892 100.698L121.891 100.699L126.336 95.1478C132.442 87.3845 135.224 81.8335 135.224 77.0837L135.224 73.0492Z" fill="#E2B1A6"/>
</svg>
