<svg width="197" height="201" viewBox="0 0 197 201" fill="none" xmlns="http://www.w3.org/2000/svg">
<path d="M146.658 52.4598C151.864 53.6968 156.596 56.4816 160.254 60.4624C162.27 62.617 164.02 65.015 165.465 67.6035C165.533 67.8843 156.083 74.3691 150.352 77.9866C150.144 78.13 149.318 77.2119 148.383 75.8C147.336 73.9618 145.849 72.4244 144.063 71.3319C142.277 70.2393 140.249 69.6271 138.168 69.5526C131.581 69.0903 127.336 72.6138 127.367 78.5049C127.31 79.9523 127.633 81.3887 128.302 82.6656C129.752 85.7269 132.443 87.5636 140.896 91.306C156.456 98.1467 163.135 102.657 167.258 109.067C169.588 113.117 171.023 117.639 171.462 122.315C171.902 126.991 171.335 131.708 169.802 136.137C167.695 140.994 164.353 145.186 160.124 148.279C155.895 151.371 150.933 153.251 145.753 153.723C140.246 154.369 134.682 154.31 129.19 153.548C120.776 152.137 113.026 148.012 107.073 141.778C104.823 139.191 102.919 136.311 101.409 133.213C102.044 132.731 102.712 132.296 103.409 131.914C104.375 131.352 108.033 129.203 111.482 127.159L117.746 123.411L119.054 125.36C121.259 128.58 124.065 131.324 127.312 133.432C130.59 135.269 134.304 136.139 138.039 135.946C141.773 135.753 145.382 134.504 148.462 132.339C150.051 130.757 151.044 128.654 151.268 126.399C151.491 124.145 150.931 121.882 149.685 120.007C147.997 117.539 144.547 115.464 134.743 111.123C127.055 108.475 120.053 104.086 114.259 98.2841C111.501 95.0729 109.463 91.2835 108.29 87.1827C107.422 82.5107 107.294 77.7267 107.91 73.0137C109.061 67.5899 111.817 62.6585 115.804 58.8881C119.79 55.1177 124.816 52.6902 130.198 51.935C135.68 51.2658 141.228 51.4427 146.658 52.4598ZM95.6288 61.7244L95.6963 70.8081L67.3775 70.8081L67.3776 152.949L47.4075 152.949L47.4074 70.827L19.0887 70.827L19.0887 61.9058C19.0134 58.8505 19.095 55.7933 19.3333 52.7471C19.4373 52.6032 36.6549 52.5347 57.5302 52.5722L95.5187 52.6782L95.6288 61.7244Z" fill="#E2B1A6"/>
</svg>
