<svg width="740" height="624" viewBox="0 0 740 624" fill="none" xmlns="http://www.w3.org/2000/svg">
<mask id="mask0_318_94413" style="mask-type:alpha" maskUnits="userSpaceOnUse" x="72" y="84" width="636" height="483">
<path d="M410.256 85.2536C407.582 86.2416 404.527 87.7974 403.421 88.7296C402.315 89.6619 365.199 130.024 320.768 178.559C276.337 227.094 239.654 266.64 239.255 266.685C238.759 266.58 207.938 238.886 170.621 205.141C107.285 147.965 102.209 143.773 95.9853 141.931C88.547 139.702 82.5589 141.023 77.6224 145.94C71.7038 151.816 71.5329 155.671 74.9688 202.967C76.8084 227.873 78.5258 248.473 78.6235 248.623C78.8189 248.924 113.553 280.174 155.671 318.182C222.948 378.79 232.603 387.068 234.657 385.948C271.204 365.96 354.578 321.552 358.43 319.906C365.78 317.059 373.971 318.8 379.527 324.391C382.377 327.461 440.478 401.943 465.734 435.069C467.155 436.928 479.342 433.292 565.455 405.292C619.391 387.702 663.834 373.283 664.135 373.087C664.285 372.99 674.233 354.87 686.045 332.866C708.422 291.057 709.834 287.466 706.817 279.69C704.308 273.19 699.375 269.547 691.673 268.559C685.238 267.71 678.896 269.475 597.779 295.943C549.962 311.591 510.541 324.354 510.045 324.248C509.699 324.045 492.274 272.997 471.427 210.585C450.581 148.174 433.092 96.2043 432.461 94.9027C430.496 90.7234 423.965 85.4438 419.497 84.4941C417.139 83.9929 412.904 84.3898 410.256 85.2536Z" fill="white"/>
<path d="M82.3646 303.636C81.7578 306.49 93.2657 456.157 94.2722 459.354C95.0911 461.603 97.0905 465.012 98.6355 466.896L101.556 470.241L327.297 518.228L553.038 566.214L557.067 564.347C559.245 563.253 562.458 560.953 564.121 559.231C566.694 556.276 638.625 422.92 637.914 421.99C637.817 421.84 631.449 423.729 623.779 426.249C471.012 476.14 462.394 478.848 456.685 477.635C453.609 476.851 449.894 475.413 448.59 474.228C447.285 473.042 427.287 447.519 403.986 417.402C380.782 387.436 361.149 362.639 360.405 362.48C359.66 362.322 331.638 376.989 298.252 394.926C264.714 412.96 236.064 428.142 234.39 428.695C228.695 430.467 220.84 427.76 214.264 422.082C206.411 415.094 90.5642 310.827 86.0378 306.492C84.0942 304.652 82.4174 303.388 82.3646 303.636Z" fill="white"/>
</mask>
<g mask="url(#mask0_318_94413)">
<path d="M-67.1646 58.3544C-67.1646 58.3544 1.23488 59.0026 27.5586 18.9325C52.7156 -19.6205 122.056 -17.621 122.056 -17.621" stroke="#E7DDDD" stroke-width="2.00192" stroke-miterlimit="10"/>
<path d="M-72.784 84.7897C-72.784 84.7897 15.3695 87.1044 48.9436 36.756C81.0792 -11.5189 170.3 -7.36557 170.3 -7.36557" stroke="#E7DDDD" stroke-width="2.00192" stroke-miterlimit="10"/>
<path d="M-78.4035 111.225C-78.4035 111.225 29.5042 115.206 70.4177 54.5218C109.443 -3.41734 218.545 2.88991 218.545 2.88991" stroke="#E7DDDD" stroke-width="2.00192" stroke-miterlimit="10"/>
<path d="M-84.0385 137.734C-84.0385 137.734 43.5655 143.292 91.7871 72.4187C137.822 4.61082 266.789 13.1454 266.789 13.1454" stroke="#E7DDDD" stroke-width="2.00192" stroke-miterlimit="10"/>
<path d="M-89.6579 164.169C-89.6579 164.169 57.7001 171.394 113.261 90.1844C166.186 12.7124 315.033 23.4008 315.033 23.4008" stroke="#E7DDDD" stroke-width="2.00192" stroke-miterlimit="10"/>
<path d="M-95.2774 190.604C-95.2774 190.604 71.8348 199.496 134.72 108.024C194.549 20.814 363.204 33.6407 363.204 33.6407" stroke="#E7DDDD" stroke-width="2.00192" stroke-miterlimit="10"/>
<path d="M-100.912 217.113C-100.912 217.113 85.8805 227.655 156.105 125.847C223.002 28.8577 411.449 43.8962 411.449 43.8962" stroke="#E7DDDD" stroke-width="2.00192" stroke-miterlimit="10"/>
<path d="M-106.532 243.548C-106.532 243.548 100.031 255.684 177.563 143.686C251.365 36.9593 459.693 54.1517 459.693 54.1517" stroke="#E7DDDD" stroke-width="2.00192" stroke-miterlimit="10"/>
<path d="M-112.151 269.983C-112.151 269.983 114.165 283.785 198.964 161.436C279.729 45.0609 507.937 64.4071 507.937 64.4071" stroke="#E7DDDD" stroke-width="2.00192" stroke-miterlimit="10"/>
<path d="M-117.786 296.492C-117.786 296.492 128.211 311.945 220.406 179.349C308.108 53.0891 556.108 74.647 556.108 74.647" stroke="#E7DDDD" stroke-width="2.00192" stroke-miterlimit="10"/>
<path d="M-123.406 322.927C-123.406 322.927 142.346 340.047 241.791 197.172C336.472 61.1906 604.352 84.9024 604.352 84.9024" stroke="#E7DDDD" stroke-width="2.00192" stroke-miterlimit="10"/>
<path d="M-129.041 349.436C-129.041 349.436 156.48 368.148 263.25 215.012C364.835 69.2922 652.597 95.1579 652.597 95.1579" stroke="#E7DDDD" stroke-width="2.00192" stroke-miterlimit="10"/>
<path d="M-134.66 375.871C-134.66 375.871 170.542 396.234 284.635 232.835C393.215 77.3204 700.841 105.413 700.841 105.413" stroke="#E7DDDD" stroke-width="2.00192" stroke-miterlimit="10"/>
<path d="M-140.28 402.307C-140.28 402.307 184.676 424.336 306.109 250.601C421.578 85.422 749.086 115.669 749.086 115.669" stroke="#E7DDDD" stroke-width="2.00192" stroke-miterlimit="10"/>
<path d="M-145.915 428.815C-145.915 428.815 198.811 452.438 327.552 268.513C449.942 93.5236 797.256 125.909 797.256 125.909" stroke="#E7DDDD" stroke-width="2.00192" stroke-miterlimit="10"/>
<path d="M-151.534 455.25C-151.534 455.25 212.872 480.524 348.952 286.264C478.321 101.552 845.501 136.164 845.501 136.164" stroke="#E7DDDD" stroke-width="2.00192" stroke-miterlimit="10"/>
<path d="M-157.154 481.686C-157.154 481.686 227.007 508.626 370.411 304.103C506.685 109.653 893.745 146.42 893.745 146.42" stroke="#E7DDDD" stroke-width="2.00192" stroke-miterlimit="10"/>
<path d="M-162.789 508.194C-162.789 508.194 241.126 536.801 391.796 321.926C535.048 117.755 941.989 156.675 941.989 156.675" stroke="#E7DDDD" stroke-width="2.00192" stroke-miterlimit="10"/>
<path d="M-168.408 534.63C-168.408 534.63 255.203 564.814 413.254 339.765C563.428 125.783 990.16 166.915 990.16 166.915" stroke="#E7DDDD" stroke-width="2.00192" stroke-miterlimit="10"/>
<path d="M926.792 568.276C926.792 568.276 799.188 562.717 750.967 633.59C704.947 701.325 576.038 692.879 576.038 692.879" stroke="#E7DDDD" stroke-width="2.00192" stroke-miterlimit="10"/>
<path d="M932.411 541.841C932.411 541.841 785.053 534.615 729.492 615.825C676.494 693.281 527.72 682.609 527.72 682.609" stroke="#E7DDDD" stroke-width="2.00192" stroke-miterlimit="10"/>
<path d="M938.047 515.331C938.047 515.331 770.934 506.439 708.05 597.911C648.131 685.179 479.476 672.352 479.476 672.352" stroke="#E7DDDD" stroke-width="2.00192" stroke-miterlimit="10"/>
<path d="M943.664 488.896C943.664 488.896 756.871 478.354 686.647 580.162C619.765 677.078 431.229 662.097 431.229 662.097" stroke="#E7DDDD" stroke-width="2.00192" stroke-miterlimit="10"/>
<path d="M949.287 462.461C949.287 462.461 742.724 450.326 665.192 562.323C591.39 669.05 383.062 651.857 383.062 651.857" stroke="#E7DDDD" stroke-width="2.00192" stroke-miterlimit="10"/>
<path d="M954.921 435.952C954.921 435.952 728.604 422.15 643.806 544.499C563.025 660.948 334.816 641.602 334.816 641.602" stroke="#E7DDDD" stroke-width="2.00192" stroke-miterlimit="10"/>
<path d="M960.54 409.516C960.54 409.516 714.542 394.064 622.347 526.659C534.645 652.919 286.572 631.346 286.572 631.346" stroke="#E7DDDD" stroke-width="2.00192" stroke-miterlimit="10"/>
<path d="M966.159 383.082C966.159 383.082 700.408 365.962 600.962 508.836C506.282 644.818 238.328 621.091 238.328 621.091" stroke="#E7DDDD" stroke-width="2.00192" stroke-miterlimit="10"/>
<path d="M971.796 356.573C971.796 356.573 686.274 337.86 579.505 490.997C477.919 636.717 190.158 610.851 190.158 610.851" stroke="#E7DDDD" stroke-width="2.00192" stroke-miterlimit="10"/>
<path d="M977.413 330.137C977.413 330.137 672.211 309.774 558.117 473.173C449.537 628.688 141.911 600.595 141.911 600.595" stroke="#E7DDDD" stroke-width="2.00192" stroke-miterlimit="10"/>
<path d="M983.034 303.702C983.034 303.702 658.078 281.672 536.645 455.408C421.176 620.587 93.6686 590.34 93.6686 590.34" stroke="#E7DDDD" stroke-width="2.00192" stroke-miterlimit="10"/>
<path d="M988.67 277.194C988.67 277.194 643.945 253.571 515.204 437.495C392.814 612.485 45.4261 580.085 45.4261 580.085" stroke="#E7DDDD" stroke-width="2.00192" stroke-miterlimit="10"/>
<path d="M994.288 250.759C994.288 250.759 629.881 225.485 493.801 419.745C364.432 604.457 -2.82074 569.829 -2.82074 569.829" stroke="#E7DDDD" stroke-width="2.00192" stroke-miterlimit="10"/>
<path d="M999.907 224.324C999.907 224.324 615.747 197.384 472.343 401.906C336.069 596.356 -50.9915 559.589 -50.9915 559.589" stroke="#E7DDDD" stroke-width="2.00192" stroke-miterlimit="10"/>
<path d="M1005.54 197.814C1005.54 197.814 601.629 169.208 450.959 384.083C307.633 588.238 -99.234 549.334 -99.234 549.334" stroke="#E7DDDD" stroke-width="2.00192" stroke-miterlimit="10"/>
<path d="M1011.16 171.379C1011.16 171.379 587.551 141.195 429.499 366.243C279.252 580.21 -147.48 539.078 -147.48 539.078" stroke="#E7DDDD" stroke-width="2.00192" stroke-miterlimit="10"/>
</g>
</svg>
