<svg width="672" height="488" viewBox="0 0 672 488" fill="none" xmlns="http://www.w3.org/2000/svg">
<mask id="mask0_318_94413" style="mask-type:alpha" maskUnits="userSpaceOnUse" x="85" y="-18" width="573" height="448">
<path d="M398 -17.2031C395.502 -16.459 392.624 -15.2194 391.56 -14.4339C390.496 -13.6485 354.261 20.9917 310.872 62.6583C267.483 104.325 231.69 138.246 231.324 138.264C230.877 138.138 204.388 111.06 172.327 78.0795C117.907 22.1925 113.523 18.0697 107.953 16.0234C101.298 13.5517 95.7574 14.405 90.9645 18.6008C85.2194 23.6134 84.8368 27.1203 85.19 70.4712C85.4037 93.3016 85.7591 112.196 85.8394 112.339C86 112.625 115.851 143.178 152.041 180.33C209.854 239.579 218.175 247.7 220.115 246.799C254.633 230.712 333.308 195.101 336.919 193.826C343.792 191.66 351.162 193.731 355.902 199.158C358.322 202.127 406.948 273.494 428.042 305.201C429.229 306.98 440.561 304.381 520.769 283.899C571.011 271.024 612.404 260.482 612.69 260.322C612.833 260.241 622.975 244.295 635.045 224.915C657.918 188.088 659.418 184.895 657.123 177.624C655.216 171.546 650.929 167.933 643.961 166.578C638.14 165.425 632.251 166.662 556.69 186.04C512.146 197.503 475.431 206.829 474.984 206.703C474.681 206.498 461.785 158.901 446.437 100.736C431.089 42.5712 418.19 -5.8698 417.69 -7.09438C416.143 -11.0228 410.496 -16.2234 406.476 -17.3526C404.354 -17.9485 400.467 -17.8355 398 -17.2031Z" fill="white"/>
<path d="M86.0173 162.748C85.2959 165.316 86.9933 302.536 87.7235 305.512C88.3384 307.612 89.962 310.839 91.2606 312.65L93.7287 315.873L296.853 372.927L499.978 429.981L503.763 428.514C505.815 427.644 508.881 425.735 510.5 424.262C513.022 421.717 586.487 304.284 585.894 303.395C585.813 303.251 579.892 304.6 572.747 306.449C430.441 342.981 422.42 344.945 417.283 343.502C414.523 342.606 411.218 341.076 410.098 339.918C408.977 338.76 392.234 314.298 372.747 285.452C353.34 256.749 336.887 232.971 336.217 232.783C335.547 232.595 309.12 244.328 277.606 258.729C245.949 273.21 218.918 285.375 217.358 285.781C212.058 287.063 205.051 284.131 199.386 278.564C192.632 271.727 93.0751 169.79 89.2005 165.569C87.5355 163.776 86.0801 162.524 86.0173 162.748Z" fill="white"/>
</mask>
<g mask="url(#mask0_318_94413)">
<path d="M-42.6572 -46.0328C-42.6572 -46.0328 37.6305 -38.737 71.2215 -82.6962C103.378 -124.848 184.531 -115.812 184.531 -115.812" stroke="#666060" stroke-width="1.83017" stroke-miterlimit="10"/>
<path d="M-49.3385 -22.246C-49.3385 -22.246 48.8732 -12.2681 89.7678 -65.2254C128.778 -115.789 227.942 -103.619 227.942 -103.619" stroke="#666060" stroke-width="1.83017" stroke-miterlimit="10"/>
<path d="M-56.0383 1.60686C-56.0383 1.60686 60.0498 14.1821 108.211 -47.6411C154.197 -106.796 271.353 -91.4257 271.353 -91.4257" stroke="#666060" stroke-width="1.83017" stroke-miterlimit="10"/>
<path d="M-62.7196 25.3937C-62.7196 25.3937 71.2925 40.6509 126.757 -30.1704C179.597 -97.7369 314.764 -79.2324 314.764 -79.2324" stroke="#666060" stroke-width="1.83017" stroke-miterlimit="10"/>
<path d="M-69.4008 49.1805C-69.4008 49.1805 82.5352 67.1198 145.285 -12.6335C204.997 -88.6777 358.109 -67.0576 358.109 -67.0576" stroke="#666060" stroke-width="1.83017" stroke-miterlimit="10"/>
<path d="M-76.1007 73.0334C-76.1007 73.0334 93.6933 93.6361 163.747 4.88474C230.482 -79.6661 401.52 -54.8643 401.52 -54.8643" stroke="#666060" stroke-width="1.83017" stroke-miterlimit="10"/>
<path d="M-82.782 96.8202C-82.782 96.8202 104.955 120.039 182.275 22.4216C255.882 -70.6069 444.931 -42.671 444.931 -42.671" stroke="#666060" stroke-width="1.83017" stroke-miterlimit="10"/>
<path d="M-89.4632 120.607C-89.4632 120.607 116.197 146.508 200.755 39.8738C281.282 -61.5477 488.342 -30.4777 488.342 -30.4777" stroke="#666060" stroke-width="1.83017" stroke-miterlimit="10"/>
<path d="M-96.1631 144.46C-96.1631 144.46 127.355 173.024 219.264 57.4767C306.701 -52.5546 531.687 -18.3029 531.687 -18.3029" stroke="#666060" stroke-width="1.83017" stroke-miterlimit="10"/>
<path d="M-102.844 168.247C-102.844 168.247 138.598 199.493 237.726 74.9949C332.101 -43.4954 575.098 -6.10955 575.098 -6.10955" stroke="#666060" stroke-width="1.83017" stroke-miterlimit="10"/>
<path d="M-109.544 192.1C-109.544 192.1 149.841 225.962 256.254 92.5318C357.501 -34.4363 618.509 6.08376 618.509 6.08376" stroke="#666060" stroke-width="1.83017" stroke-miterlimit="10"/>
<path d="M-116.225 215.887C-116.225 215.887 161.017 252.412 274.715 110.05C382.92 -25.4431 661.92 18.2771 661.92 18.2771" stroke="#666060" stroke-width="1.83017" stroke-miterlimit="10"/>
<path d="M-122.907 239.673C-122.907 239.673 172.26 278.881 293.262 127.521C408.32 -16.384 705.331 30.4704 705.331 30.4704" stroke="#666060" stroke-width="1.83017" stroke-miterlimit="10"/>
<path d="M-129.607 263.526C-129.607 263.526 183.503 305.35 311.771 145.124C433.72 -7.32481 748.675 42.6452 748.675 42.6452" stroke="#666060" stroke-width="1.83017" stroke-miterlimit="10"/>
<path d="M-136.288 287.313C-136.288 287.313 194.679 331.8 330.251 162.576C459.138 1.66826 792.086 54.8385 792.086 54.8385" stroke="#666060" stroke-width="1.83017" stroke-miterlimit="10"/>
<path d="M-142.969 311.1C-142.969 311.1 205.922 358.269 348.779 180.113C484.539 10.7275 835.497 67.0318 835.497 67.0318" stroke="#666060" stroke-width="1.83017" stroke-miterlimit="10"/>
<path d="M-149.669 334.953C-149.669 334.953 217.146 384.804 367.241 197.631C509.939 19.7867 878.908 79.2252 878.908 79.2252" stroke="#666060" stroke-width="1.83017" stroke-miterlimit="10"/>
<path d="M-156.35 358.739C-156.35 358.739 228.341 411.188 385.768 215.168C535.357 28.7797 922.253 91.3999 922.253 91.3999" stroke="#666060" stroke-width="1.83017" stroke-miterlimit="10"/>
<path d="M840.838 453.841C840.838 453.841 724.75 441.265 676.589 503.089C630.621 562.178 513.512 546.892 513.512 546.892" stroke="#666060" stroke-width="1.83017" stroke-miterlimit="10"/>
<path d="M847.519 430.054C847.519 430.054 713.507 414.797 658.042 485.618C605.137 553.166 470.035 534.68 470.035 534.68" stroke="#666060" stroke-width="1.83017" stroke-miterlimit="10"/>
<path d="M854.22 406.2C854.22 406.2 702.284 388.261 639.534 468.014C579.737 544.106 426.625 522.486 426.625 522.486" stroke="#666060" stroke-width="1.83017" stroke-miterlimit="10"/>
<path d="M860.898 382.414C860.898 382.414 691.104 361.811 621.051 450.562C554.334 535.047 383.211 510.293 383.211 510.293" stroke="#666060" stroke-width="1.83017" stroke-miterlimit="10"/>
<path d="M867.583 358.627C867.583 358.627 679.847 335.409 602.527 433.026C528.919 526.054 339.87 498.119 339.87 498.119" stroke="#666060" stroke-width="1.83017" stroke-miterlimit="10"/>
<path d="M874.282 334.774C874.282 334.774 668.621 308.873 584.064 415.507C503.518 516.995 296.458 485.925 296.458 485.925" stroke="#666060" stroke-width="1.83017" stroke-miterlimit="10"/>
<path d="M880.962 310.987C880.962 310.987 657.444 282.423 565.535 397.97C478.099 508.001 253.046 473.731 253.046 473.731" stroke="#666060" stroke-width="1.83017" stroke-miterlimit="10"/>
<path d="M887.644 287.201C887.644 287.201 646.202 255.954 547.074 380.452C452.699 498.943 209.636 461.538 209.636 461.538" stroke="#666060" stroke-width="1.83017" stroke-miterlimit="10"/>
<path d="M894.345 263.348C894.345 263.348 634.96 229.486 528.547 362.916C427.3 489.884 166.292 449.364 166.292 449.364" stroke="#666060" stroke-width="1.83017" stroke-miterlimit="10"/>
<path d="M901.025 239.56C901.025 239.56 623.782 203.035 510.084 345.397C401.88 480.89 122.88 437.17 122.88 437.17" stroke="#666060" stroke-width="1.83017" stroke-miterlimit="10"/>
<path d="M907.707 215.774C907.707 215.774 612.54 176.566 491.539 327.926C376.481 471.831 79.4698 424.976 79.4698 424.976" stroke="#666060" stroke-width="1.83017" stroke-miterlimit="10"/>
<path d="M914.409 191.921C914.409 191.921 601.299 150.098 473.031 310.324C351.082 462.772 36.061 412.784 36.061 412.784" stroke="#666060" stroke-width="1.83017" stroke-miterlimit="10"/>
<path d="M921.088 168.134C921.088 168.134 590.121 123.647 454.549 292.871C325.661 453.779 -7.3527 400.59 -7.3527 400.59" stroke="#666060" stroke-width="1.83017" stroke-miterlimit="10"/>
<path d="M927.769 144.348C927.769 144.348 578.878 97.1788 436.021 275.335C300.261 444.72 -50.6976 388.416 -50.6976 388.416" stroke="#666060" stroke-width="1.83017" stroke-miterlimit="10"/>
<path d="M934.47 120.495C934.47 120.495 567.655 70.6435 417.56 257.816C274.796 435.642 -94.1069 376.222 -94.1069 376.222" stroke="#666060" stroke-width="1.83017" stroke-miterlimit="10"/>
<path d="M941.15 96.7073C941.15 96.7073 556.459 44.2588 399.032 240.279C249.377 426.648 -137.519 364.028 -137.519 364.028" stroke="#666060" stroke-width="1.83017" stroke-miterlimit="10"/>
</g>
</svg>
