<svg width="622" height="394" viewBox="0 0 622 394" fill="none" xmlns="http://www.w3.org/2000/svg">
<mask id="mask0_314_1078" style="mask-type:alpha" maskUnits="userSpaceOnUse" x="61" y="70" width="535" height="406">
<path d="M344.804 71.6523C342.556 72.4826 339.989 73.7901 339.059 74.5736C338.13 75.3572 306.935 109.28 269.593 150.072C232.25 190.864 201.42 224.101 201.085 224.139C200.667 224.05 174.764 200.774 143.4 172.413C90.1681 124.359 85.9023 120.836 80.6716 119.288C74.42 117.414 69.3872 118.524 65.2383 122.657C60.2639 127.595 60.1203 130.835 63.008 170.586C64.5541 191.518 65.9975 208.832 66.0797 208.958C66.2439 209.211 95.4368 235.475 130.835 267.42C187.379 318.358 195.493 325.316 197.22 324.374C227.936 307.575 298.008 270.252 301.246 268.869C307.423 266.475 314.307 267.939 318.977 272.638C321.372 275.218 370.204 337.817 391.431 365.659C392.625 367.221 402.868 364.165 475.242 340.632C520.574 325.848 557.926 313.73 558.179 313.565C558.305 313.483 566.666 298.254 576.593 279.76C595.401 244.622 596.587 241.603 594.052 235.069C591.943 229.606 587.797 226.544 581.324 225.713C575.915 224.999 570.585 226.483 502.409 248.729C462.221 261.88 429.09 272.606 428.673 272.518C428.382 272.347 413.737 229.443 396.216 176.989C378.695 124.534 363.997 80.8558 363.466 79.7619C361.814 76.2493 356.326 71.8121 352.571 71.0139C350.589 70.5926 347.03 70.9262 344.804 71.6523Z" fill="white"/>
<path d="M69.2243 255.194C68.7144 257.593 78.3862 383.382 79.2322 386.069C79.9205 387.96 81.6009 390.824 82.8994 392.408L85.3542 395.22L275.08 435.55L464.807 475.881L468.193 474.312C470.023 473.393 472.724 471.459 474.122 470.012C476.285 467.529 536.739 355.448 536.142 354.667C536.06 354.54 530.708 356.128 524.262 358.246C395.867 400.178 388.624 402.454 383.826 401.434C381.241 400.775 378.119 399.566 377.022 398.57C375.926 397.574 359.119 376.123 339.535 350.811C320.033 325.625 303.532 304.784 302.906 304.651C302.28 304.518 278.729 316.845 250.669 331.92C222.482 347.077 198.403 359.837 196.996 360.301C192.21 361.791 185.607 359.516 180.081 354.743C173.48 348.871 76.1158 261.238 72.3115 257.595C70.678 256.048 69.2687 254.986 69.2243 255.194Z" fill="white"/>
</mask>
<g mask="url(#mask0_314_1078)">
<path d="M-56.4494 49.0447C-56.4494 49.0447 1.03768 49.5895 23.1618 15.9121C44.3052 -16.4902 102.583 -14.8097 102.583 -14.8097" stroke="#666060" stroke-width="1.68254" stroke-miterlimit="10"/>
<path d="M-61.1723 71.2625C-61.1723 71.2625 12.9173 73.208 41.135 30.8921C68.1437 -9.6811 143.13 -6.19035 143.13 -6.19035" stroke="#666060" stroke-width="1.68254" stroke-miterlimit="10"/>
<path d="M-65.8952 93.4804C-65.8952 93.4804 24.797 96.8264 59.1831 45.8235C91.9822 -2.87202 183.678 2.42898 183.678 2.42898" stroke="#666060" stroke-width="1.68254" stroke-miterlimit="10"/>
<path d="M-70.6313 115.76C-70.6313 115.76 36.6149 120.432 77.1433 60.8652C115.834 3.87533 224.225 11.0483 224.225 11.0483" stroke="#666060" stroke-width="1.68254" stroke-miterlimit="10"/>
<path d="M-75.3542 137.978C-75.3542 137.978 48.4945 144.05 95.1914 75.7966C139.672 10.6844 264.773 19.6676 264.773 19.6676" stroke="#666060" stroke-width="1.68254" stroke-miterlimit="10"/>
<path d="M-80.0771 160.195C-80.0771 160.195 60.3742 167.668 113.226 90.7897C163.511 17.4935 305.259 28.2738 305.259 28.2738" stroke="#666060" stroke-width="1.68254" stroke-miterlimit="10"/>
<path d="M-84.8131 182.475C-84.8131 182.475 72.179 191.335 131.2 105.77C187.424 24.2539 345.806 36.8932 345.806 36.8932" stroke="#666060" stroke-width="1.68254" stroke-miterlimit="10"/>
<path d="M-89.536 204.693C-89.536 204.693 84.0717 214.892 149.235 120.763C211.263 31.063 386.354 45.5125 386.354 45.5125" stroke="#666060" stroke-width="1.68254" stroke-miterlimit="10"/>
<path d="M-94.259 226.911C-94.259 226.911 95.9514 238.511 167.221 135.681C235.101 37.8721 426.901 54.1318 426.901 54.1318" stroke="#666060" stroke-width="1.68254" stroke-miterlimit="10"/>
<path d="M-98.995 249.19C-98.995 249.19 107.756 262.178 185.243 150.736C258.953 44.6194 467.387 62.738 467.387 62.738" stroke="#666060" stroke-width="1.68254" stroke-miterlimit="10"/>
<path d="M-103.718 271.408C-103.718 271.408 119.636 285.796 203.216 165.716C282.791 51.4285 507.934 71.3573 507.934 71.3573" stroke="#666060" stroke-width="1.68254" stroke-miterlimit="10"/>
<path d="M-108.454 293.688C-108.454 293.688 131.515 309.414 221.251 180.709C306.63 58.2375 548.482 79.9766 548.482 79.9766" stroke="#666060" stroke-width="1.68254" stroke-miterlimit="10"/>
<path d="M-113.177 315.905C-113.177 315.905 143.333 333.02 239.224 195.689C330.481 64.9849 589.03 88.596 589.03 88.596" stroke="#666060" stroke-width="1.68254" stroke-miterlimit="10"/>
<path d="M-117.9 338.123C-117.9 338.123 155.213 356.638 257.272 210.62C354.32 71.794 629.577 97.2153 629.577 97.2153" stroke="#666060" stroke-width="1.68254" stroke-miterlimit="10"/>
<path d="M-122.636 360.403C-122.636 360.403 167.093 380.256 275.294 225.675C378.158 78.603 670.063 105.821 670.063 105.821" stroke="#666060" stroke-width="1.68254" stroke-miterlimit="10"/>
<path d="M-127.359 382.62C-127.359 382.62 178.911 403.862 293.281 240.593C402.01 85.3504 710.61 114.441 710.61 114.441" stroke="#666060" stroke-width="1.68254" stroke-miterlimit="10"/>
<path d="M-132.082 404.838C-132.082 404.838 190.79 427.48 311.316 255.587C425.849 92.1594 751.158 123.06 751.158 123.06" stroke="#666060" stroke-width="1.68254" stroke-miterlimit="10"/>
<path d="M-136.818 427.118C-136.818 427.118 202.657 451.16 329.289 270.567C449.687 98.9685 791.705 131.679 791.705 131.679" stroke="#666060" stroke-width="1.68254" stroke-miterlimit="10"/>
<path d="M-141.541 449.335C-141.541 449.335 214.488 474.704 347.324 285.56C473.539 105.716 832.191 140.286 832.191 140.286" stroke="#666060" stroke-width="1.68254" stroke-miterlimit="10"/>
<path d="M783.655 455.396C783.655 455.396 659.806 449.323 613.11 517.577C568.567 582.676 443.528 573.706 443.528 573.706" stroke="#666060" stroke-width="1.68254" stroke-miterlimit="10"/>
<path d="M788.392 433.116C788.392 433.116 647.94 425.643 595.088 502.522C544.729 575.866 402.981 565.086 402.981 565.086" stroke="#666060" stroke-width="1.68254" stroke-miterlimit="10"/>
<path d="M793.113 410.898C793.113 410.898 636.121 402.038 577.1 487.604C520.889 569.058 362.432 556.467 362.432 556.467" stroke="#666060" stroke-width="1.68254" stroke-miterlimit="10"/>
<path d="M797.839 388.68C797.839 388.68 624.231 378.481 559.068 472.61C497.04 562.31 321.949 547.861 321.949 547.861" stroke="#666060" stroke-width="1.68254" stroke-miterlimit="10"/>
<path d="M802.573 366.401C802.573 366.401 612.363 354.801 541.094 457.63C473.2 555.501 281.4 539.241 281.4 539.241" stroke="#666060" stroke-width="1.68254" stroke-miterlimit="10"/>
<path d="M807.296 344.183C807.296 344.183 600.545 331.195 523.058 442.637C449.348 548.753 240.852 530.622 240.852 530.622" stroke="#666060" stroke-width="1.68254" stroke-miterlimit="10"/>
<path d="M812.019 321.965C812.019 321.965 588.665 307.577 505.085 427.657C425.51 541.945 200.305 522.003 200.305 522.003" stroke="#666060" stroke-width="1.68254" stroke-miterlimit="10"/>
<path d="M816.756 299.686C816.756 299.686 576.786 283.959 487.051 412.664C401.672 535.136 159.82 513.397 159.82 513.397" stroke="#666060" stroke-width="1.68254" stroke-miterlimit="10"/>
<path d="M821.477 277.468C821.477 277.468 564.967 260.353 469.076 397.684C377.819 528.388 119.271 504.777 119.271 504.777" stroke="#666060" stroke-width="1.68254" stroke-miterlimit="10"/>
<path d="M826.201 255.25C826.201 255.25 553.089 236.735 451.029 382.753C353.982 521.579 78.7247 496.158 78.7247 496.158" stroke="#666060" stroke-width="1.68254" stroke-miterlimit="10"/>
<path d="M830.938 232.971C830.938 232.971 541.21 213.117 433.008 367.698C330.144 514.77 38.1787 487.539 38.1787 487.539" stroke="#666060" stroke-width="1.68254" stroke-miterlimit="10"/>
<path d="M835.66 210.753C835.66 210.753 529.391 189.512 415.021 352.78C306.291 508.023 -2.37041 478.919 -2.37041 478.919" stroke="#666060" stroke-width="1.68254" stroke-miterlimit="10"/>
<path d="M840.383 188.535C840.383 188.535 517.511 165.893 396.986 337.787C282.453 501.214 -42.856 470.313 -42.856 470.313" stroke="#666060" stroke-width="1.68254" stroke-miterlimit="10"/>
<path d="M845.12 166.255C845.12 166.255 505.646 142.213 379.014 322.807C258.554 494.392 -83.4022 461.694 -83.4022 461.694" stroke="#666060" stroke-width="1.68254" stroke-miterlimit="10"/>
<path d="M849.842 144.038C849.842 144.038 493.813 118.669 360.977 307.813C234.701 487.644 -123.951 453.074 -123.951 453.074" stroke="#666060" stroke-width="1.68254" stroke-miterlimit="10"/>
</g>
</svg>
