<svg width="555" height="468" viewBox="0 0 555 468" fill="none" xmlns="http://www.w3.org/2000/svg">
<mask id="mask0_334_860" style="mask-type:alpha" maskUnits="userSpaceOnUse" x="54" y="63" width="477" height="362">
<path d="M307.516 63.9041C305.511 64.6447 303.222 65.8108 302.392 66.5096C301.563 67.2084 273.742 97.4626 240.438 133.843C207.134 170.224 179.637 199.867 179.339 199.9C178.967 199.821 155.864 179.062 127.892 153.768C80.4169 110.911 76.6124 107.769 71.9474 106.388C66.3718 104.717 61.8833 105.707 58.183 109.393C53.7466 113.797 53.6185 116.687 56.194 152.139C57.5729 170.808 58.8602 186.249 58.9335 186.361C59.08 186.587 85.1158 210.011 116.686 238.501C167.115 283.931 174.352 290.136 175.892 289.296C203.286 274.313 265.781 241.027 268.668 239.793C274.178 237.659 280.317 238.964 284.482 243.155C286.618 245.456 330.169 301.285 349.1 326.116C350.165 327.509 359.301 324.784 423.848 303.795C464.278 290.611 497.59 279.803 497.816 279.656C497.929 279.583 505.386 266.001 514.239 249.507C531.012 218.168 532.071 215.476 529.81 209.648C527.929 204.776 524.231 202.045 518.458 201.304C513.634 200.668 508.881 201.991 448.077 221.831C412.236 233.56 382.687 243.127 382.315 243.048C382.055 242.895 368.994 204.631 353.368 157.849C337.742 111.067 324.633 72.1124 324.16 71.1368C322.687 68.0041 317.792 64.0467 314.443 63.3348C312.675 62.9591 309.501 63.2566 307.516 63.9041Z" fill="white"/>
<path d="M61.738 227.597C61.2832 229.736 69.9092 341.922 70.6637 344.318C71.2775 346.004 72.7762 348.559 73.9342 349.972L76.1236 352.479L245.332 388.449L414.541 424.418L417.561 423.018C419.194 422.198 421.602 420.474 422.849 419.184C424.778 416.969 478.695 317.008 478.162 316.312C478.089 316.199 473.316 317.615 467.567 319.504C353.057 356.901 346.597 358.931 342.318 358.021C340.013 357.434 337.228 356.356 336.25 355.467C335.272 354.579 320.282 335.447 302.816 312.873C285.424 290.411 270.707 271.823 270.149 271.705C269.591 271.586 248.586 282.58 223.561 296.025C198.422 309.543 176.947 320.923 175.692 321.337C171.423 322.666 165.535 320.636 160.606 316.38C154.719 311.142 67.8842 232.987 64.4914 229.737C63.0345 228.358 61.7776 227.41 61.738 227.597Z" fill="white"/>
</mask>
<g mask="url(#mask0_334_860)">
<path d="M-50.3444 43.7408C-50.3444 43.7408 0.9259 44.2267 20.6574 14.1912C39.5144 -14.707 91.4898 -13.2082 91.4898 -13.2082" stroke="#666060" stroke-width="1.50058" stroke-miterlimit="10"/>
<path d="M-54.5566 63.5559C-54.5566 63.5559 11.5208 65.291 36.687 27.5513C60.7749 -8.63425 127.652 -5.521 127.652 -5.521" stroke="#666060" stroke-width="1.50058" stroke-miterlimit="10"/>
<path d="M-58.7687 83.3711C-58.7687 83.3711 22.1158 86.3553 52.7834 40.868C82.0355 -2.56153 163.815 2.16621 163.815 2.16621" stroke="#666060" stroke-width="1.50058" stroke-miterlimit="10"/>
<path d="M-62.9926 103.241C-62.9926 103.241 32.6557 107.408 68.8013 54.283C103.308 3.45615 199.978 9.85342 199.978 9.85342" stroke="#666060" stroke-width="1.50058" stroke-miterlimit="10"/>
<path d="M-67.2048 123.056C-67.2048 123.056 43.2507 128.472 84.8976 67.5997C124.568 9.52886 236.14 17.5406 236.14 17.5406" stroke="#666060" stroke-width="1.50058" stroke-miterlimit="10"/>
<path d="M-71.4169 142.871C-71.4169 142.871 53.8456 149.536 100.982 80.9714C145.829 15.6016 272.248 25.2161 272.248 25.2161" stroke="#666060" stroke-width="1.50058" stroke-miterlimit="10"/>
<path d="M-75.6408 162.742C-75.6408 162.742 64.3738 170.644 117.012 94.3314C167.156 21.631 308.41 32.9033 308.41 32.9033" stroke="#666060" stroke-width="1.50058" stroke-miterlimit="10"/>
<path d="M-79.853 182.557C-79.853 182.557 74.9805 191.653 133.096 107.703C188.417 27.7037 344.573 40.5906 344.573 40.5906" stroke="#666060" stroke-width="1.50058" stroke-miterlimit="10"/>
<path d="M-84.0651 202.372C-84.0651 202.372 85.5754 212.717 149.138 121.008C209.677 33.7764 380.736 48.2778 380.736 48.2778" stroke="#666060" stroke-width="1.50058" stroke-miterlimit="10"/>
<path d="M-88.289 222.242C-88.289 222.242 96.1036 233.825 165.211 134.435C230.949 39.7941 416.843 55.9533 416.843 55.9533" stroke="#666060" stroke-width="1.50058" stroke-miterlimit="10"/>
<path d="M-92.5012 242.057C-92.5012 242.057 106.699 254.889 181.24 147.795C252.21 45.8668 453.006 63.6404 453.006 63.6404" stroke="#666060" stroke-width="1.50058" stroke-miterlimit="10"/>
<path d="M-96.7251 261.927C-96.7251 261.927 117.293 275.954 197.325 161.167C273.471 51.9395 489.168 71.3277 489.168 71.3277" stroke="#666060" stroke-width="1.50058" stroke-miterlimit="10"/>
<path d="M-100.937 281.742C-100.937 281.742 127.833 297.006 213.355 174.527C294.743 57.9572 525.331 79.0149 525.331 79.0149" stroke="#666060" stroke-width="1.50058" stroke-miterlimit="10"/>
<path d="M-105.149 301.558C-105.149 301.558 138.428 318.07 229.451 187.843C316.003 64.0299 561.493 86.7021 561.493 86.7021" stroke="#666060" stroke-width="1.50058" stroke-miterlimit="10"/>
<path d="M-109.373 321.428C-109.373 321.428 149.023 339.135 245.524 201.27C337.264 70.1026 597.601 94.3776 597.601 94.3776" stroke="#666060" stroke-width="1.50058" stroke-miterlimit="10"/>
<path d="M-113.585 341.243C-113.585 341.243 159.563 360.187 261.565 214.575C358.536 76.1203 633.764 102.065 633.764 102.065" stroke="#666060" stroke-width="1.50058" stroke-miterlimit="10"/>
<path d="M-117.798 361.058C-117.798 361.058 170.158 381.251 277.65 227.947C379.797 82.193 669.926 109.752 669.926 109.752" stroke="#666060" stroke-width="1.50058" stroke-miterlimit="10"/>
<path d="M-122.021 380.928C-122.021 380.928 180.741 402.371 293.679 241.307C401.057 88.2657 706.089 117.439 706.089 117.439" stroke="#666060" stroke-width="1.50058" stroke-miterlimit="10"/>
<path d="M-126.234 400.743C-126.234 400.743 191.293 423.368 309.764 254.679C422.329 94.2834 742.196 125.115 742.196 125.115" stroke="#666060" stroke-width="1.50058" stroke-miterlimit="10"/>
<path d="M694.697 425.962C694.697 425.962 599.049 421.796 562.904 474.921C528.409 525.692 431.782 519.362 431.782 519.362" stroke="#666060" stroke-width="1.50058" stroke-miterlimit="10"/>
<path d="M698.909 406.148C698.909 406.148 588.454 400.732 546.807 461.604C507.081 519.663 395.564 511.663 395.564 511.663" stroke="#666060" stroke-width="1.50058" stroke-miterlimit="10"/>
<path d="M703.133 386.277C703.133 386.277 577.87 379.612 530.734 448.177C485.82 513.59 359.401 503.976 359.401 503.976" stroke="#666060" stroke-width="1.50058" stroke-miterlimit="10"/>
<path d="M707.345 366.462C707.345 366.462 567.33 358.56 514.692 434.873C464.56 507.518 323.239 496.289 323.239 496.289" stroke="#666060" stroke-width="1.50058" stroke-miterlimit="10"/>
<path d="M711.559 346.647C711.559 346.647 556.726 337.55 498.61 421.5C443.29 501.5 287.133 488.613 287.133 488.613" stroke="#666060" stroke-width="1.50058" stroke-miterlimit="10"/>
<path d="M715.781 326.777C715.781 326.777 546.141 316.431 482.579 408.14C422.027 495.427 250.969 480.926 250.969 480.926" stroke="#666060" stroke-width="1.50058" stroke-miterlimit="10"/>
<path d="M719.993 306.961C719.993 306.961 535.601 295.378 466.494 394.768C400.755 489.409 214.806 473.238 214.806 473.238" stroke="#666060" stroke-width="1.50058" stroke-miterlimit="10"/>
<path d="M724.205 287.146C724.205 287.146 525.006 274.314 450.464 381.409C379.494 483.337 178.643 465.551 178.643 465.551" stroke="#666060" stroke-width="1.50058" stroke-miterlimit="10"/>
<path d="M728.43 267.276C728.43 267.276 514.411 253.25 434.38 368.037C358.234 477.264 142.537 457.876 142.537 457.876" stroke="#666060" stroke-width="1.50058" stroke-miterlimit="10"/>
<path d="M732.641 247.461C732.641 247.461 503.87 232.198 418.349 354.677C336.96 471.246 106.372 450.189 106.372 450.189" stroke="#666060" stroke-width="1.50058" stroke-miterlimit="10"/>
<path d="M736.855 227.646C736.855 227.646 493.277 211.133 402.255 341.36C315.702 465.174 70.2119 442.501 70.2119 442.501" stroke="#666060" stroke-width="1.50058" stroke-miterlimit="10"/>
<path d="M741.078 207.776C741.078 207.776 482.682 190.069 386.182 327.933C294.441 459.101 34.0496 434.814 34.0496 434.814" stroke="#666060" stroke-width="1.50058" stroke-miterlimit="10"/>
<path d="M745.29 187.961C745.29 187.961 472.141 169.017 370.139 314.629C273.168 453.084 -2.11421 427.127 -2.11421 427.127" stroke="#666060" stroke-width="1.50058" stroke-miterlimit="10"/>
<path d="M749.502 168.146C749.502 168.146 461.546 147.953 354.055 301.257C251.908 447.011 -38.2219 419.452 -38.2219 419.452" stroke="#666060" stroke-width="1.50058" stroke-miterlimit="10"/>
<path d="M753.727 148.276C753.727 148.276 450.964 126.834 338.026 287.897C230.593 440.927 -74.3833 411.765 -74.3833 411.765" stroke="#666060" stroke-width="1.50058" stroke-miterlimit="10"/>
<path d="M757.938 128.46C757.938 128.46 440.412 105.835 321.941 274.525C209.32 434.908 -110.547 404.077 -110.547 404.077" stroke="#666060" stroke-width="1.50058" stroke-miterlimit="10"/>
</g>
</svg>
