<svg width="1628" height="946" viewBox="0 0 1628 946" fill="none" xmlns="http://www.w3.org/2000/svg">
<path d="M1426.23 872.663L1447.88 879.346L1469.52 871.923" stroke="black"/>
<path d="M1449.39 775.702L502.498 776.288C482.195 776.3 465.788 789.433 465.798 805.664L465.828 854.288C465.838 870.519 482.262 883.632 502.565 883.62L1449.46 883.034C1469.76 883.022 1486.17 869.889 1486.16 853.658L1486.13 805.034C1486.12 788.803 1469.7 775.69 1449.39 775.702Z" fill="#3E3538"/>
<path d="M1436.37 701.661L516.346 702.23C488.921 702.247 466.722 678.506 466.704 649.198L466.335 54.2803C466.317 24.8808 488.571 1.20358 515.911 1.18667L1435.94 0.617918C1463.28 0.601017 1485.56 24.3425 1485.58 53.6502L1485.95 648.568C1485.97 677.875 1463.71 701.644 1436.37 701.661Z" fill="#E3E1E4" stroke="black"/>
<path d="M1486.5 586.878L466.166 587.509L465.827 40.8905C465.813 18.7265 482.649 0.707816 503.384 0.694998L1448.47 0.110754C1469.2 0.0979354 1486.06 18.0958 1486.07 40.2597L1486.41 586.878L1486.5 586.878Z" fill="#393435"/>
<path d="M1047.53 702.779L913.369 702.862L898.331 776.096L1062.72 776.074L1047.53 702.779Z" fill="#897D7E"/>
<path d="M1340.82 860.648L610.608 861.099C602.66 861.104 596.184 866.232 596.187 872.517C596.191 878.803 602.674 883.922 610.623 883.917L1340.84 883.466C1348.79 883.461 1355.26 878.333 1355.26 872.048C1355.26 865.694 1348.77 860.643 1340.82 860.648Z" fill="#E3E1E4"/>
<path d="M1453.35 40.1004L502.406 40.6883L502.716 540.094L1453.66 539.507L1453.35 40.1004Z" fill="#251E2B"/>
<path d="M1453.14 41.2205L508.617 41.8044L508.643 84.0195L1453.17 83.4356L1453.14 41.2205Z" fill="#231C27"/>
<path d="M669.385 117.441L1029.12 117.219" stroke="#40D8DB" stroke-width="0.5631" stroke-miterlimit="10"/>
<path d="M669.408 152.587L1304.98 152.194" stroke="#F26051" stroke-width="0.5631" stroke-miterlimit="10"/>
<path d="M669.43 187.732L1007.18 187.523" stroke="white" stroke-width="0.5" stroke-miterlimit="10" stroke-linecap="round"/>
<path d="M669.452 222.979L774.813 222.914" stroke="white" stroke-width="0.5" stroke-miterlimit="10" stroke-linecap="round"/>
<path d="M801.024 222.897L1178.51 222.664" stroke="white" stroke-width="0.5" stroke-miterlimit="10" stroke-linecap="round"/>
<path d="M1049.55 117.206L1154.91 117.141" stroke="white" stroke-width="0.5" stroke-miterlimit="10" stroke-linecap="round"/>
<path d="M669.473 258.124L963.783 257.942" stroke="#40D8DB" stroke-width="0.5631" stroke-miterlimit="10"/>
<path d="M669.495 293.27L1250.27 292.911" stroke="white" stroke-width="0.5" stroke-miterlimit="10" stroke-linecap="round"/>
<path d="M669.517 328.416L1330.78 328.007" stroke="#F26051" stroke-width="0.5631" stroke-miterlimit="10"/>
<path d="M669.539 363.662L736.202 363.621" stroke="#40D8DB" stroke-width="0.5631" stroke-miterlimit="10"/>
<path d="M669.56 398.808L806.293 398.723" stroke="#40D8DB" stroke-width="0.5631" stroke-miterlimit="10"/>
<path d="M669.583 433.953L932.522 433.791" stroke="white" stroke-width="0.5" stroke-miterlimit="10" stroke-linecap="round"/>
<path d="M669.604 469.099L993.014 468.899" stroke="#F26051" stroke-width="0.5631" stroke-miterlimit="10"/>
<path d="M669.783 492.43L858.113 492.314" stroke="white" stroke-width="0.5" stroke-miterlimit="10" stroke-linecap="round"/>
<path d="M645.189 105.541L600.919 105.568" stroke="white" stroke-width="0.5" stroke-miterlimit="10" stroke-linecap="round"/>
<path d="M645.212 140.686L600.941 140.714" stroke="white" stroke-width="0.5" stroke-miterlimit="10" stroke-linecap="round"/>
<path d="M645.233 175.832L600.963 175.859" stroke="white" stroke-width="0.5" stroke-miterlimit="10" stroke-linecap="round"/>
<path d="M645.255 211.079L600.984 211.106" stroke="white" stroke-width="0.5" stroke-miterlimit="10" stroke-linecap="round"/>
<path d="M645.277 246.224L601.007 246.252" stroke="white" stroke-width="0.5" stroke-miterlimit="10" stroke-linecap="round"/>
<path d="M645.298 281.37L601.028 281.397" stroke="white" stroke-width="0.5" stroke-miterlimit="10" stroke-linecap="round"/>
<path d="M645.321 316.516L601.051 316.543" stroke="white" stroke-width="0.5" stroke-miterlimit="10" stroke-linecap="round"/>
<path d="M645.342 351.762L601.072 351.789" stroke="white" stroke-width="0.5" stroke-miterlimit="10" stroke-linecap="round"/>
<path d="M645.364 386.908L601.093 386.935" stroke="white" stroke-width="0.5" stroke-miterlimit="10" stroke-linecap="round"/>
<path d="M645.387 422.053L601.116 422.081" stroke="white" stroke-width="0.5" stroke-miterlimit="10" stroke-linecap="round"/>
<path d="M645.408 457.199L601.137 457.226" stroke="white" stroke-width="0.5" stroke-miterlimit="10" stroke-linecap="round"/>
<path d="M645.429 492.445L601.159 492.473" stroke="white" stroke-width="0.5" stroke-miterlimit="10" stroke-linecap="round"/>
<path d="M768.914 363.601L1146.4 363.367" stroke="white" stroke-width="0.5" stroke-miterlimit="10" stroke-linecap="round"/>
<path d="M1170.54 363.353L1275.91 363.287" stroke="white" stroke-width="0.5" stroke-miterlimit="10" stroke-linecap="round"/>
<path d="M997.732 257.921L1103.09 257.856" stroke="white" stroke-width="0.5" stroke-miterlimit="10" stroke-linecap="round"/>
<path d="M840.965 398.702L946.223 398.637" stroke="white" stroke-width="0.5" stroke-miterlimit="10" stroke-linecap="round"/>
<path d="M982.753 398.614L1306.16 398.414" stroke="#F26051" stroke-width="0.5631" stroke-miterlimit="10"/>
<path d="M893.094 492.292L1216.5 492.092" stroke="#40D8DB" stroke-width="0.5631" stroke-miterlimit="10"/>
<path d="M960.38 643.934C960.388 656.863 970.157 667.293 982.252 667.285C994.348 667.278 1004.1 656.836 1004.1 643.907C1004.09 630.978 994.319 620.549 982.223 620.556C970.128 620.656 960.372 631.097 960.38 643.934Z" fill="#6C5F5F"/>
<path d="M463.5 834.5L466.647 822.534C468.872 822.649 491.516 823.159 492.137 794.049C492.758 764.938 473.192 762.241 470.97 761.996L471.3 749.338C482.838 750.273 504.581 760.993 503.855 794.998C503.069 828.999 475.038 835.435 463.5 834.5Z" fill="#2D2F4B"/>
<path d="M470.565 722.109L345.466 722.109C345.466 722.109 342.164 769.212 345.464 799.094C347.558 818.053 350.515 832.607 354.195 847.15C357.874 861.692 362.152 884.48 362.152 884.48L453.505 884.485C453.505 884.485 457.809 862.164 461.256 847.15C465.658 827.974 468.3 818.792 470.566 800.26C474.27 769.967 470.565 722.109 470.565 722.109Z" fill="#444560"/>
<rect width="1626.28" height="60.8794" rx="30.4397" transform="matrix(1 6.54183e-05 5.93429e-05 1 0.867798 883.712)" fill="#2E2828"/>
<path d="M12.5792 369.016C12.5792 369.016 -49.1952 723.243 114.605 679.074C278.405 634.875 12.5792 369.016 12.5792 369.016Z" fill="#82C58D"/>
<path d="M12.5798 369.017L150.886 789.238" stroke="#403637" stroke-width="0.9513" stroke-miterlimit="10"/>
<path d="M15.0334 617.182L109.478 663.45L160.569 577.92" fill="#82C58D"/>
<path d="M15.0334 617.182L109.478 663.45L160.569 577.92" stroke="#403637" stroke-width="0.4756" stroke-miterlimit="10"/>
<path d="M2.64945 547.29L84.4262 587.35L128.69 513.289" fill="#82C58D"/>
<path d="M2.64945 547.29L84.4262 587.35L128.69 513.289" stroke="#403637" stroke-width="0.4756" stroke-miterlimit="10"/>
<path d="M1.35088 490.468L62.3918 520.337L97.5346 467.891" fill="#82C58D"/>
<path d="M1.35088 490.468L62.3918 520.337L97.5346 467.891" stroke="#403637" stroke-width="0.4756" stroke-miterlimit="10"/>
<path d="M3.62246 444.962L43.5693 461.386L65.9948 428.152" fill="#82C58D"/>
<path d="M3.62246 444.962L43.5693 461.386L65.9948 428.152" stroke="#403637" stroke-width="0.4756" stroke-miterlimit="10"/>
<path d="M227.8 249.052C227.8 249.052 -25.0284 624.273 183.347 643.496C391.69 662.718 227.8 249.052 227.8 249.052Z" fill="#85E093"/>
<path d="M227.8 249.052L167.53 783.656" stroke="#403637" stroke-width="0.9513" stroke-miterlimit="10"/>
<path d="M102.432 531.278L185.57 623.615L287.583 548.346" fill="#85E093"/>
<path d="M102.432 531.278L185.57 623.615L287.583 548.346" stroke="#403637" stroke-width="0.5829" stroke-miterlimit="10"/>
<path d="M124.502 446.822L196.49 526.793L284.841 461.618" fill="#85E093"/>
<path d="M124.502 446.822L196.49 526.793L284.841 461.618" stroke="#403637" stroke-width="0.5829" stroke-miterlimit="10"/>
<path d="M152.35 381.89L206.089 441.582L272.946 397.003" fill="#85E093"/>
<path d="M152.35 381.89L206.089 441.582L272.946 397.003" stroke="#403637" stroke-width="0.5829" stroke-miterlimit="10"/>
<path d="M178.425 331.326L215.209 366.81L257.784 338.636" fill="#85E093"/>
<path d="M178.425 331.326L215.209 366.81L257.784 338.636" stroke="#403637" stroke-width="0.5829" stroke-miterlimit="10"/>
<path d="M306.24 443.69L180.034 785.261" stroke="#403637" stroke-width="0.9513" stroke-miterlimit="10"/>
<path d="M306.24 443.69C306.24 443.69 80.0309 655.405 213.146 695.697C346.228 735.988 306.24 443.69 306.24 443.69Z" fill="#7AD78E"/>
<path d="M178.469 611.54L217.802 682.998L296.746 647.355" fill="#7AD78E"/>
<path d="M178.469 611.54L217.802 682.998L296.746 647.355" stroke="#403637" stroke-width="0.5" stroke-miterlimit="10" stroke-linecap="round"/>
<path d="M206.583 559.274L240.663 621.148L309.019 590.29" fill="#7AD78E"/>
<path d="M206.583 559.274L240.663 621.148L309.019 590.29" stroke="#403637" stroke-width="0.5" stroke-miterlimit="10" stroke-linecap="round"/>
<path d="M235.354 520.524L260.776 566.717L311.745 546.454" fill="#7AD78E"/>
<path d="M235.354 520.524L260.776 566.717L311.745 546.454" stroke="#403637" stroke-width="0.5" stroke-miterlimit="10" stroke-linecap="round"/>
<path d="M260.599 490.924L278.885 519.031L311.299 506.257" fill="#7AD78E"/>
<path d="M260.599 490.924L278.885 519.031L311.299 506.257" stroke="#403637" stroke-width="0.5" stroke-miterlimit="10" stroke-linecap="round"/>
<path d="M235.797 765.905L99.2418 765.989C99.2418 765.989 98.7596 771.795 98.9594 780.708L236.098 780.623C236.287 771.71 235.797 765.905 235.797 765.905Z" fill="#8F625E"/>
<path d="M101.957 810.144C102.867 815.01 104.069 820.023 105.594 824.948C107.12 829.932 109.001 834.827 111.304 839.546C113.866 844.822 116.946 849.834 120.641 854.347C124.888 859.564 129.943 864.134 135.97 867.678L135.971 868.939L199.228 868.9L199.227 867.639C205.282 864.088 210.3 859.511 214.539 854.289C218.229 849.772 221.303 844.756 223.858 839.477C226.123 834.755 228.031 829.857 229.55 824.872C231.069 819.916 232.232 814.931 233.168 810.063C234.105 805.019 234.782 800.093 235.265 795.46L99.8754 795.544C100.332 800.147 101.015 805.072 101.957 810.144Z" fill="#8F625E"/>
<path d="M99.8745 795.544L235.199 795.46C235.746 789.977 236.002 784.963 236.097 780.653L98.9584 780.737C99.0582 785.018 99.3204 790.061 99.8745 795.544Z" fill="#E3E1E4"/>
<path d="M199.228 868.9L135.971 868.939L135.98 883.746L199.237 883.707L199.228 868.9Z" fill="#3E3538"/>
<ellipse cx="8.96524" cy="9.65161" rx="8.96524" ry="9.65161" transform="matrix(1 6.13204e-05 5.59611e-05 1 530.938 52.5463)" fill="#FF3F3F"/>
<ellipse cx="8.96666" cy="9.65161" rx="8.96666" ry="9.65161" transform="matrix(1 6.13204e-05 5.59611e-05 1 588.993 52.9614)" fill="#83FF64"/>
<ellipse cx="8.96666" cy="9.65161" rx="8.96666" ry="9.65161" transform="matrix(1 6.13204e-05 5.59611e-05 1 559.765 52.9608)" fill="#FFF960"/>
<path d="M1472.91 881.587V881.587C1472.91 874.608 1469.47 867.228 1463.31 863.936C1458.3 861.253 1451.66 858.716 1444.16 858.682C1435.73 858.644 1430.21 861.249 1425.81 864.059C1420 867.775 1416.13 874.652 1416.13 881.554V881.554C1416.13 881.921 1428.72 881.501 1444.17 881.57C1459.79 881.641 1472.91 881.954 1472.91 881.587Z" fill="#E3E1E4"/>
<path d="M1447.1 859.155C1447.1 860.149 1445.32 860.149 1444.44 860.149C1442.97 860.149 1441.77 860.253 1441.77 859.155C1441.77 858.058 1442.97 857.168 1444.44 857.168C1445.91 857.168 1447.1 858.058 1447.1 859.155Z" fill="#585252"/>
<rect width="85.2375" height="2.96973" rx="1.48486" transform="matrix(1 6.13204e-05 5.59611e-05 1 1401.2 880.828)" fill="#D9D9D9"/>
</svg>
