<svg width="263" height="59" viewBox="0 0 263 59" fill="none" xmlns="http://www.w3.org/2000/svg">
<line x1="5" y1="-5" x2="53.1015" y2="-5" transform="matrix(0.701003 -0.713031 0.714254 0.700017 75.3784 51.0135)" stroke="#4C4B68" stroke-width="10" stroke-linecap="round"/>
<line x1="5" y1="-5" x2="51.7587" y2="-5" transform="matrix(-0.639167 -0.769181 0.770026 -0.637875 114.063 46.0037)" stroke="#4C4B68" stroke-width="10" stroke-linecap="round"/>
<g filter="url(#filter0_d_29_78)">
<line x1="5" y1="-5" x2="53.1015" y2="-5" transform="matrix(0.701003 -0.713031 0.714254 0.700017 75.3784 51.0135)" stroke="#4C4B68" stroke-width="10" stroke-linecap="round"/>
<line x1="5" y1="-5" x2="51.7587" y2="-5" transform="matrix(-0.639167 -0.769181 0.770026 -0.637875 114.063 46.0037)" stroke="#4C4B68" stroke-width="10" stroke-linecap="round"/>
</g>
<line x1="5" y1="-5" x2="53.1015" y2="-5" transform="matrix(0.701003 -0.713031 0.714254 0.700017 145.488 51.0135)" stroke="#454367" stroke-width="10" stroke-linecap="round"/>
<line x1="5" y1="-5" x2="51.7587" y2="-5" transform="matrix(-0.639167 -0.769181 0.770026 -0.637875 184.172 46.0037)" stroke="#454367" stroke-width="10" stroke-linecap="round"/>
<g filter="url(#filter1_d_29_78)">
<line x1="5" y1="-5" x2="53.1015" y2="-5" transform="matrix(0.701003 -0.713031 0.714254 0.700017 145.488 51.0135)" stroke="#454367" stroke-width="10" stroke-linecap="round"/>
<line x1="5" y1="-5" x2="51.7587" y2="-5" transform="matrix(-0.639167 -0.769181 0.770026 -0.637875 184.172 46.0037)" stroke="#454367" stroke-width="10" stroke-linecap="round"/>
</g>
<line x1="5" y1="-5" x2="53.1024" y2="-5" transform="matrix(0.700993 -0.71302 0.714264 0.700027 5.26929 51.0135)" stroke="#343349" stroke-width="10" stroke-linecap="round"/>
<line x1="5" y1="-5" x2="51.7579" y2="-5" transform="matrix(-0.639176 -0.769192 0.770015 -0.637866 43.9537 46.0037)" stroke="#343349" stroke-width="10" stroke-linecap="round"/>
<g filter="url(#filter2_d_29_78)">
<line x1="5" y1="-5" x2="53.1024" y2="-5" transform="matrix(0.700993 -0.71302 0.714264 0.700027 5.26929 51.0135)" stroke="#343349" stroke-width="10" stroke-linecap="round"/>
<line x1="5" y1="-5" x2="51.7579" y2="-5" transform="matrix(-0.639176 -0.769192 0.770015 -0.637866 43.9537 46.0037)" stroke="#343349" stroke-width="10" stroke-linecap="round"/>
</g>
<line x1="5" y1="-5" x2="53.1015" y2="-5" transform="matrix(0.701003 -0.713031 0.714254 0.700017 215.597 51.0135)" stroke="#5B5A82" stroke-width="10" stroke-linecap="round"/>
<line x1="5" y1="-5" x2="51.7587" y2="-5" transform="matrix(-0.639167 -0.769181 0.770026 -0.637875 254.282 46.0037)" stroke="#5B5A82" stroke-width="10" stroke-linecap="round"/>
<g filter="url(#filter3_d_29_78)">
<line x1="5" y1="-5" x2="53.1015" y2="-5" transform="matrix(0.701003 -0.713031 0.714254 0.700017 215.597 51.0135)" stroke="#5B5A82" stroke-width="10" stroke-linecap="round"/>
<line x1="5" y1="-5" x2="51.7587" y2="-5" transform="matrix(-0.639167 -0.769181 0.770026 -0.637875 254.282 46.0037)" stroke="#5B5A82" stroke-width="10" stroke-linecap="round"/>
</g>
<defs>
<filter id="filter0_d_29_78" x="70.3082" y="4.38477" width="51.7272" height="53.9589" filterUnits="userSpaceOnUse" color-interpolation-filters="sRGB">
<feFlood flood-opacity="0" result="BackgroundImageFix"/>
<feColorMatrix in="SourceAlpha" type="matrix" values="0 0 0 0 0 0 0 0 0 0 0 0 0 0 0 0 0 0 127 0" result="hardAlpha"/>
<feOffset dx="4" dy="4"/>
<feGaussianBlur stdDeviation="2"/>
<feComposite in2="hardAlpha" operator="out"/>
<feColorMatrix type="matrix" values="0 0 0 0 0 0 0 0 0 0 0 0 0 0 0 0 0 0 0.25 0"/>
<feBlend mode="normal" in2="BackgroundImageFix" result="effect1_dropShadow_29_78"/>
<feBlend mode="normal" in="SourceGraphic" in2="effect1_dropShadow_29_78" result="shape"/>
</filter>
<filter id="filter1_d_29_78" x="140.418" y="4.38477" width="51.7272" height="53.9589" filterUnits="userSpaceOnUse" color-interpolation-filters="sRGB">
<feFlood flood-opacity="0" result="BackgroundImageFix"/>
<feColorMatrix in="SourceAlpha" type="matrix" values="0 0 0 0 0 0 0 0 0 0 0 0 0 0 0 0 0 0 127 0" result="hardAlpha"/>
<feOffset dx="4" dy="4"/>
<feGaussianBlur stdDeviation="2"/>
<feComposite in2="hardAlpha" operator="out"/>
<feColorMatrix type="matrix" values="0 0 0 0 0 0 0 0 0 0 0 0 0 0 0 0 0 0 0.25 0"/>
<feBlend mode="normal" in2="BackgroundImageFix" result="effect1_dropShadow_29_78"/>
<feBlend mode="normal" in="SourceGraphic" in2="effect1_dropShadow_29_78" result="shape"/>
</filter>
<filter id="filter2_d_29_78" x="0.198975" y="4.38477" width="51.7273" height="53.9587" filterUnits="userSpaceOnUse" color-interpolation-filters="sRGB">
<feFlood flood-opacity="0" result="BackgroundImageFix"/>
<feColorMatrix in="SourceAlpha" type="matrix" values="0 0 0 0 0 0 0 0 0 0 0 0 0 0 0 0 0 0 127 0" result="hardAlpha"/>
<feOffset dx="4" dy="4"/>
<feGaussianBlur stdDeviation="2"/>
<feComposite in2="hardAlpha" operator="out"/>
<feColorMatrix type="matrix" values="0 0 0 0 0 0 0 0 0 0 0 0 0 0 0 0 0 0 0.25 0"/>
<feBlend mode="normal" in2="BackgroundImageFix" result="effect1_dropShadow_29_78"/>
<feBlend mode="normal" in="SourceGraphic" in2="effect1_dropShadow_29_78" result="shape"/>
</filter>
<filter id="filter3_d_29_78" x="210.527" y="4.38477" width="51.7272" height="53.9589" filterUnits="userSpaceOnUse" color-interpolation-filters="sRGB">
<feFlood flood-opacity="0" result="BackgroundImageFix"/>
<feColorMatrix in="SourceAlpha" type="matrix" values="0 0 0 0 0 0 0 0 0 0 0 0 0 0 0 0 0 0 127 0" result="hardAlpha"/>
<feOffset dx="4" dy="4"/>
<feGaussianBlur stdDeviation="2"/>
<feComposite in2="hardAlpha" operator="out"/>
<feColorMatrix type="matrix" values="0 0 0 0 0 0 0 0 0 0 0 0 0 0 0 0 0 0 0.25 0"/>
<feBlend mode="normal" in2="BackgroundImageFix" result="effect1_dropShadow_29_78"/>
<feBlend mode="normal" in="SourceGraphic" in2="effect1_dropShadow_29_78" result="shape"/>
</filter>
</defs>
</svg>
